<?xml version="1.0" encoding="utf-8"?>
<!-- Generator: Adobe Illustrator 19.0.0, SVG Export Plug-In . SVG Version: 6.00 Build 0)  -->
<svg version="1.1" id="Layer_1" xmlns="http://www.w3.org/2000/svg" xmlns:xlink="http://www.w3.org/1999/xlink" x="0px" y="0px"
	 viewBox="0 0 1000 300" style="enable-background:new 0 0 1000 300;" xml:space="preserve">
<style type="text/css">
	.st0{fill:#575757;}
	.st1{fill-rule:evenodd;clip-rule:evenodd;fill:#FF9900;}
</style>
<g>
	<path class="st0" d="M393.8,93.7l-7.1,18.2h19.7c1.2,0,2.1,0.4,2.6,1.2c0.5,0.8,0.6,1.8,0.1,2.9l-11.8,30.2L387,172.3h21.8
		l10.2-26.1l11.9-30.2c1-2.7,3-4,5.9-4h17.5l7.1-18.2H393.8z M288.6,172.5H310l15.8-43.3h0.2l11.8,43.3h20.8l28.8-78.8h-20.6
		L355.3,123c-1.1,2.8-2.5,7.2-4.3,13.4h-0.2l-11.2-42.7h-31.4l-7.2,18.1h5.7c1.1,0,2,0.4,2.5,1.1c0.5,0.7,0.6,1.6,0.3,2.7
		L288.6,172.5z M233,115.9c0.4-1.1,0.4-2-0.2-2.9c-0.5-0.8-1.4-1.2-2.6-1.2h-6.6l7.1-18.2h69.4l-7.2,18.2h-34.5l-4.7,11.8h32.4
		L279,142h-32.4l-4.5,11.6h36.5l-6.4,18.7h-61.3L233,115.9z M138.9,93.7h22.3v55.2l38.1-55.2h23.5l-56.5,78.6h-27.4V93.7z M67,115.9
		c0.4-1.1,0.4-2-0.2-2.9c-0.5-0.8-1.4-1.2-2.6-1.2h-6.6l7.1-18.2h69.4l-7.2,18.2H92.4l-4.7,11.8h32.4l-7.2,18.4H80.6L76,153.6h36.5
		l-6.4,18.7H44.8L67,115.9z"/>
	<path id="XMLID_35_" class="st1" d="M455.5,127.5l29-39.6l114.9-22.2c23.5-4.6,36.2,13,23.3,28.5l-51.9,62.2l79.9,78.7l-103.5-55.9
		c-16.4-8.9-15.2-23.4-2.2-38.1l32.6-36.7L455.5,127.5z"/>
	<polygon id="XMLID_34_" class="st1" points="497.7,129 423,230.9 511.3,193.9 486.8,193.9 553.9,118.4 	"/>
	<path id="XMLID_33_" class="st0" d="M640.6,115.9c0.4-1.1,0.4-2.1-0.2-2.9c-0.5-0.8-1.4-1.2-2.6-1.2h-6.6l7.1-18.2h69.5l-7.2,18.2
		h-34.6l-4.7,11.8h32.5l-7.2,18.4h-32.5l-4.5,11.6h36.6l-6.4,18.8h-61.4L640.6,115.9z"/>
	<path class="st0" d="M747.9,93.7l-58.5,78.7h24.9l9.6-13.4h28.6v13.4h22.8V93.7H747.9z M752.5,141.8h-16.1l16.1-23.7V141.8z"/>
	<path class="st0" d="M829.5,172.6c10,0,16.9-5,20.7-14.8l18.4-49.3c1.9-4.8,1.8-8.5-0.2-11c-2-2.5-5.6-3.7-10.9-3.7h-56.1
		l-7.1,18.3h5.6c1.2,0,2.1,0.4,2.6,1.2c0.5,0.8,0.6,1.7,0.2,2.8l-22.2,56.7H829.5z M827.4,154.3h-16.8l15.8-42.3H844L827.4,154.3z"
		/>
	<polygon id="XMLID_28_" class="st0" points="877.5,93.7 901.5,93.7 904.1,126.7 931,93.7 955.2,93.7 909.8,145.1 899.8,172.7 
		874.5,172.7 885.3,144.4 	"/>
</g>
</svg>
