<?xml version="1.0" encoding="utf-8"?>
<!-- Generator: Adobe Illustrator 16.0.0, SVG Export Plug-In . SVG Version: 6.00 Build 0)  -->
<!DOCTYPE svg PUBLIC "-//W3C//DTD SVG 1.1//EN" "http://www.w3.org/Graphics/SVG/1.1/DTD/svg11.dtd">
<svg version="1.1" id="Layer_x0020_1" xmlns="http://www.w3.org/2000/svg" xmlns:xlink="http://www.w3.org/1999/xlink" x="0px"
	 y="0px" width="900px" height="600px" viewBox="0 0 900 600" style="enable-background:new 0 0 900 600;" xml:space="preserve">
<g id="_133914472">
	
		<linearGradient id="SVGID_1_" gradientUnits="userSpaceOnUse" x1="154.6865" y1="695.7275" x2="148.7075" y2="689.7485" gradientTransform="matrix(72 0 0 -72 -10296 50190.3125)">
		<stop  offset="0" style="stop-color:#1A346D"/>
		<stop  offset="0.149" style="stop-color:#1A346D"/>
		<stop  offset="0.3294" style="stop-color:#1A346D"/>
		<stop  offset="0.4392" style="stop-color:#0040C9"/>
		<stop  offset="0.5294" style="stop-color:#1A346D"/>
		<stop  offset="0.6392" style="stop-color:#1A346D"/>
		<stop  offset="0.8196" style="stop-color:#A3BEF7"/>
		<stop  offset="1" style="stop-color:#D6E3FF"/>
	</linearGradient>
	<path style="fill:url(#SVGID_1_);" d="M713.4,450.6c-0.1-1.7-1.2-7.4,0.3-7.9c0.6-0.2,2.1-0.7,2.5-0.9c0.4-0.1-0.2,0,0.1,0
		s0.9-0.5,1.2,0.7c0.3,1.2,0.9,3.3,0.6,4.7c-0.3,1.4-2.2,3.4-3.1,4.1c-1,0.7,0.1-0.1,0,0c-0.1,0.1-0.2,0.2-0.6,0.2
		C714.1,451.6,713.5,452.1,713.4,450.6L713.4,450.6z M746.3,489.5c0,0.1,0,0.5,0.2,0.5c0.2-0.1,0.1-0.4,0-0.5
		C746.4,489.3,746.3,489.4,746.3,489.5L746.3,489.5z M721.8,452.9C721.8,452.9,721.8,452.9,721.8,452.9
		C721.8,452.9,721.8,453,721.8,452.9c0.1-0.2,0.3-0.5,0.8-0.6s1.6-0.2,2-0.3c0.4-0.1,0.3-0.1,0.7,0.1c0.3,0.2,0.7,0.9,0.4,1.4
		c-0.2,0.5-0.8,0.9-0.7,1.3c0.1,0.4,0.6,0.3,0.6,0.8c0.1,0.5-0.2,1.3,0.2,1.6c0.4,0.3,1.2-0.1,1.6-0.2c0.4-0.1-0.2-0.5,0.8,0.2
		c0.9,0.7,6.1,3.9,7.8,4.6c1.6,0.7,1,0.4,1.5,0.5c0.4,0.1,0.9,0.2,1.1,0.2s0,0,0,0c0,0,0,0,0,0c0,0-0.5,0,0,0c0.5,0,1.6-0.2,3-0.7
		s4.4-0.5,6.1-0.3c1.7,0.2,0.9-1.5,1.3-2.1c0.3-0.6,0.6-0.7,1.3-0.4s1.7,1,2.4,1c0.7,0,1.3-0.7,1.5-0.9c0.3-0.2,0.2,0.5,0,0
		c-0.2-0.5-1.2-2.5-1.5-3c-0.2-0.5,0,0.1,0,0c0-0.1,0.1-0.4-0.1-0.5c-0.2-0.2-0.9-0.3-1.1-0.3s0.1,0,0,0c0,0,0,0-0.3-0.2
		c-0.3-0.2-0.6-0.9-0.2-1.4s1.1-1.4,1.3-1.7c0.4-0.5-0.6-1.7-1.1-2.6c-0.2-0.4,0.1,0.1,0,0s-0.3-0.4,0-1c0.3-0.5,1-1.8,1.3-2.3
		c0.3-0.5,0.5-0.5,0.7-0.5c0.3,0,0.5,0.1,0.7-0.1s0.5-0.6,0.8-0.6c0.3,0,0.3,0,0.5-0.1s0.5-0.1,0.8,0.2c0.3,0.3,0.4,1.1,0.2,1.4
		c-0.2,0.3-0.7-0.3-0.2,0.2s2.4,2.4,2.8,2.9s-0.1-0.1,0,0c0.1,0.1,0.7-0.2,0.2,1c-0.4,1.2-0.3,3.2,0.1,4.1c0.4,0.9,0.7,1.7,0.8,2.1
		c0.1,0.4-0.1-0.2,0,0c0.1,0.2,0.2,0.9-0.6,1.2c-0.8,0.3-2.8,1.1-3.4,1.3s-0.1-0.5,0,0.1s0.8,3,1,3.6s0,0,0,0c0,0-0.6-5.1,0,0.1
		s-1.3,14.3-2.6,16.1c-1.3,1.8-1.6,1.8-1.6,2.7s1,0.1,0.8,1.1c-0.1,1-0.6,2.3-1.1,2.7c-0.5,0.4-1.4-0.6-1.3,0.5
		c0.1,1.1,0.5,3.5,0.4,4.5c-0.1,1-0.1,0.6-0.1,1.1c0,0.5-0.3,1-1.1,0.9c-0.7,0-2.2-0.2-2.7-0.2s0.1,0,0,0c-0.1,0-0.4-0.1-0.5-0.2
		c-0.2-0.1-0.5-0.4-0.6-0.5c-0.1-0.1,0.1,0.1,0,0c-0.1-0.1-0.2-0.3-0.3-0.4c-0.1-0.1-0.1,0.1-0.3,0.2c-0.2,0.1-0.7,0.1-0.9,0.4
		s-0.1,1.1-0.2,1.3c-0.1,0.2,0,0,0,0c0,0,0.1-0.3,0,0c-0.1,0.3-0.6,1-1,1.2c-0.5,0.2-1.1,0.2-1.5,0.2c-0.4-0.1-0.5-0.6-0.9-0.3
		c-0.4,0.3-0.5,1.2-0.8,1.7c-0.2,0.5,0,0.8-1.1,0.6c-1.1-0.2-2.5-0.6-3.5-1c-1-0.4-3-0.8-4.4-0.6c-1.4,0.2-1-0.2-1.1-0.9
		c-0.1-0.6,0.1-1.7-0.3-2.2s-0.1,1.2-1.1-0.5c-0.9-1.7-4.1-7.5-4.9-9c-0.8-1.5,0,0.1,0,0s-0.1,0.9-0.1-0.5c0-1.4,0.1-6.4,0-7.9
		c0-1.5-0.6-1.2-1-1.8s-0.9-1.4-1-1.8s0.2,0.4,0,0c-0.3-0.4-1.7-3.9-2.1-5c-0.3-1.1-0.2-0.7-0.3-1.1c-0.1-0.3-0.2-0.8-0.2-0.9
		c0-0.1,0,0,0,0s0,0,0,0c0,0,0.2,1.2,0,0c-0.2-1.2,0.5-6.5,0.9-8.1c0.5-1.6,0.3-1,0.5-1.5C721.5,453.7,721.7,453.1,721.8,452.9
		C721.9,452.7,721.8,452.9,721.8,452.9L721.8,452.9z M644.5,399.4c0.3,0.5,7.1-0.6,7.1-0.6l0.8-1.7l5.3-0.7l-1.8-1.4l-1,0.7
		l-2.2-0.8c0,0,0.8-2.2-0.3-2.1s-8.9,1.1-9.5,3.1C642.4,397.8,644.1,398.9,644.5,399.4L644.5,399.4z M543.3,100.3
		c0.3,2.1-1.7,5.6-0.6,7.6s-0.9-2.5-1.6-0.3c-0.8,2.2,3.4,1.8,7.7,1.7c4.3-0.1,7.6-2.4,9.7-3.9c2.1-1.5-1.2-0.9-0.7-1.5
		s0-2.4-0.4-3.2c-0.4-0.8-1.7-0.8-1.7-0.8l-7.6,3.6C548,103.5,543,98.2,543.3,100.3z M566.6,99c-4.3-1.9-1.9,4.6-1.4,5.5
		c0.4,0.9,0.8-1.7,0.8-1.7l2.7,0.2c0,0-1.5-1.4-0.7-1c0.9,0.4,1.8,1.9,2,3c0.1,1.1,1.5-0.7,1.6,0.3s-1,4.4-2.7,4.1
		c-1.6-0.3-0.3,1.6-0.3,1.6l-3.1,0.9l-3.7,0.5l-3.8-0.1l-1.3-2l-0.8,2.2l-1.6-0.3c0,0,1.3-2,0.3-1.6c-1,0.4-1.8,2.9-1.6,4
		c0.1,1.1-1.9,1.8-1.9,1.8s-2.6-1.3-2.8-0.7s-0.3,0.6-1.9,1.8c-1.6,1.3-1.5,4.7-2.5,5.1c-1,0.4-1.8,2.9-1.8,2.9l0.1,1.1
		c0,0,4.2-0.3,3.3,0.6c-1,0.9-3.2,2.5-4.5,2.7c-1.3,0.2-0.8,6.5-0.8,6.5l-3,1.5l-1,4.9l3.4,1.2l1.5,3c0,0-1.8-1.6-2.2-0.8
		c-0.4,0.9-2.3,1.1-3.1,0.9c-0.8-0.2,1.1,1.3,0,0.9s-7.6-1.1-9.2-0.3c-1.7,0.8-1.9,1.2-2,1.3s0.6-2.4,0.6-2.4s-4.5-0.6-4.6-0.8
		c-0.5-0.9-2.4-3.6-5.9-6.1c-1-0.7-3.3-0.8-3.5-0.7c-0.1,0-0.2-1.6-0.4-1.5c-1,0.6-1.6,1-1.6,1s0,0.2-0.4-0.8
		c-0.1-0.4-0.7-0.4-1.2-0.3c-1,0.1-2.9,1.6-3.3,2.3c-0.5,0.9-0.5,0-0.9,0.3l-1.6-0.3l-0.4,1.1l-0.1,1.5l-2.2,1.5
		c-1.9-6.3-5.4-0.9-1,0.7l-1.6,0.2l-0.5,0.6l-0.4,1.1c0.4,2.8-1.2,3.2-4.5,4.3c-2.6,0.9-3.7,1.9-3.2,5.8c0.3,2.1-3.4-1.2-3.4-1.2
		l-1.4,1.8l1.6-0.2c-0.6,3.3,0,3.2-3.3,3.6l-0.1-1.1c-0.5,1.3-1.8,0.9-1.4,1.8c0.6,1.3,0.2,1.7,0,2.7c-0.3,1.7-0.8,3.8,0.4,6
		l0.9,1.7l-0.7,2.3c-0.3,1-1.5-1.4-2.3-1.3c-0.8,0.1-2.4-0.2-3.3-0.6c-0.9-0.4-1,0.7-1,0.7l-0.1-1.1l-2.9,0.8l-3.3-2.1
		c-0.1,0.8,0.3,2.3-0.4,3.2c-0.7,0.9-2.6,1.3-3.4,2.3c-1.2,1.4-2.3,2.8-2.7,5.2c-0.2,0.8,1.2,2-0.6,3.1c-0.8,0.5-1.5,3.8-1.8,6.7
		c0,0.2-1.4-0.6-2.3-0.5c0,0,0.8,9.9,1.9,9.5c2.9-1.1,1.4-0.5,1.4-0.5l-6,5.7l0.3,2.1c0,0-1.6,0.5-2.1,1c-0.2,0.2-0.2,0-0.1,0.8
		c0.3,2.3-0.7,7-4.5,10c-3.8,3.1-10.5,7.2-13.6,8.1c-3.1,0.9-4.5,0.3-6.5,1.3c-2,1.1-3,3.6-3.7,4.2c-0.7,0.6-8.7,2.2-9.1,3.8
		c-0.4,1.6-0.2,2.5-7.6,3.6c-7.3,1.2-6.3-0.1-12.9,8.1c-6.5,8.2-5.3,6.8-6.6,7.3c-1.3,0.4-6.8,5.7-6.8,5.7s-2.4,12.6-3.6,9.6
		c-1.2-3.1-1.4-5.1-2.2-8.8c-0.8-3.7-1.7,1.3-2.4,2.4s-1.6,8.2-1.4,9.8s2,3.2,2.2,4.5c0.2,1.3,0.9,4.7,0.7,5.8
		c-0.1,1.1-2.1,6.4-1.3,10.9c0.8,4.4,2.4,4.2,3.4,5.5s2.1,3.5,2.1,3.5s4.4,4.8,5,5.2c0.6,0.5,3,2.3,3.7,3.8s3,6.6,0.8,6.3
		c-2.2-0.3-2.9-3.7-3.3-5c-0.4-1.3-0.4,5.2-1.2,2.9c-0.8-2.3-3.1-7.3-5.3-7.9s-1.7,6,1.8,5.8c0.8-0.1-2.7,3-3.7,1.3
		c-1.1-1.9-4-5.3-4.4-3.7c-0.3,1,1.4,5.4,2.8,7.2c2.2,2.8,4.5,2.2,4.5,2.2s2.5,3.7,3.4,4.4c0.9,0.7,2.2-0.3,5.5,3
		c3.4,3.3,3.1,7.6,5,10.1c1.9,2.4,3.8,2.4,5.3,4.1c1.6,1.7,1.5,3,2.7,4.5c1.3,1.4,3.7,3.5,4.4,5.3c0.8,1.8,1.7,7.3,2.1,7.8
		c0.3,0.5,3.9,7.5,4.2,8c0.3,0.5,4.3,4.5,5.6,6.2c1.3,1.7,3.7,5.8,4.5,10.1s0.7,3.4,1.4,6.8c0.7,3.4,2.4,6.4,1.1,8.9
		c-1.3,2.6-1.1,1.7-1.9,1.8c-0.8,0.1-2.7-2.8-2.7-0.2c0,2.7-0.9,10.6,4,10.7s8.8,1.8,10.5,2.4c1.7,0.6,5.5,1.2,6.6,1.3
		s3.3-0.1,5.8-0.7c2.5-0.6,3.6-0.7,4.7-0.6c1.1,0.1,4.1-1.6,4.1-1.6l3.9-2.6c0,0-2.4-0.2-1.3-1.4c1.2-1.2,0.4-4,4.1-5.9
		c3.7-1.9,5.5-1.2,7.2-2c1.8-0.8-3.4,2.8-1.7-0.9s7.3-5.7,9.3-6.5c2-0.8,1.7-1.6,4-2.1c2.3-0.6,6.6-0.8,8.4-1.1
		c1.8-0.2,3.5-1.7,3.1-0.9c-0.4,0.8-1.3,1.4,3.2-0.4s6.5-1.1,8,0c1.5,1.1-1.3-1.4,1.9-1.8s5.1-8.4,7.1-11.6c2-3.2,5-2.8,6-3.4
		c1-0.7,10.2-8.3,11.2-8.9c1-0.7,4.7-0.6,5.8-0.7c1.1-0.1,7.8-2.1,7.8-2.1s10.6-5.1,11.6-5.8c1-0.7,2.2-1.9,5.5-3.4
		c3.3-1.5,12.8-2.7,16.7-3.2c3.9-0.5,3-1.2,5.7-1.3c2.7-0.1,9.8,4.1,11.3,4.4s1.2,1.5,2.7,0.2c1.5-1.3,4.9,0.7,7.1,1.2
		c2.2,0.5,0.1,1.3,3.1,0.9c3-0.4,3.1,3.4,4.3,3c1.3-0.4,3.8,0.1,4.4,1c0.7,1-2,0.8-2,0.8s0.7,1.7,0.3,2.6s0.9,0.8,0.7,1.5
		c-0.1,0.7,1.8,1.9,1.8,1.9s3.8-1.8,4.2-0.5c0.4,1.3-1.4,2.1,1.2,5.2c2.6,3.1,5.7,2.7,5.5,7.2c-0.1,4.5,3.7,8.7,4.1,9.2
		s2.4-1.9,2.4-1.9l0.7,1.5l1.1-0.1l-0.2-5.8l0.7-2.3l4.7-4.9c0,0,4.1,0.5,6.4-4.6c2.2-5.1,11.6-11.2,6.2-1.3c-5.3,9.8,0,13-3.7,17.1
		s-5.3,2.8-5.8,5c-0.5,2.2,5.7-1.8,5.7-1.8l3.2-0.4l1.2-3.4c0,0,0.8-10.8,2.1-8.8c1.3,2,5.5,11.3,3.5,14.5c-2,3.2-2.4,2.2-2.9,2.5
		c-0.5,0.3-1.9,0.3,0.5,0.8c2.5,0.5,4.7-1.5,7.5-0.8s8.5,8,9.3,10c0.8,2.1,1.2,3,1.1,4.1c-0.1,1.1-1.8,0.3-1.8,2.4
		c-0.1,2.1,6,11.8,8.7,13.3c2.7,1.5,7.8,2.7,8.1,4.8c0.3,2.1,0.6,0.5,0.6,0.5l1.1,0.4c0,0,0.8-2.2,1.3-2.3s7.2,1.8,8.9,2.6
		s5.6,4.6,9.2,4.7c3.6,0.1,10.2-6.6,14-3.4c3.8,3.2,0.8-2.4,2.7,0.2c1.9,2.6,6.6,3.7,7.1,5.5c0.5,1.8,1.2-3,2-1.3s2,2.5,6.2-0.8
		c4.2-3.3,6.7-6.8,12.8-9.2c6.1-2.4,13.4,0.4,16-0.4s4.7-2.7,5.4-3.9c0.7-1.2,0.3-1.6,0.3-2.2c-0.1-0.5,1.2,0.9,1.1,0.4
		c-0.1-0.5-0.6-2.6-0.5-4.2c0.1-1.6,2.6-7.4,3.7-8.5c1.2-1.1-0.4-1-0.3-2.6c0.1-1.7,4-8.8,4.6-9.7c0.7-0.9,3.9-2.6,3.9-2.6l-0.3-2.1
		l2.2-7.8l3.3-3.1l2-5.1l6.4-8.8l3-1.5c0,0,2.3-0.6,2.5-1.4s1.6-1.8,2.4-1.9c0.8-0.1,1-4.9,1-4.9l4.8-8.1l2-5.6l0.4-5.4l1.6-4l2-5.6
		l1.7-7.7l3.5-5.8c0,0,0.6-6.4,0.1-7.5c-0.5-1.1-3.8-9.8-2.5-11.4c1.2-1.6-1.6,0.2-1.6,0.2l-1-3.6c0,0,1.5,3.5,1.6,0.3
		c0.1-3.2,1.1-9.6,1.2-15.7s1.7-8.9,2.3-11c0.7-2.1-0.9-6.6-2.6-3.9c-1.8,2.6-0.8,4.1-2,5.1c-1.2,1,0.8,2,0.8,2l-4.7-3.1l-2.3-5.6
		l-3.6-2.8l-4.6-6.9l-3.9-1.1c-0.8-3.6-0.9-8.8-5.5-5.7l-1.3-5.7c0,0,0.5-2.7,0.5-4.3c0.1-1.6-0.4-5.2-1.6-6.4
		c-3.6-3.5-1.9,2.2-2,3.1l-2.4-2.4l-1,0.7l-2.1-4l-2.2-0.3l0,4.3c-2.9-0.3-2.7-1.1-4.2-3.7l-0.1-1.1c2.7-0.4-1.3-2.2-1-3.6
		c1.1-5.5-1.8-2.4-1.5-3.5c0.2-0.8,0.5-0.6-0.5-3.7c-0.9-3.1-2.8-3.1-4.4-4.8c-1.6-1.7-2.3-3.2-2.6-3.9c-0.4-0.8,1.1-0.1,1.1-0.1
		l-0.1-0.5l1.8,1.9l-0.3-2.6l1.8,1.9l1.1-0.1l0.5-0.6c-3.2-4.1-9.8-3.3-10.2-4.6s-2.3-3.2-3.2-3.9c-0.9-0.7-2,0.8-2,0.8
		c-0.2-1.7,0.1-3.2-2-3c0,0-0.4,3-0.8,1.7c-0.4-1.3-1.7-7.2-4-6.4c-2.3,0.8-3-0.2-3.4-1.2c-0.4-1-1.7,1.2-1.7,1.2l-1.2-0.4
		c0,0,1.9-2.5,0.6-2.1c-1.3,0.4-5.6-1.1-6.1-3.2c-0.2-0.9,0.3-2.5,0.2-3.6c-0.2-1.8-1.1-4.6-0.9-6.1l-3.6,2.7c0,0,2.4-4.6,1.6-4.8
		c-0.8-0.2-0.8-2-1-3.6c-0.2-1.6-2.8-7.4-3.2-8.1c-0.4-0.8,1.6-0.2,1.6-0.2s2.1-0.5-0.1-1.1s-6.8-4.7-7.8-6.5s1.5-0.7,1.5-0.7
		l-3.6-11.3c0,0,1.1-1.5,0.8-2.2c-0.4-0.8-0.1-2.9,0.1-3.8c0.2-0.8-9.8-5.2-9.8-5.2l-1.1-4.7c0,0-2.6,5-2.9,2.5
		c-0.3-2.5-2.2,2.2-4.5,2.2c-2.4,0-2.9-4.2-3.3-4.9c-0.4-0.8-1.5-3.5-1.5-3.5s0.2-3,0-4.3c-0.2-1.3-1.4-4.6-0.9-7.4
		c0.5-2.7-2.6,0.3-2.6,0.3l1.2-3.4c0,0-4.8-1.8-4.7-3.1c0.1-1.3,1.8-2.4,2.1-4.5c0.3-2.2-3.7,0-5.1-2c-1.3-2-2.5-8.4-5.2-11.1
		c-2.7-2.7,2.1-2.6,0.1-3.8h0c-2.1-1.1-4.9,3.4-6.8,9.4c-1.9,6-3.9,15.6-4.2,17.1c-0.4,1.5,3.2-0.4,3.2-0.4s-2.7,4.4-2.6,5.1
		c0.1,0.8,0.9,3.1,0.6,4.7c-0.3,1.7-1.7,3.7-1.4,6.1c0.3,2.4,1.4,2.5,1.6,4.1c0.2,1.6-0.1,3.5,0.1,4.8c0.2,1.3,1.3,6.2,1.3,6.2
		s-1.4,5.8-1.7,7.7c-0.3,1.9-0.2,6.4-1.3,10.3c-1.1,3.9-2.6,5.1-2.9,6.3c-0.4,1.1-0.5,2.2-1.1,3.9c-0.6,1.7-6.7,6.2-8.9,5.9
		c-2.2-0.3,5.2,2.7-5.7-2.5s-7.6-9.2-18.3-8.9s-1.2-3.2-5.4-4.7c-4.2-1.5-19.4-9.4-22.8-11.7s-1-0.8-1.8-0.7
		c-0.8,0.1-1.5,0.5-2.5-1.2c-1-1.8,2.6-6.7,4-7.5c1.4-0.8,0.5-10.9,2.8-13.3c2.3-2.4,2.9-1.2,3.6-3.6c0.7-2.4-0.6-2.9,0.1-3.8
		c0.7-0.9-0.7-1.5-0.7-1.5l3.8-3.7l-2.5-2.9c0,0-1.3,4.6-2.5,1.4s-3.2-3-6.5-0.8c-3.3,2.2,1.6,0.3,1.6,0.3l-0.9,1.2
		c0,0,2.6-0.9,2.2,0.3c-0.4,1.1-1.6,4-3.3,3.1s0.2-2.7-0.4-3.2c-0.6-0.5,0.3-1.6,0.3-1.6l-3.9,2.6l-0.6-0.5l2.8-3c0,0,0.3-0.6,0-0.8
		s-1.4,0.5-1.2-0.1c0.2-0.5-8.9,4.7-9.9,2.3c-1-2.3-1.5,0.7-1.5,0.7s1.5-2.9-1.3-1.4c-2.8,1.4-4,1.9-7.3,1.5
		c-3.3-0.5-2.8-1.2-3.9-1.1c-1.1,0.1,0.9-1.2,0.9-1.2l-0.1-0.5c0,0-6.5,1.4-6.3,0.8c0.2-0.6,0.3-1.6-0.3-2.1
		c-0.6-0.5,1.8-2.4,0.8-1.7c-1,0.7-1.2,2.5-2.3,3s-4.2-3.2-4.8-3.7c-0.6-0.5-2.9,2.5-2.9,2.5s-0.7-7.4-1.4-6.8
		c-0.7,0.6-1.6,2.3-1.7,3.4"/>
	
		<linearGradient id="SVGID_2_" gradientUnits="userSpaceOnUse" x1="147.8877" y1="689.8281" x2="147.8877" y2="692.041" gradientTransform="matrix(72 0 0 -72 -10296 50190.3125)">
		<stop  offset="0" style="stop-color:#000000"/>
		<stop  offset="0.6196" style="stop-color:#000000"/>
		<stop  offset="0.6236" style="stop-color:#B7BEC8"/>
		<stop  offset="0.8588" style="stop-color:#000000"/>
		<stop  offset="1" style="stop-color:#000000"/>
	</linearGradient>
	<path style="fill:url(#SVGID_2_);" d="M220.8,466.8c-1.5,2.4-2.2,5.1-2.2,8.2c0,2.1,0.4,3.8,1.1,5.1l24.1,40.8
		c0.6,1.2,1.5,1.8,2.5,1.8c2.1,0,4-1.6,5.8-4.7l84.2-145.9c0.8-1.6,1.3-3,1.3-4.4c0-2.9-1.6-4.4-4.9-4.4H132.4c-2.4,0-5,0.8-7.7,2.5
		c-2.7,1.7-4.7,3.8-6.1,6.2l-45.4,78.4c-0.8,1.6-1.3,3-1.3,4.4c0,2.9,1.7,4.4,5.1,4.4h43.6c2.3,0,4.8-0.8,7.5-2.5
		c2.7-1.7,4.7-3.8,6.1-6.2l40.3-69.7c1.5-2.4,3.5-4.5,6.2-6.2s5.2-2.5,7.6-2.5l0,0c3.3,0,4.9,1.5,4.9,4.4c0,1.3-0.4,2.8-1.3,4.4
		l-40.3,69.7c-0.8,1.6-1.2,3-1.2,4.4c0,2.9,1.7,4.4,5.1,4.4h43.6c2.3,0,4.8-0.8,7.6-2.5c2.7-1.7,4.7-3.7,6.1-6.1l40.2-69.7
		c1.5-2.4,3.5-4.5,6.2-6.2s5.2-2.5,7.6-2.5l0,0c3.3,0,4.9,1.5,4.9,4.4c0,1.3-0.4,2.8-1.3,4.4L220.8,466.8L220.8,466.8z M358.9,363.4
		c-2.4,0-5,0.8-7.7,2.5c-2.7,1.7-4.7,3.8-6.1,6.2l-45.4,78.4c-0.8,1.6-1.3,3-1.3,4.4c0,2.9,1.7,4.4,5.1,4.4H347
		c2.3,0,4.8-0.8,7.5-2.6c2.7-1.7,4.7-3.8,6.1-6.2l40.4-69.6c1.5-2.4,3.5-4.5,6.2-6.2c2.7-1.7,5.2-2.5,7.6-2.5l0,0
		c3.3,0,4.9,1.5,4.9,4.4c0,1.3-0.4,2.8-1.3,4.4l-5.1,8.7c-0.8,1.6-1.3,3-1.3,4.4c0,2.9,1.7,4.4,5.1,4.4h43.6c2.3,0,4.8-0.8,7.5-2.5
		s4.7-3.8,6.1-6.2l10.2-17.4c0.8-1.6,1.3-3,1.3-4.4c0-2.9-1.6-4.4-4.9-4.4L358.9,363.4L358.9,363.4z M505,363.4
		c-2.4,0-5,0.8-7.7,2.5c-2.7,1.7-4.7,3.8-6.1,6.2L481,389.5c-0.8,1.6-1.3,3-1.3,4.4c0,2.9,1.7,4.4,5.1,4.4h43.7
		c2.3,0,4.8-0.8,7.6-2.5c2.7-1.7,4.7-3.7,6.1-6.1l5.1-8.7c1.5-2.5,3.5-4.5,6.1-6.2c2.7-1.7,5.2-2.6,7.6-2.6l0,0
		c3.3,0,4.9,1.5,4.9,4.4c0,1.4-0.4,2.8-1.2,4.4l-10,17.4c-1.5,2.4-3.5,4.4-6.2,6.1c-2.7,1.7-5.2,2.5-7.7,2.5l0,0h-61
		c-2.4,0-5,0.8-7.6,2.5c-2.7,1.7-4.7,3.8-6.2,6.2l-20.1,34.8c-0.8,1.6-1.3,3-1.3,4.4c0,2.9,1.7,4.4,5.1,4.4h121.9
		c2.3,0,4.8-0.8,7.5-2.5c2.7-1.7,4.7-3.8,6.1-6.2l45.4-78.4c0.8-1.6,1.3-3,1.3-4.4c0-2.9-1.6-4.4-4.9-4.4H505L505,363.4z
		 M529.3,441.7c-1.3,2.4-3.4,4.5-6.1,6.2c-2.7,1.7-5.3,2.5-7.7,2.5l0,0c-3.3,0-4.9-1.5-4.9-4.4c0-1.3,0.4-2.8,1.3-4.4l10.2-17.4
		c1.3-2.4,3.3-4.5,6-6.2c2.7-1.7,5.2-2.5,7.6-2.5l0,0c3.4,0,5.1,1.5,5.1,4.4c0,1.3-0.4,2.8-1.3,4.3L529.3,441.7L529.3,441.7z"/>
	
		<linearGradient id="SVGID_3_" gradientUnits="userSpaceOnUse" x1="149.2817" y1="692.8418" x2="151.7865" y2="695.3465" gradientTransform="matrix(72 0 0 -72 -10296 50190.3125)">
		<stop  offset="0" style="stop-color:#FFFFFF"/>
		<stop  offset="7.843100e-002" style="stop-color:#FFFFFF"/>
		<stop  offset="0.3098" style="stop-color:#A8ADB3"/>
		<stop  offset="0.4784" style="stop-color:#FFFFFF"/>
		<stop  offset="0.6196" style="stop-color:#FFFFFF"/>
		<stop  offset="0.9216" style="stop-color:#A4A7AD"/>
		<stop  offset="1" style="stop-color:#9FA2A8"/>
	</linearGradient>
	<path style="fill:url(#SVGID_3_);" d="M533.1,174.7c21.2-23.9,45-39.9,69.4-54.2l14.8,0.5c0,0-0.8,6-1.6,11.2
		c-2.5,1.4-6.6,6.7-3.6,9.5c1.2,0.9,1.7,0.8,3.3,0.6l0.1,0.2c-12.5,6.1-25.9,13.4-41,23.4c17.4-2.8,34.6-4.2,51.4-4.1
		c0.3,11.5,0.6,23,0.9,34.5c-17.1,0.8-34.5,0.2-51,6.1c24.4,5.3,42.1,12.7,57.2,20.8c0.7,5.9,1.3,11.7,2,17.6
		c-9.4-0.5-18.8-1-28.2-1.5c-11-7.3-50-16.1-71.2-13.5c3.8,15.5,11.5,29.6,19.6,39.3c-9.7,11.3-21.1,18.5-34,21.9
		c-5.6-10.5-11.1-24.9-16.7-41.4c-11.3,21.3-26.2,34.3-42.1,44.9c-11.6-1.6-19.9-3.5-28-6.9c0-6.3-0.3-13.5-0.3-19.8
		c12.6-3.8,23.1-11.3,34.8-22.9c-14-0.6-26.9-3.8-39.5-8l0.1-3.8c1.1,0,2.2,0.4,3.8-0.2c3.6-1,12.6-5.9,15-8.3
		c2.9-2.5,5.5-7.1,5-11.3l2-0.8l-0.3-2.1l6.2-5.6l-0.8-2l-2,0.8c0.2-2.8-1-5.4-1.3-7.8c3.1,0.4,6.1,0.7,9.1,1
		c-2.2-2.2-4.2-4.6-6.1-6.9c0.2-0.2,0.5-0.3,0.8-0.5l1.4-1.8c0.7-3.3,1.2-3.4,2.9-6.3l4.2-0.5l-3.7,4.2l2.2,0.3
		c0.9,3.1,3.4,5.5,5.3,7.9l0.3-1.6l0.7,1.5l-0.6-4.7l2.6-0.3l-5.9-4.6l0.7,1c-1.7-0.8,0.2-2.7,1.1-3.9l-3.4-1.2l0.3-2.2l1.7,0.9
		l3.6-1l0.1,1.1l1-0.7c1.7,0.8,1.7,0.8,3.3,0.6l2.3,1.3c0.3-2.2,0.2-2.7,2.3-3l0.3-2.2l-2,1.3c-1.4-4-1.4-4.7-1.2-5.3
		c5.5,6,11.4,12,18,17.8c0.6-13.4,1.1-26.8,2-39.5l2.1-1.9L502,142l0.4-1.1l1.6,0.3l0.1,1.1l-1.5,0.7l1.8,1.9l0.4-4.9
		c2-1.3,3-1.5,4.9,0.4l1-0.7l0.1,1.1c3.5-1.5,8.5,3.7,10,6.7l3.5,0.3l-0.7,4.7c1-0.7,2.3-3,3.3-3.1c2.3-1.3,6.1-0.5,8.5,0.2
		L533.1,174.7L533.1,174.7z M477.5,162.8l0.1,0.1l-0.2-0.1L477.5,162.8z"/>
	<g>
		<path style="fill:none;stroke:#5C0000;stroke-width:1.390000e-002;" d="M610.6,120.3l6.2,0.2l-0.5,3.6l-0.5,3.4
			c-24.6,13.4-46.1,26.5-63.4,43.5c-4.8,1.4-14.7,5.4-18.9,7.5C553.3,158.9,580.5,138.2,610.6,120.3L610.6,120.3z M625.6,168.1
			l0.5,21.3c-34.1-1.2-67.3,8.1-99.9,28.8c5,23.4,12.5,41.2,23.3,52c-6.2,5.9-13,10.4-20.3,13.5c-9.4-15.9-17.7-34.5-22-56.9
			c-22.4,8.7-46.2,5.6-68.9-0.6c3.8-1.9,8.1-4.5,9.6-6.1c2.9-2.5,5.5-7.1,5-11.3l2-0.8l-0.3-2.1l6.2-5.6c15.1,0,29.7-0.9,43.6-3.7
			c0.1-19.9,1.4-40.4,3.8-57.6c0.3,0.2,0.7,0.5,1.1,0.9l1-0.7l0.1,1.1c3.5-1.5,8.5,3.7,10,6.7l3.8,0.6l-1,4.4c1-0.7,2.3-3,3.3-3.1
			c0.4-0.2,0.9-0.4,1.3-0.5c-1.1,12.7-2,26.3-2.5,41.5C559.2,174.4,589.4,168.4,625.6,168.1L625.6,168.1z M633.2,228.6l1,8.8
			c-24.1-13.7-52.5-22.3-84.6-24.2c5.3-2.6,12.2-6.3,17.5-8.5C591.5,208.9,612.8,217.9,633.2,228.6L633.2,228.6z M451.7,288.3
			c-5.9-1.2-10.9-2.5-15.9-4.4c20.4-11.9,39.6-24.3,52.8-42.4c4.8-0.7,8.1-0.7,12.4-1.2C489.1,260.1,472,274.6,451.7,288.3
			L451.7,288.3z M462.5,180.6c0.5-1.3,1.1-1.9,2.3-3.9l3.5-2l0.3-2.2l0.9,0.5c5.3,6.8,11,12.7,17.4,17.2
			C473.5,190.6,471.4,191.3,462.5,180.6L462.5,180.6z"/>
		
			<linearGradient id="SVGID_4_" gradientUnits="userSpaceOnUse" x1="149.3262" y1="692.9102" x2="151.7701" y2="695.3541" gradientTransform="matrix(72 0 0 -72 -10296 50190.3125)">
			<stop  offset="0" style="stop-color:#F2002C"/>
			<stop  offset="0.2588" style="stop-color:#91001B"/>
			<stop  offset="0.3608" style="stop-color:#AD001F"/>
			<stop  offset="0.4392" style="stop-color:#FF0000"/>
			<stop  offset="0.7804" style="stop-color:#FF0000"/>
			<stop  offset="0.902" style="stop-color:#870015"/>
			<stop  offset="1" style="stop-color:#800017"/>
		</linearGradient>
		<path style="fill:url(#SVGID_4_);" d="M610.6,120.3l6.2,0.2l-0.5,3.6l-0.5,3.4c-24.6,13.4-46.1,26.5-63.4,43.5
			c-4.8,1.4-14.7,5.4-18.9,7.5C553.3,158.9,580.5,138.2,610.6,120.3L610.6,120.3z M625.6,168.1l0.5,21.3
			c-34.1-1.2-67.3,8.1-99.9,28.8c5,23.4,12.5,41.2,23.3,52c-6.2,5.9-13,10.4-20.3,13.5c-9.4-15.9-17.7-34.5-22-56.9
			c-22.4,8.7-46.2,5.6-68.9-0.6c3.8-1.9,8.1-4.5,9.6-6.1c2.9-2.5,5.5-7.1,5-11.3l2-0.8l-0.3-2.1l6.2-5.6c15.1,0,29.7-0.9,43.6-3.7
			c0.1-19.9,1.4-40.4,3.8-57.6c0.3,0.2,0.7,0.5,1.1,0.9l1-0.7l0.1,1.1c3.5-1.5,8.5,3.7,10,6.7l3.8,0.6l-1,4.4c1-0.7,2.3-3,3.3-3.1
			c0.4-0.2,0.9-0.4,1.3-0.5c-1.1,12.7-2,26.3-2.5,41.5C559.2,174.4,589.4,168.4,625.6,168.1L625.6,168.1z M633.2,228.6l1,8.8
			c-24.1-13.7-52.5-22.3-84.6-24.2c5.3-2.6,12.2-6.3,17.5-8.5C591.5,208.9,612.8,217.9,633.2,228.6L633.2,228.6z M451.7,288.3
			c-5.9-1.2-10.9-2.5-15.9-4.4c20.4-11.9,39.6-24.3,52.8-42.4c4.8-0.7,8.1-0.7,12.4-1.2C489.1,260.1,472,274.6,451.7,288.3
			L451.7,288.3z M462.5,180.6c0.5-1.3,1.1-1.9,2.3-3.9l3.5-2l0.3-2.2l0.9,0.5c5.3,6.8,11,12.7,17.4,17.2
			C473.5,190.6,471.4,191.3,462.5,180.6L462.5,180.6z"/>
	</g>
	
		<linearGradient id="SVGID_5_" gradientUnits="userSpaceOnUse" x1="150.9395" y1="691.1338" x2="154.2346" y2="694.429" gradientTransform="matrix(72 0 0 -72 -10296 50190.3125)">
		<stop  offset="0" style="stop-color:#FFFFFF"/>
		<stop  offset="7.843100e-002" style="stop-color:#FFFFFF"/>
		<stop  offset="0.3098" style="stop-color:#A8ADB3"/>
		<stop  offset="0.4784" style="stop-color:#FFFFFF"/>
		<stop  offset="0.6196" style="stop-color:#FFFFFF"/>
		<stop  offset="0.9216" style="stop-color:#A4A7AD"/>
		<stop  offset="1" style="stop-color:#9FA2A8"/>
	</linearGradient>
	<path style="fill:url(#SVGID_5_);" d="M737.7,160.1l3,15l2.8-2l1-0.9l0.5,4.3c0.2,1.6-0.6,3.3,0,4.3c0,0.1,0,0.2,0,0.3l-0.3,0.5
		l0.5,0.3c0.7,1.5,2.4,2.4,4.2,2.5l1.5,0.9l-0.5,0.6l2.2,0.8l0.2-0.2l2.1,1.3l-12,3l1.5,15.7l-7.7-10.7l-8.4,13.4l2.3-16.4l-11.9,1
		l10.6-9.7L723,172l10.9,4.2L737.7,160.1z M660.1,216.6c1.8,2.3,3.6,4.6,5.5,6.9c1.9,2.3,3.8,4.6,5.7,6.9c0.8-3.8,1.7-7.6,2.7-11.4
		c0.6,2.8,1.3,5.5,2,8.3c0.7,2.8,1.5,5.5,2.3,8.3c1.8,0.5,3.6,1,5.4,1.5c1.8,0.5,3.6,1,5.4,1.5c-1.9,2.3-3.7,4.5-5.5,6.8
		c2.1,2.5,4.1,5.1,6.3,7.6c2.2,2.5,4.4,5.1,6.6,7.6c-2.2-1.4-4.4-2.7-6.6-4.1c-2.2-1.4-4.3-2.7-6.5-4.1c0.8,2.7,1.7,5.3,2.6,8
		c0.9,2.7,1.9,5.3,3,8c-2-2.8-4-5.7-6-8.5c-1.9-2.8-3.8-5.7-5.6-8.5c-2.2,1.6-4.4,3.1-6.6,4.7c-0.2-2.2-0.3-4.3-0.4-6.5
		c-0.1-2.2-0.1-4.3-0.2-6.5c-2.1-1.7-4.2-3.3-6.3-5c-2.1-1.7-4.1-3.3-6.2-5c1.7,0.1,3.3,0.3,5,0.4c1.7,0.1,3.3,0.3,5,0.4
		c-1.3-2.9-2.7-5.7-3.9-8.6C662.4,222.3,661.3,219.5,660.1,216.6L660.1,216.6z M764.5,348.1c0.6,1.7,1.3,3.3,1.9,5
		c0.6,1.6,1.3,3.3,1.9,4.9c2.1-1.5,4.2-3,6.3-4.6c2.1-1.6,4.2-3.3,6.3-5.1c-1.3,2.2-2.6,4.4-3.9,6.6c-1.3,2.2-2.6,4.3-3.9,6.4
		c2,0.1,4,0.3,5.9,0.3c2,0,4-0.1,5.9-0.2c-2.3,1.3-4.5,2.6-6.8,3.8c-2.3,1.2-4.5,2.2-6.8,3.2c0.4,1.8,0.7,3.5,1.1,5.3
		c0.4,1.8,0.7,3.5,1.1,5.3c-3.1-1.7-6.1-3.4-9.2-5.3c-1.5,1.9-3.1,3.7-4.6,5.6c-1.5,1.8-3.1,3.6-4.6,5.3c0.4-2,0.7-4,1.1-5.9
		c0.4-2,0.7-4,1.1-6c-2.3,0.4-4.5,0.7-6.8,0.9c-2.3,0.2-4.5,0.4-6.8,0.5c2-1.2,4-2.3,5.9-3.6c2-1.2,4-2.6,5.9-3.9
		c-2.6-2.7-5.2-5.4-7.8-8.2c2.1,0.4,4.2,0.8,6.3,1.1c2.1,0.3,4.2,0.5,6.3,0.7c0.6-2,1.3-4,1.9-6.1
		C763.2,352.2,763.9,350.1,764.5,348.1L764.5,348.1z M777.4,264.9l0.5,10.9l-7.8,7.6l8.9-2.2l0.5,10.2l4.2-12.6l8.9-2l-5.9-5.2
		l2.8-11l-6.8,7.5L777.4,264.9z M541.5,363.3l2.4-10.1c-10.7,4-21.2,4.7-31.6,4.9c8.9-5.8,18-11.6,27.6-16.7
		c-6.4-5.2-11.6-9.6-19.1-14.1c7.2-1.3,18.8-2,29-1.1c2-7.7,1.9-17.3,1.6-27.1c4.8,4.9,9.6,10.1,14.1,18.2
		c6.4-6.8,13.3-15,20.2-23.1c-2.3,11.3-4.6,22.5-9.2,31.4c8.7,1.3,15.4,3.6,20.6,5.8c-6.8,4.9-14.7,8.6-24.1,12l1.3,7.6
		c-4.6,0.5-10.3,1.1-14.1,2.9c-0.7,0.3-1.3,0.6-1.9,1l-0.2-0.1l-2.8,2.2c-0.2,0.1-0.3,0.2-0.5,0.4l-11.6,5.8L541.5,363.3
		L541.5,363.3z"/>
	<path d="M291.4,483c-0.5,0.9-0.9,1.8-1.4,2.6s-0.8,1.5-1.2,2.2l-5.5,9.6h-7.5l14.3-24.6h10.3l-3.2,9.1c-0.1,0.2-0.2,0.5-0.3,0.8
		c-0.1,0.3-0.2,0.6-0.4,1.1c-0.1,0.4-0.3,0.7-0.4,1.1c-0.2,0.4-0.3,0.8-0.5,1.2c0.3-0.4,0.6-0.8,1-1.3c0.4-0.5,0.8-1.1,1.4-1.8
		l8.3-10.2h10.6l-14.3,24.6H295l5.9-10.2c0.1-0.1,0.3-0.5,0.6-1c0.3-0.5,0.9-1.5,1.8-3l-0.7,0.9c-1.2,1.4-2,2.4-2.5,3l-8.8,10.2
		h-4.3l3-9.7c0.1-0.4,0.3-0.9,0.5-1.6C290.6,485.4,291,484.4,291.4,483L291.4,483z"/>
	<path d="M323.5,483.4c-0.6,0-1.1,0.1-1.5,0.3c-0.5,0.2-0.9,0.6-1.5,1.1c-0.5,0.5-1,1.2-1.5,2c-0.5,0.8-0.9,1.6-1.2,2.3
		c-0.3,0.8-0.4,1.4-0.2,1.8s0.6,0.6,1.3,0.6c0.6,0,1.1-0.1,1.5-0.4s1-0.7,1.5-1.3c0.5-0.5,0.9-1.2,1.4-2c0.5-0.8,0.9-1.5,1.1-2.2
		c0.3-0.8,0.3-1.4,0.2-1.7C324.6,483.6,324.2,483.4,323.5,483.4L323.5,483.4z M310.4,489.8c0.2-0.6,0.6-1.4,1-2.2
		c0.4-0.8,0.9-1.7,1.5-2.6c0.9-1.5,1.8-2.8,2.6-3.8c0.8-1,1.7-1.9,2.6-2.7c1.1-1,2.4-1.7,3.8-2.1c1.4-0.4,3.1-0.6,5.2-0.6
		c3.3,0,5.5,0.6,6.4,1.7c0.9,1.1,0.9,3-0.1,5.7c-0.2,0.6-0.5,1.3-0.9,2.1c-0.4,0.8-0.8,1.6-1.3,2.5c-0.9,1.6-1.8,2.9-2.7,4
		c-0.9,1.1-1.8,2.2-2.7,3c-1.3,1.2-2.7,2-4.1,2.5c-1.5,0.5-3.3,0.8-5.4,0.8c-3.2,0-5.3-0.6-6.1-1.9
		C309.1,494.8,309.3,492.7,310.4,489.8L310.4,489.8z"/>
	<path id="_x31_2" d="M342.3,496.9c-1.5,0.3-2.9,0.6-4.2,0.7c-1.3,0.2-2.6,0.2-3.7,0.2c-1.5,0-2.5-0.3-2.9-0.9
		c-0.4-0.6-0.4-1.6,0.2-2.9c0.1-0.3,0.3-0.6,0.4-0.9c0.1-0.3,0.3-0.6,0.4-0.8l4.6-8h-2.5l2.3-4c2.7-1.9,4.8-3.4,6.3-4.5
		c1.5-1.1,2.8-2.2,3.9-3.2h4.4l-2.2,3.9h6.1l-4.5,7.8h-6.1l-2.8,4.9c-0.1,0.2-0.2,0.3-0.3,0.5c-0.1,0.2-0.2,0.4-0.2,0.6
		c-0.2,0.5-0.2,0.8,0,1c0.2,0.2,0.5,0.3,1.1,0.3c0.4,0,0.9,0,1.6-0.2c0.7-0.1,1.5-0.2,2.5-0.4L342.3,496.9L342.3,496.9z"/>
	<path d="M363.1,483.4c-0.6,0-1.1,0.1-1.5,0.3c-0.5,0.2-0.9,0.6-1.5,1.1c-0.5,0.5-1,1.2-1.5,2c-0.5,0.8-0.9,1.6-1.2,2.3
		c-0.3,0.8-0.4,1.4-0.2,1.8s0.6,0.6,1.3,0.6c0.6,0,1.1-0.1,1.5-0.4c0.5-0.2,1-0.7,1.5-1.3c0.5-0.5,0.9-1.2,1.4-2
		c0.5-0.8,0.9-1.5,1.1-2.2c0.3-0.8,0.3-1.4,0.2-1.7C364.2,483.6,363.7,483.4,363.1,483.4L363.1,483.4z M349.9,489.8
		c0.2-0.6,0.6-1.4,1-2.2c0.4-0.8,0.9-1.7,1.5-2.6c0.9-1.5,1.8-2.8,2.6-3.8c0.8-1,1.7-1.9,2.6-2.7c1.1-1,2.4-1.7,3.8-2.1
		c1.4-0.4,3.1-0.6,5.2-0.6c3.3,0,5.5,0.6,6.4,1.7c0.9,1.1,0.9,3-0.1,5.7c-0.2,0.6-0.5,1.3-0.9,2.1c-0.4,0.8-0.8,1.6-1.3,2.5
		c-0.9,1.6-1.8,2.9-2.7,4c-0.9,1.1-1.8,2.2-2.7,3c-1.3,1.2-2.7,2-4.1,2.5c-1.5,0.5-3.3,0.8-5.4,0.8c-3.2,0-5.3-0.6-6.1-1.9
		C348.7,494.8,348.8,492.7,349.9,489.8L349.9,489.8z"/>
	<path id="_x31_234" d="M368,497.3l12.1-20.8h7.1c-0.5,0.8-1,1.7-1.5,2.5c-0.5,0.9-1.1,1.8-1.7,2.9h0.1c1.4-2.1,2.8-3.6,4.1-4.5
		c1.3-1,2.6-1.5,4-1.5c0.4,0,0.8,0,1.1,0.1c0.4,0.1,0.7,0.2,1.1,0.4l-6.4,11.1c-0.6-0.2-1.1-0.3-1.6-0.4c-0.5-0.1-1-0.1-1.5-0.1
		c-1.2,0-2.3,0.4-3.3,1.1c-0.9,0.7-2,2.1-3.1,4l-3,5.1H368L368,497.3z"/>
	<path d="M396.5,497.3l14.3-24.6h14.7c1.5,0,2.4,0.5,2.8,1.4c0.4,0.9,0.2,2.3-0.5,4.2c-1.1,2.9-2.5,5.1-4.2,6.6
		c-1.7,1.5-3.6,2.2-5.7,2.2h-0.4l1.4,10.3h-9.3l-0.3-5.7c0-0.4,0-0.8,0-1.2c0-0.4,0-1,0.1-1.6l-0.2,0.4c-0.9,1.6-1.3,2.4-1.4,2.6
		l-3.2,5.5H396.5L396.5,497.3z M411.6,484.8h2.6c1.1,0,2.1-0.3,2.8-0.8c0.7-0.5,1.3-1.4,1.7-2.5c0.2-0.6,0.3-1.1,0.1-1.4
		c-0.2-0.3-0.5-0.4-1.2-0.4h-3.1L411.6,484.8L411.6,484.8z"/>
	<path d="M437.2,483.9c-0.6,0-1.1,0.1-1.6,0.4c-0.5,0.3-1,0.7-1.6,1.4c-0.4,0.5-0.8,1.1-1.2,1.7s-0.7,1.2-0.9,1.7
		c-0.2,0.6-0.3,1.1-0.1,1.5c0.2,0.4,0.6,0.5,1.2,0.5c1,0,1.9-0.5,2.9-1.5c1-1,1.8-2.3,2.3-3.8c0.2-0.6,0.2-1.1,0-1.5
		C438.1,484.1,437.7,483.9,437.2,483.9z M451.2,476.5l-12.1,20.8h-7.4c0.5-0.7,0.9-1.5,1.4-2.3c0.5-0.8,0.9-1.6,1.4-2.4
		c-1.5,1.9-3,3.2-4.3,4.1c-1.4,0.8-2.8,1.3-4.4,1.3c-1.6,0-2.6-0.5-3.1-1.6c-0.4-1-0.3-2.6,0.5-4.6c0.6-1.5,1.3-3.1,2.3-4.8
		c1-1.8,2-3.3,3-4.8c1.7-2.2,3.2-3.8,4.7-4.8c1.4-1,3-1.4,4.7-1.4c1.6,0,2.7,0.4,3.2,1.1c0.5,0.7,0.6,1.9,0.2,3.5
		c0.2-0.4,0.5-1,1-1.9c0.5-0.9,0.9-1.6,1.2-2.1H451.2L451.2,476.5z"/>
	<path id="_x31_234567" d="M459.1,496.7c-1.8,0.4-3.4,0.7-4.8,0.9c-1.4,0.2-2.7,0.3-3.9,0.3c-2.4,0-3.9-0.5-4.6-1.5
		c-0.7-1-0.6-2.7,0.3-4.9c0.2-0.5,0.5-1.1,0.7-1.7c0.3-0.6,0.6-1.2,1-1.9c0.8-1.5,1.7-2.9,2.5-4.2c0.8-1.3,1.6-2.3,2.4-3.1
		c0.7-0.8,1.4-1.5,2-2c0.6-0.5,1.3-1,1.9-1.3c0.8-0.4,1.7-0.8,2.7-1c1.1-0.2,2.3-0.3,3.6-0.3c1.5,0,2.9,0.1,4.1,0.3
		c1.3,0.2,2.4,0.5,3.5,0.9l-4.3,7.4c-0.8-0.1-1.5-0.3-2.2-0.3c-0.7-0.1-1.3-0.1-1.9-0.1c-0.9,0-1.8,0.1-2.5,0.2
		c-0.7,0.2-1.3,0.4-1.8,0.7c-0.5,0.4-1.1,0.9-1.7,1.7c-0.6,0.8-1,1.5-1.3,2.2c-0.3,0.7-0.2,1.3,0.1,1.6s1.1,0.5,2.2,0.5
		c0.8,0,1.7-0.1,2.7-0.2c1-0.1,2-0.3,3-0.6L459.1,496.7L459.1,496.7z"/>
	<path d="M483.9,470.6c0.3,0,0.6,0.1,0.6,0.3c0.1,0.2,0.1,0.5-0.1,0.8c-0.1,0.3-0.3,0.7-0.6,1.2c-0.3,0.5-0.5,0.9-0.8,1.3
		c-0.3,0.4-0.6,0.7-1,0.9c-0.3,0.2-0.7,0.3-1.2,0.3h-4.9c-0.3,0-0.6-0.1-0.7-0.3c-0.1-0.2-0.1-0.5,0.1-0.8c0.1-0.3,0.3-0.7,0.6-1.2
		c0.3-0.5,0.5-0.9,0.8-1.3c0.3-0.4,0.6-0.7,1-0.9c0.3-0.2,0.7-0.3,1.2-0.3H483.9L483.9,470.6z M462.1,497.3l12-20.7
		c0.6,0.1,1.2,0.3,1.7,0.3c0.6,0.1,1.1,0.1,1.7,0.1c0.6,0,1.2,0,1.9-0.1c0.7-0.1,1.5-0.2,2.3-0.3l-12,20.7H462.1z"/>
	<path id="_x31_23456789" d="M473.3,497.3l12.1-20.8h7.3c-0.5,0.8-0.9,1.7-1.4,2.5c-0.5,0.8-1,1.7-1.5,2.5c1.6-2,3.1-3.4,4.5-4.3
		c1.4-0.8,2.9-1.3,4.6-1.3c1.5,0,2.5,0.4,2.9,1.2c0.5,0.8,0.4,2-0.2,3.6c-0.2,0.5-0.4,1-0.7,1.6c-0.3,0.6-0.7,1.3-1.2,2.2l-7.3,12.6
		h-7.6l4.9-8.5c0.2-0.4,0.4-0.7,0.5-0.9c0.1-0.3,0.3-0.5,0.3-0.7c0.2-0.5,0.2-1,0.1-1.3c-0.1-0.3-0.4-0.5-0.9-0.5
		c-0.7,0-1.3,0.3-1.9,0.8c-0.6,0.5-1.2,1.3-1.9,2.4l-5.1,8.8H473.3L473.3,497.3z"/>
	<path d="M513.4,483.1c-0.4,0-0.9,0.1-1.3,0.3c-0.4,0.2-0.8,0.4-1.1,0.8c-0.5,0.5-1,1.2-1.5,1.9c-0.5,0.8-0.9,1.5-1.1,2.1
		c-0.2,0.6-0.2,1.1-0.1,1.4c0.2,0.3,0.6,0.5,1.1,0.5c0.9,0,1.9-0.5,2.8-1.4c0.9-0.9,1.7-2.2,2.3-3.7c0.2-0.6,0.2-1,0-1.3
		C514.3,483.3,513.9,483.1,513.4,483.1z M527.3,476.5l-10.7,18.3c-0.8,1.4-1.6,2.6-2.3,3.4c-0.7,0.8-1.5,1.5-2.4,2.1
		c-1.1,0.8-2.4,1.3-4,1.7c-1.5,0.4-3.2,0.6-5.1,0.6c-1.4,0-2.7-0.1-4.1-0.4s-2.7-0.6-4-1.1l2.6-4.6c0.9,0.4,1.7,0.6,2.5,0.8
		c0.8,0.2,1.6,0.3,2.4,0.3c1.9,0,3.5-0.5,4.8-1.4c1.3-0.9,2.4-2.5,3.5-4.6c-1.2,1.3-2.4,2.2-3.5,2.7c-1.1,0.5-2.3,0.8-3.6,0.8
		c-1.9,0-3.2-0.5-3.7-1.5c-0.6-1-0.5-2.5,0.3-4.6c0.4-1.2,1.1-2.5,2-4c0.9-1.5,1.8-2.8,2.8-4.1c1.5-1.9,2.9-3.2,4.3-4
		c1.3-0.8,2.9-1.1,4.8-1.1c1.6,0,2.6,0.4,3.1,1.1s0.4,2-0.1,3.7c0.5-0.8,0.9-1.6,1.3-2.3c0.4-0.7,0.8-1.4,1.1-2H527.3L527.3,476.5z"
		/>
	<path d="M528.5,497.3l20.4-24.6h13.2l-9.4,24.6H545l1.4-3.6h-6.2l-2.9,3.6H528.5L528.5,497.3z M544.8,487.6h4.1l3.5-9.1
		L544.8,487.6L544.8,487.6z"/>
	<path id="_x31_23456789101112" d="M566.8,476.5h7.6l-7.6,13c0,0.1-0.1,0.1-0.1,0.2c-0.1,0.2-0.2,0.4-0.2,0.5
		c-0.1,0.4-0.1,0.7,0.1,0.9c0.2,0.2,0.5,0.3,0.9,0.3c0.6,0,1.1-0.2,1.5-0.5c0.4-0.3,0.8-0.8,1.2-1.5l7.5-13h7.6l-7.6,13.2
		c-0.9,1.6-1.7,2.7-2.3,3.5c-0.6,0.8-1.3,1.4-2,2c-1.2,0.9-2.6,1.7-4.2,2.2s-3.3,0.7-5.2,0.7c-2.8,0-4.7-0.5-5.7-1.4
		s-1.1-2.3-0.4-4.3c0.1-0.3,0.3-0.7,0.5-1.1c0.2-0.4,0.5-0.9,0.8-1.4L566.8,476.5L566.8,476.5z"/>
	<path id="_x31_2345678910111213" d="M577.1,496.9l3.2-5.5c1.1,0.2,2,0.4,2.9,0.5c0.9,0.1,1.6,0.2,2.3,0.2c1.4,0,2.4-0.1,3-0.3
		c0.6-0.2,1-0.6,1.2-1.1c0.1-0.3,0.1-0.5,0-0.6c-0.1-0.1-0.3-0.2-0.5-0.2c-0.1,0-0.5,0-1.2,0.1c-0.7,0-1.4,0.1-2,0.1
		c-1.5,0-2.5-0.4-2.9-1.1c-0.4-0.7-0.4-1.9,0.2-3.4c0.5-1.2,1.1-2.5,2-3.7c0.8-1.3,1.7-2.3,2.6-3.1c1-0.9,2.2-1.6,3.6-2
		c1.4-0.4,3.1-0.6,5.3-0.6c1.3,0,2.7,0.1,4.2,0.2c1.5,0.1,3,0.4,4.5,0.7l-3.5,6.1c-1.1-0.2-2.1-0.4-2.9-0.5
		c-0.9-0.1-1.6-0.2-2.3-0.2c-1.4,0-2.4,0.1-3,0.3s-1.1,0.6-1.3,1.1c-0.1,0.3-0.1,0.6,0,0.7c0.1,0.1,0.4,0.2,0.9,0.2
		c0.2,0,0.6,0,1.4-0.1c0.7,0,1.3-0.1,1.8-0.1c1.4,0,2.3,0.3,2.6,1c0.4,0.7,0.2,1.8-0.3,3.4c-0.5,1.2-1.1,2.4-1.8,3.6
		c-0.8,1.1-1.6,2-2.4,2.8c-1.1,0.9-2.2,1.5-3.5,1.9c-1.3,0.4-3,0.6-5,0.6c-1.4,0-2.8-0.1-4.3-0.2
		C580.2,497.4,578.6,497.2,577.1,496.9L577.1,496.9z"/>
	<path id="_x31_234567891011121314" d="M611.2,496.9c-1.5,0.3-2.9,0.6-4.3,0.7s-2.6,0.2-3.7,0.2c-1.5,0-2.5-0.3-2.9-0.9
		c-0.4-0.6-0.4-1.6,0.2-2.9c0.1-0.3,0.3-0.6,0.4-0.9c0.1-0.3,0.3-0.6,0.4-0.8l4.6-8h-2.5l2.3-4c2.7-1.9,4.8-3.4,6.3-4.5
		c1.5-1.1,2.8-2.2,3.9-3.2h4.4l-2.2,3.9h6.1l-4.5,7.8h-6.1l-2.8,4.9c-0.1,0.2-0.2,0.3-0.3,0.5c-0.1,0.2-0.2,0.4-0.2,0.6
		c-0.2,0.5-0.2,0.8,0,1c0.2,0.2,0.5,0.3,1.1,0.3c0.4,0,0.9,0,1.6-0.2c0.7-0.1,1.5-0.2,2.5-0.4L611.2,496.9L611.2,496.9z"/>
	<path id="_x31_23456789101112131415" d="M614.8,497.3l12.1-20.8h7.1c-0.5,0.8-1,1.7-1.5,2.5c-0.5,0.9-1.1,1.8-1.7,2.9h0.1
		c1.4-2.1,2.8-3.6,4.1-4.5c1.3-1,2.6-1.5,4-1.5c0.4,0,0.8,0,1.1,0.1c0.4,0.1,0.7,0.2,1.1,0.4l-6.4,11.1c-0.6-0.2-1.1-0.3-1.6-0.4
		c-0.5-0.1-1-0.1-1.5-0.1c-1.2,0-2.3,0.4-3.3,1.1c-0.9,0.7-2,2.1-3.1,4l-3,5.1H614.8L614.8,497.3z"/>
	<path d="M648.9,483.9c-0.6,0-1.1,0.1-1.6,0.4c-0.5,0.3-1,0.7-1.6,1.4c-0.4,0.5-0.8,1.1-1.2,1.7c-0.4,0.7-0.7,1.2-0.9,1.7
		c-0.2,0.6-0.3,1.1-0.1,1.5c0.2,0.4,0.6,0.5,1.2,0.5c1,0,1.9-0.5,2.9-1.5c1-1,1.8-2.3,2.3-3.8c0.2-0.6,0.2-1.1,0-1.5
		C649.9,484.1,649.5,483.9,648.9,483.9L648.9,483.9z M663,476.5l-12.1,20.8h-7.4c0.5-0.7,0.9-1.5,1.4-2.3c0.5-0.8,0.9-1.6,1.4-2.4
		c-1.5,1.9-3,3.2-4.3,4.1c-1.4,0.8-2.8,1.3-4.4,1.3c-1.6,0-2.6-0.5-3.1-1.6c-0.4-1-0.3-2.6,0.5-4.6c0.6-1.5,1.3-3.1,2.3-4.8
		c1-1.8,2-3.3,3-4.8c1.7-2.2,3.2-3.8,4.7-4.8c1.4-1,3-1.4,4.7-1.4c1.6,0,2.7,0.4,3.2,1.1c0.5,0.7,0.6,1.9,0.2,3.5
		c0.2-0.4,0.5-1,1-1.9c0.5-0.9,0.9-1.6,1.2-2.1H663L663,476.5z"/>
	<polygon id="_x31_234567891011121314151617" points="662.2,497.3 654.6,497.3 669.6,471.5 677.2,471.5 	"/>
	<path d="M687.7,470.6c0.3,0,0.6,0.1,0.6,0.3s0.1,0.5-0.1,0.8c-0.1,0.3-0.3,0.7-0.6,1.2c-0.3,0.5-0.5,0.9-0.8,1.3
		c-0.3,0.4-0.6,0.7-1,0.9c-0.3,0.2-0.7,0.3-1.2,0.3h-4.9c-0.3,0-0.6-0.1-0.7-0.3c-0.1-0.2-0.1-0.5,0.1-0.8c0.1-0.3,0.3-0.7,0.6-1.2
		c0.3-0.5,0.5-0.9,0.8-1.3c0.3-0.4,0.6-0.7,1-0.9c0.3-0.2,0.7-0.3,1.2-0.3H687.7L687.7,470.6z M665.9,497.3l12-20.7
		c0.6,0.1,1.2,0.3,1.7,0.3c0.6,0.1,1.1,0.1,1.7,0.1c0.6,0,1.2,0,1.9-0.1c0.7-0.1,1.5-0.2,2.3-0.3l-12,20.7H665.9L665.9,497.3z"/>
	<path d="M694.2,483.9c-0.6,0-1.1,0.1-1.6,0.4c-0.5,0.3-1,0.7-1.6,1.4c-0.4,0.5-0.8,1.1-1.2,1.7s-0.7,1.2-0.9,1.7
		c-0.2,0.6-0.3,1.1-0.1,1.5c0.2,0.4,0.6,0.5,1.2,0.5c1,0,1.9-0.5,2.9-1.5c1-1,1.8-2.3,2.3-3.8c0.2-0.6,0.2-1.1,0-1.5
		C695.1,484.1,694.7,483.9,694.2,483.9L694.2,483.9z M708.2,476.5l-12.1,20.8h-7.4c0.5-0.7,0.9-1.5,1.4-2.3c0.5-0.8,0.9-1.6,1.4-2.4
		c-1.5,1.9-3,3.2-4.3,4.1c-1.4,0.8-2.8,1.3-4.4,1.3c-1.6,0-2.6-0.5-3.1-1.6c-0.4-1-0.3-2.6,0.5-4.6c0.6-1.5,1.3-3.1,2.3-4.8
		c1-1.8,2-3.3,3-4.8c1.7-2.2,3.2-3.8,4.7-4.8c1.4-1,3-1.4,4.7-1.4c1.6,0,2.7,0.4,3.2,1.1c0.5,0.7,0.6,1.9,0.2,3.5
		c0.2-0.4,0.5-1,1-1.9c0.5-0.9,0.9-1.6,1.2-2.1H708.2L708.2,476.5z"/>
</g>
</svg>
