<?xml version="1.0" encoding="utf-8"?>
<!-- Generator: Adobe Illustrator 19.0.0, SVG Export Plug-In . SVG Version: 6.00 Build 0)  -->
<svg version="1.1" id="Layer_1" xmlns="http://www.w3.org/2000/svg" xmlns:xlink="http://www.w3.org/1999/xlink" x="0px" y="0px"
	 viewBox="0 0 1000 300" style="enable-background:new 0 0 1000 300;" xml:space="preserve">
<style type="text/css">
	.st0{fill:#575757;}
	.st1{fill-rule:evenodd;clip-rule:evenodd;fill:#FF9900;}
</style>
<g>
	<path class="st0" d="M205.8,91.6l-60.6,81.7h25.9l9.9-13.8h29.7v13.8h23.6V91.6H205.8z M210.6,141.5H194l16.7-24.6V141.5z"/>
	<path id="XMLID_12_" class="st0" d="M291.5,144.8l-4.1,9.7h-19.7l17.2-43.5h18.9l-4,9.7h23.6l5.1-13.7c1.9-5,1.9-8.8-0.2-11.4
		c-2-2.6-5.8-3.9-11.3-3.9h-32.5c-5.4,0-10,1.3-14.1,4c-4.1,2.7-7.1,6.5-9,11.4l-20,51.2c-2,5-2,8.8,0,11.5c1.9,2.6,5.6,3.9,11,3.9
		h35.6c10.3,0,17.5-5.2,21.5-15.5l4.9-13.3H291.5z"/>
	<path id="XMLID_11_" class="st0" d="M346.6,114.6c0.5-1.1,0.4-2.1-0.2-3c-0.6-0.8-1.5-1.2-2.7-1.2h-6.9l7.4-18.9h72.1l-7.4,18.9
		H373l-4.9,12.2h33.7l-7.4,19.1h-33.7l-4.7,12h37.9l-6.7,19.5h-63.7L346.6,114.6z"/>
	<path class="st0" d="M86.5,91.6L79.1,110H86c1.2,0,2.1,0.4,2.7,1.2c0.6,0.8,0.6,1.8,0.2,3l-12.3,31.4l-10.7,27.7h23.1l10.6-27.7
		h13.3l2.8,27.7h24.6l-4.3-28.4c6.7-1.3,11.2-4.8,13.4-10.4l10.1-27.5c1.8-4.6,1.8-8.3,0.1-11.1c-1.7-2.7-4.8-4.2-9.3-4.3H86.5z
		 M113,110.5h22.5l-6.7,16.7h-22.4L113,110.5z"/>
	<path id="XMLID_8_" class="st1" d="M416,126.7l30.1-41.1l119.2-23c24.4-4.7,37.6,13.5,24.1,29.6l-53.9,64.5l82.9,81.6l-107.3-57.9
		c-17-9.2-15.7-24.3-2.2-39.5l33.8-38L416,126.7z"/>
	<polygon id="XMLID_7_" class="st1" points="459.8,128.2 382.3,233.9 473.9,195.5 448.4,195.5 518,117.2 	"/>
	<path id="XMLID_6_" class="st0" d="M607.9,114.6c0.5-1.1,0.4-2.1-0.2-3c-0.6-0.8-1.5-1.2-2.7-1.2h-6.9l7.4-18.9h72.1l-7.4,18.9
		h-35.9l-4.9,12.2h33.7l-7.4,19.1h-33.7l-4.7,12h37.9l-6.7,19.5h-63.7L607.9,114.6z"/>
	<path class="st0" d="M719.2,91.6l-60.6,81.7h25.9l9.9-13.8H724v13.8h23.6V91.6H719.2z M724,141.5h-16.7l16.7-24.6V141.5z"/>
	<path class="st0" d="M803.9,173.5c10.3,0,17.5-5.1,21.5-15.4l19.1-51.2c1.9-5,1.9-8.8-0.2-11.4c-2-2.6-5.8-3.9-11.3-3.9h-58.2
		l-7.4,18.9h5.8c1.2,0,2.1,0.4,2.7,1.2c0.6,0.8,0.6,1.8,0.2,2.9l-23.1,58.8H803.9z M801.7,154.4h-17.4l16.4-43.9h18.2L801.7,154.4z"
		/>
	<polygon id="XMLID_1_" class="st0" points="853.7,91.6 878.5,91.6 881.2,125.9 909.1,91.6 934.2,91.6 887.1,144.9 876.8,173.5 
		850.5,173.5 861.7,144.2 	"/>
</g>
</svg>
