<?xml version="1.0" encoding="utf-8"?>
<!-- Generator: Adobe Illustrator 16.0.0, SVG Export Plug-In . SVG Version: 6.00 Build 0)  -->
<!DOCTYPE svg PUBLIC "-//W3C//DTD SVG 1.1//EN" "http://www.w3.org/Graphics/SVG/1.1/DTD/svg11.dtd">
<svg version="1.1" id="Layer_1" xmlns="http://www.w3.org/2000/svg" xmlns:xlink="http://www.w3.org/1999/xlink" x="0px" y="0px"
	 width="792px" height="612px" viewBox="0 0 792 612" style="enable-background:new 0 0 792 612;" xml:space="preserve">
<g>
	<g>
		<g>
			<g>
				<g>
					<g>
						<path style="fill:#030303;" d="M396,594C237,594,107.7,464.8,107.7,306C107.7,147.2,237,18,396,18
							c159,0,288.3,129.2,288.3,288C684.3,464.8,554.9,594,396,594L396,594z"/>
					</g>
					<g>
						<path style="fill:#FFFFFF;" d="M671,306c0,151.8-123.1,274.8-275,274.8c-151.9,0-275-123-275-274.8
							c0-151.7,123.1-274.8,275-274.8C547.9,31.2,671,154.3,671,306z"/>
					</g>
					<g>
						<path style="fill:#030303;" d="M396,572c-146.8,0-266.2-119.3-266.2-266c0-146.7,119.4-266,266.2-266
							c146.8,0,266.2,119.3,266.2,266C662.2,452.7,542.8,572,396,572L396,572z"/>
					</g>
				</g>
				<g>
					<g>
						<path style="fill:none;" d="M396,462.3c-86.3,0-156.5-70.1-156.5-156.3c0-86.2,70.2-156.3,156.5-156.3
							c86.3,0,156.5,70.1,156.5,156.3C552.5,392.2,482.3,462.3,396,462.3L396,462.3z"/>
					</g>
					<g>
						<path style="fill:#FFFFFF;" d="M396,452.6c-1.8,0-3.6,0-5.4-0.1l0.1-2.6c2.8,0.1,5.7,0.1,8.6,0.1l0.1,2.6
							C398.2,452.6,397.1,452.6,396,452.6z M404.7,452.3l-0.2-2.6c1.8-0.1,3.5-0.2,5.3-0.4l0.3,2.6
							C408.3,452.1,406.5,452.2,404.7,452.3z M385.2,452.2c-1.8-0.1-3.6-0.3-5.4-0.5l0.3-2.6c1.8,0.2,3.5,0.4,5.3,0.5L385.2,452.2z
							 M415.5,451.3l-0.3-2.6c1.8-0.2,3.5-0.5,5.2-0.8l0.4,2.6C419,450.8,417.3,451.1,415.5,451.3z M374.5,451
							c-1.8-0.3-3.6-0.6-5.3-0.9l0.5-2.6c1.7,0.3,3.5,0.6,5.2,0.9L374.5,451z M426.1,449.5l-0.5-2.6c1.7-0.4,3.5-0.8,5.2-1.2
							l0.6,2.5C429.6,448.7,427.9,449.1,426.1,449.5z M363.9,449c-1.8-0.4-3.5-0.8-5.2-1.3l0.7-2.5c1.7,0.5,3.4,0.9,5.2,1.3
							L363.9,449z M436.6,446.9l-0.7-2.5c1.7-0.5,3.4-1,5.1-1.6l0.8,2.5C440,445.9,438.3,446.4,436.6,446.9z M353.4,446.3
							c-1.7-0.5-3.4-1.1-5.2-1.7l0.9-2.5c1.7,0.6,3.4,1.1,5.1,1.6L353.4,446.3z M446.9,443.5l-0.9-2.5c1.7-0.6,3.3-1.3,4.9-1.9
							l1,2.4C450.2,442.2,448.5,442.9,446.9,443.5z M343.2,442.8c-1.7-0.6-3.4-1.3-5-2l1-2.4c1.6,0.7,3.3,1.4,4.9,2L343.2,442.8z
							 M456.8,439.4l-1.1-2.4c1.6-0.7,3.2-1.5,4.8-2.3l1.2,2.3C460.1,437.9,458.4,438.7,456.8,439.4z M333.2,438.5
							c-1.6-0.8-3.2-1.6-4.8-2.4l1.2-2.3c1.6,0.8,3.2,1.6,4.8,2.4L333.2,438.5z M466.4,434.6l-1.3-2.3c1.5-0.8,3.1-1.7,4.6-2.6
							l1.3,2.3C469.6,432.8,468,433.7,466.4,434.6z M323.6,433.5c-1.6-0.9-3.1-1.8-4.6-2.8l1.4-2.2c1.5,0.9,3,1.8,4.6,2.7
							L323.6,433.5z M475.7,429l-1.4-2.2c1.5-1,2.9-1.9,4.4-3l1.5,2.1C478.7,427.1,477.2,428.1,475.7,429z M314.4,427.8
							c-1.5-1-3-2-4.4-3.1l1.5-2.1c1.4,1,2.9,2,4.4,3L314.4,427.8z M484.5,422.8l-1.6-2.1c1.4-1.1,2.8-2.2,4.2-3.3l1.7,2
							C487.4,420.6,485.9,421.8,484.5,422.8z M305.7,421.5c-1.4-1.1-2.8-2.2-4.2-3.4l1.7-2c1.4,1.1,2.7,2.3,4.1,3.3L305.7,421.5z
							 M492.9,416l-1.7-2c1.3-1.2,2.6-2.4,3.9-3.6l1.8,1.9C495.5,413.6,494.2,414.8,492.9,416z M297.4,414.5
							c-1.3-1.2-2.6-2.4-3.9-3.7l1.8-1.9c1.3,1.2,2.6,2.4,3.9,3.6L297.4,414.5z M500.7,408.6l-1.9-1.8c1.2-1.3,2.5-2.5,3.6-3.8
							l1.9,1.8C503.2,406,502,407.3,500.7,408.6z M289.7,407c-1.2-1.3-2.5-2.6-3.7-4l2-1.7c1.2,1.3,2.4,2.6,3.6,3.9L289.7,407z
							 M508,400.6l-2-1.7c1.1-1.3,2.3-2.7,3.4-4.1l2.1,1.6C510.3,397.8,509.2,399.2,508,400.6z M282.6,398.9
							c-1.1-1.4-2.3-2.8-3.4-4.2l2.1-1.6c1.1,1.4,2.2,2.8,3.3,4.2L282.6,398.9z M514.7,392.1l-2.1-1.5c1-1.4,2.1-2.9,3-4.3l2.2,1.5
							C516.8,389.2,515.7,390.7,514.7,392.1z M276,390.3c-1-1.5-2-3-3-4.5l2.2-1.4c1,1.5,2,2.9,3,4.4L276,390.3z M520.7,383.2
							l-2.2-1.4c0.9-1.5,1.8-3,2.7-4.6l2.3,1.3C522.6,380.1,521.7,381.6,520.7,383.2z M270.1,381.3c-0.9-1.5-1.8-3.1-2.7-4.7
							l2.3-1.3c0.9,1.5,1.7,3.1,2.6,4.6L270.1,381.3z M526.1,373.8l-2.3-1.2c0.8-1.6,1.6-3.2,2.4-4.7l2.4,1.1
							C527.7,370.6,526.9,372.2,526.1,373.8z M264.9,371.8c-0.8-1.6-1.6-3.2-2.3-4.9l2.4-1.1c0.7,1.6,1.5,3.2,2.3,4.8L264.9,371.8z
							 M530.7,364l-2.4-1c0.7-1.6,1.4-3.3,2-4.9l2.4,1C532.1,360.7,531.5,362.4,530.7,364z M260.4,362c-0.7-1.7-1.3-3.3-2-5l2.5-0.9
							c0.6,1.7,1.3,3.3,1.9,4.9L260.4,362z M534.7,353.9l-2.5-0.9c0.6-1.7,1.1-3.4,1.6-5.1l2.5,0.8
							C535.8,350.5,535.3,352.2,534.7,353.9z M256.7,351.9c-0.6-1.7-1.1-3.4-1.6-5.2l2.5-0.7c0.5,1.7,1,3.4,1.6,5.1L256.7,351.9z
							 M537.8,343.6l-2.5-0.7c0.5-1.7,0.9-3.4,1.3-5.2l2.6,0.6C538.7,340.1,538.3,341.9,537.8,343.6z M253.6,341.6
							c-0.4-1.7-0.8-3.5-1.2-5.3l2.6-0.5c0.4,1.7,0.8,3.5,1.2,5.2L253.6,341.6z M540.2,333.1l-2.6-0.5c0.3-1.7,0.6-3.5,0.9-5.2
							l2.6,0.4C540.9,329.5,540.6,331.3,540.2,333.1z M251.4,331c-0.3-1.8-0.6-3.5-0.8-5.3l2.6-0.3c0.2,1.8,0.5,3.5,0.8,5.2
							L251.4,331z M541.8,322.4l-2.6-0.3c0.2-1.8,0.4-3.5,0.5-5.3l2.6,0.2C542.2,318.8,542,320.6,541.8,322.4z M250,320.3
							c-0.2-1.8-0.3-3.6-0.4-5.4l2.6-0.2c0.1,1.8,0.2,3.5,0.4,5.3L250,320.3z M542.6,311.6l-2.6-0.1c0.1-1.8,0.1-3.5,0.1-5.3l2.6,0
							C542.7,308,542.7,309.8,542.6,311.6z M249.3,309.5c0-1.2,0-2.4,0-3.5c0-0.6,0-1.2,0-1.9l2.6,0c0,0.6,0,1.2,0,1.8
							c0,1.2,0,2.3,0,3.5L249.3,309.5z M540,300.9c-0.1-1.8-0.2-3.5-0.3-5.3l2.6-0.2c0.1,1.8,0.2,3.6,0.3,5.4L540,300.9z
							 M252.1,298.9l-2.6-0.1c0.1-1.8,0.2-3.6,0.4-5.4l2.6,0.2C252.3,295.3,252.2,297.1,252.1,298.9z M539.3,290.3
							c-0.2-1.8-0.4-3.5-0.7-5.3l2.6-0.4c0.3,1.8,0.5,3.6,0.7,5.4L539.3,290.3z M253,288.3l-2.6-0.3c0.2-1.8,0.5-3.6,0.8-5.3
							l2.6,0.4C253.4,284.8,253.2,286.5,253,288.3z M537.7,279.8c-0.3-1.7-0.7-3.5-1.1-5.2l2.6-0.6c0.4,1.8,0.8,3.5,1.1,5.3
							L537.7,279.8z M254.7,277.8l-2.6-0.5c0.4-1.8,0.7-3.5,1.2-5.3l2.5,0.6C255.4,274.4,255,276.1,254.7,277.8z M535.4,269.5
							c-0.5-1.7-0.9-3.4-1.4-5.1l2.5-0.8c0.5,1.7,1,3.5,1.5,5.2L535.4,269.5z M257.1,267.5l-2.5-0.7c0.5-1.7,1-3.5,1.5-5.2l2.5,0.8
							C258.1,264.1,257.6,265.8,257.1,267.5z M532.3,259.3c-0.6-1.7-1.2-3.3-1.8-5l2.4-0.9c0.6,1.7,1.3,3.4,1.8,5.1L532.3,259.3z
							 M260.4,257.4l-2.5-0.9c0.6-1.7,1.3-3.4,1.9-5.1l2.4,1C261.6,254.1,261,255.7,260.4,257.4z M528.5,249.5
							c-0.7-1.6-1.4-3.2-2.2-4.8l2.4-1.1c0.8,1.6,1.5,3.3,2.2,4.9L528.5,249.5z M264.3,247.5l-2.4-1.1c0.7-1.6,1.5-3.3,2.3-4.9
							l2.4,1.2C265.8,244.3,265,245.9,264.3,247.5z M524,239.9c-0.8-1.6-1.7-3.1-2.5-4.7l2.3-1.3c0.9,1.6,1.7,3.1,2.6,4.7L524,239.9
							z M269,238l-2.3-1.2c0.9-1.6,1.7-3.2,2.7-4.7l2.3,1.3C270.7,234.9,269.8,236.4,269,238z M518.8,230.7c-0.9-1.5-1.9-3-2.9-4.5
							l2.2-1.5c1,1.5,2,3,2.9,4.5L518.8,230.7z M274.4,228.8l-2.2-1.4c1-1.5,2-3,3-4.5l2.2,1.5C276.3,225.9,275.3,227.3,274.4,228.8
							z M512.9,221.9c-1-1.4-2.1-2.8-3.2-4.2l2.1-1.6c1.1,1.4,2.2,2.9,3.2,4.3L512.9,221.9z M280.4,220.1l-2.1-1.6
							c1.1-1.4,2.2-2.9,3.3-4.3l2,1.6C282.6,217.3,281.5,218.7,280.4,220.1z M506.4,213.5c-1.1-1.4-2.3-2.7-3.5-4l1.9-1.8
							c1.2,1.3,2.4,2.7,3.6,4.1L506.4,213.5z M287.1,211.8l-2-1.7c1.2-1.4,2.4-2.7,3.6-4l1.9,1.8
							C289.4,209.2,288.2,210.5,287.1,211.8z M499.3,205.7c-1.2-1.3-2.5-2.5-3.8-3.7l1.8-1.9c1.3,1.2,2.6,2.5,3.8,3.8L499.3,205.7z
							 M294.3,204.1l-1.8-1.9c1.3-1.3,2.6-2.5,3.9-3.7l1.8,1.9C296.8,201.6,295.6,202.8,294.3,204.1z M491.6,198.3
							c-1.3-1.2-2.7-2.3-4-3.4l1.7-2c1.4,1.1,2.8,2.3,4.1,3.5L491.6,198.3z M302.1,196.9l-1.7-2c1.4-1.2,2.7-2.3,4.2-3.4l1.6,2
							C304.8,194.6,303.4,195.7,302.1,196.9z M483.4,191.6c-1.4-1.1-2.8-2.1-4.3-3.1l1.5-2.1c1.5,1,2.9,2.1,4.4,3.2L483.4,191.6z
							 M310.4,190.3l-1.6-2.1c1.4-1.1,2.9-2.1,4.4-3.1l1.5,2.2C313.2,188.2,311.8,189.2,310.4,190.3z M474.7,185.5
							c-1.5-1-3-1.9-4.5-2.8l1.4-2.2c1.5,0.9,3.1,1.9,4.6,2.9L474.7,185.5z M319.1,184.3l-1.4-2.2c1.5-1,3.1-1.9,4.6-2.8l1.3,2.3
							C322.1,182.4,320.6,183.3,319.1,184.3z M465.6,180c-1.5-0.9-3.1-1.7-4.7-2.5l1.2-2.3c1.6,0.8,3.2,1.7,4.8,2.5L465.6,180z
							 M328.3,179l-1.2-2.3c1.6-0.8,3.2-1.7,4.8-2.5l1.1,2.4C331.4,177.3,329.8,178.1,328.3,179z M456.2,175.2
							c-1.6-0.7-3.2-1.5-4.9-2.1l1-2.4c1.7,0.7,3.3,1.4,5,2.2L456.2,175.2z M337.8,174.3l-1.1-2.4c1.6-0.7,3.3-1.4,5-2.1l1,2.4
							C341,172.9,339.4,173.6,337.8,174.3z M446.4,171.1c-1.7-0.6-3.3-1.2-5-1.8l0.8-2.5c1.7,0.6,3.4,1.2,5.1,1.8L446.4,171.1z
							 M347.6,170.4l-0.9-2.5c1.7-0.6,3.4-1.2,5.1-1.7l0.8,2.5C350.9,169.2,349.3,169.8,347.6,170.4z M436.3,167.7
							c-1.7-0.5-3.4-1-5.1-1.4l0.6-2.5c1.7,0.4,3.5,0.9,5.2,1.4L436.3,167.7z M357.7,167.2l-0.7-2.5c1.7-0.5,3.5-0.9,5.2-1.3
							l0.6,2.6C361.1,166.3,359.4,166.7,357.7,167.2z M426,165.2c-1.7-0.4-3.5-0.7-5.2-1l0.5-2.6c1.8,0.3,3.5,0.6,5.3,1L426,165.2z
							 M368,164.8l-0.5-2.6c1.8-0.3,3.5-0.7,5.3-0.9l0.4,2.6C371.5,164.1,369.8,164.4,368,164.8z M415.5,163.3
							c-1.7-0.2-3.5-0.4-5.3-0.6l0.3-2.6c1.8,0.2,3.6,0.4,5.4,0.6L415.5,163.3z M378.5,163.1l-0.3-2.6c1.8-0.2,3.6-0.4,5.4-0.6
							l0.2,2.6C382,162.7,380.3,162.9,378.5,163.1z M405,162.3c-1.8-0.1-3.5-0.2-5.3-0.2l0.1-2.6c1.8,0,3.6,0.1,5.4,0.2L405,162.3z
							 M389.1,162.2l-0.1-2.6c1.8-0.1,3.6-0.1,5.4-0.2l0,2.6C392.6,162.1,390.8,162.1,389.1,162.2z"/>
					</g>
				</g>
			</g>
		</g>
		<g>
			<path style="fill:#FFFFFF;" d="M173,350.2c3-6.6,8.4-9.8,13.5-11.3c3.6-1.1,10.1-1.8,16.3,1.9c4.6,2.8,8.3,7.2,10.6,15.2
				c1,3.3,1.4,5.4,1.8,7.9c0.3,2.1,0.4,4,0.7,5.6c0.1,0.6-0.1,0.9-0.4,1c-0.4,0.1-1.1,0.2-3,0.6c-1.8,0.4-4.6,1.3-5.7,1.5
				c-0.8,0.2-1.3,0.2-1.4-0.3c-0.1-0.4,0.3-0.7,1-0.9c1.6-0.5,3.2-1.8,4.2-3.5c1.3-2.3,1.5-6.9,0-11.8c-1.4-4.6-3.5-7.3-6.3-9.1
				c-4.7-2.8-10-2.4-15.1-0.8c-12.5,3.8-15.8,15.3-13.7,22.5c1.4,4.8,2.8,7.5,5.9,8.9c1.3,0.6,3,0.8,4,0.8c0.9-0.1,1.1-0.1,1.3,0.4
				c0.1,0.4-0.2,0.6-0.6,0.7c-0.6,0.2-5.4,0.9-7.4,0.9c-1,0-1.3-0.1-1.9-0.9c-1.5-1.9-3.1-5.8-4.1-9.3
				C170.6,362.9,170.3,356.3,173,350.2z"/>
			<path style="fill:#FFFFFF;" d="M223.4,415.9c0.1,0.1,0.3,0.2,0.5,0.1l1-0.6c7-4.5,8.3-5.3,9.8-6.3c1.5-1.1,2-1.9,1.4-3.7
				c-0.1-0.4-0.6-1.3-1-1.9c-0.3-0.5-0.4-0.9-0.1-1.1c0.3-0.2,0.6,0.1,1,0.7c1.6,2.5,3.4,5.6,4.2,6.9c0.7,1.1,2.7,4,3.9,5.8
				c0.4,0.7,0.5,1,0.2,1.3c-0.3,0.2-0.6,0-1-0.6c-0.2-0.4-0.6-0.8-1-1.3c-1-1.1-2.1-1-3.8-0.1c-1.5,0.8-2.8,1.7-9.9,6.2l-8.2,5.2
				c-4.3,2.7-7.9,5-9.8,6.5c-1.2,1-2.1,1.9-1.3,3.4c0.3,0.7,0.9,1.8,1.3,2.5c0.3,0.5,0.3,0.8,0.1,1c-0.3,0.2-0.7-0.1-1.1-0.6
				c-1.9-3.1-3.7-6.1-4.5-7.4c-0.7-1.1-2.7-4-3.9-5.8c-0.4-0.7-0.5-1.1-0.2-1.3c0.2-0.1,0.5,0,0.9,0.5c0.4,0.7,0.9,1.2,1.3,1.6
				c0.8,0.8,2,0.4,3.4-0.3c2.1-1,5.8-3.3,10-6l4.1-2.6c0.2-0.1,0.2-0.3,0.1-0.5l-11.4-18c-0.1-0.1-0.2-0.3-0.5-0.1l-4.1,2.6
				c-4.3,2.7-7.9,5-9.8,6.5c-1.2,1-2.1,1.9-1.3,3.4c0.3,0.7,0.9,1.8,1.3,2.5c0.3,0.5,0.3,0.8,0.1,1c-0.3,0.2-0.7-0.1-1.1-0.6
				c-1.9-3.1-3.7-6.1-4.5-7.4c-0.7-1.1-2.7-4-3.9-5.8c-0.4-0.6-0.5-1-0.1-1.2c0.2-0.1,0.5,0,0.8,0.5c0.4,0.7,0.9,1.2,1.3,1.6
				c0.8,0.8,2,0.4,3.4-0.3c2.1-1,5.8-3.3,10-6l8.2-5.2c7-4.5,8.3-5.3,9.8-6.3c1.5-1.1,2-1.9,1.4-3.7c-0.1-0.4-0.6-1.3-1-1.9
				c-0.3-0.5-0.4-0.9-0.1-1.1c0.3-0.2,0.6,0.1,1,0.7c1.6,2.5,3.4,5.6,4.2,6.9c0.7,1.1,2.7,4,3.9,5.8c0.4,0.7,0.5,1,0.2,1.3
				c-0.3,0.2-0.6,0-1-0.6c-0.2-0.4-0.6-0.8-1-1.3c-1-1.1-2.1-1-3.7-0.1c-1.5,0.8-2.8,1.7-9.9,6.2l-1,0.6c-0.2,0.1-0.2,0.3-0.1,0.5
				L223.4,415.9z"/>
			<path style="fill:#FFFFFF;" d="M238.6,448.8c-0.2-0.2-0.4-0.2-0.7,0l-7.6,3.7c-1.3,0.6-2.4,1.4-2.9,1.9c-0.7,0.7-0.8,1.6,0.5,2.8
				l0.6,0.6c0.5,0.5,0.5,0.6,0.3,0.9c-0.3,0.3-0.6,0.2-1.1-0.2c-1.3-1.2-2.9-3-4.2-4.2c-0.5-0.4-2.8-2.4-4.9-4.4
				c-0.5-0.5-0.7-0.8-0.4-1.1c0.2-0.2,0.5-0.2,0.8,0.1c0.4,0.3,1,0.8,1.3,1.1c2.1,1.5,4.1,0.9,6.8-0.4l33.8-15.7
				c1.6-0.7,2.2-0.9,2.6-0.5c0.4,0.3,0.3,0.9-0.2,2.2c-1.1,3.1-9.8,25.6-12.9,34.1c-1.8,5.1-1.2,6.7-0.5,7.7
				c0.5,0.7,1.1,1.3,1.6,1.8c0.3,0.3,0.5,0.5,0.2,0.8c-0.3,0.3-0.7,0.1-2.2-1.4c-1.5-1.4-4.4-4.1-7.6-7.3c-0.7-0.7-1.2-1.2-0.9-1.5
				c0.2-0.2,0.5-0.2,0.9,0.2c0.4,0.2,1,0.1,1.2-0.6l4.7-11.6c0.1-0.3,0.1-0.5-0.1-0.7L238.6,448.8z M248.8,454.5
				c0.2,0.2,0.4,0.1,0.4-0.1l5.6-13.3c0.1-0.2,0.3-0.4,0.1-0.5c-0.1-0.1-0.4,0-0.6,0.1l-13,6.4c-0.2,0.1-0.3,0.3-0.1,0.4
				L248.8,454.5z"/>
			<path style="fill:#FFFFFF;" d="M288.7,455.8c0.6-0.8,1.1-1,1.5-0.8c0.4,0.2,0.6,0.6,0.5,2.2l-1,34.5l28-20.7
				c0.8-0.6,1.3-0.8,1.7-0.6c0.4,0.2,0.5,0.9,0.1,2l-11.4,32.4c-1.2,3.3-1.4,5-0.2,6.2c1.2,1.2,2.2,1.8,2.8,2.1
				c0.4,0.2,0.8,0.5,0.6,0.8c-0.2,0.4-0.9,0.2-1.6-0.1c-1.2-0.6-8-4.4-9.9-5.6c-1.1-0.7-1.3-1-1.1-1.3c0.1-0.2,0.4-0.3,0.8-0.2
				c0.3,0.1,0.8-0.5,1.4-2l8.3-22.9l-0.2-0.1L286.8,498c-2.3,1.7-2.8,2-3.3,1.8c-0.4-0.2-0.4-1.5-0.4-3.3c0-2.9,0-12.4,0.1-14
				c0.1-1.3,0.4-8.9,0.6-13.5l-0.2-0.1l-12.8,18c-0.6,0.8-0.9,1.4-1.4,2.2c-0.5,0.9-0.1,1.7,0.7,2.3c0.8,0.7,1.5,1.1,1.9,1.3
				c0.4,0.2,0.7,0.5,0.6,0.7c-0.2,0.4-0.7,0.3-1.5-0.1c-2.1-1.1-4.2-2.4-5.1-2.9c-0.9-0.5-3.4-1.6-5-2.4c-0.5-0.3-0.8-0.6-0.6-1
				c0.1-0.2,0.5-0.2,1,0.1c0.4,0.2,0.7,0.4,1.6,0.6c1.5,0.4,2.9-1.3,4-2.8L288.7,455.8z"/>
			<path style="fill:#FFFFFF;" d="M337.7,494.5c1.9-8.1,2.3-9.6,2.6-11.4c0.3-1.8,0.1-2.8-1.6-3.6c-0.4-0.2-1.3-0.5-2.1-0.7
				c-0.6-0.1-0.9-0.3-0.8-0.7c0.1-0.4,0.5-0.4,1.3-0.2c2.9,0.7,6.3,1.7,7.8,2c2.2,0.5,5.4,1.1,7.9,1.7c6.8,1.6,8.7,4.4,9.4,5.4
				c0.9,1.4,1.9,4.2,1.2,7c-1.8,7.6-8.7,11.6-16.4,9.8c-0.3-0.1-0.9-0.2-1.1-0.3c-0.3-0.1-0.6-0.3-0.5-0.6c0.1-0.4,0.5-0.5,1.7-0.2
				c3,0.7,8.1-1.6,9.4-7.1c0.4-1.8,1.1-5.4-1.3-8.8c-1.5-2.2-3.7-3.1-4.9-3.4c-0.8-0.2-1.6-0.3-2.2-0.3c-0.3,0-0.5,0.3-0.7,0.9
				l-5.1,21.4c-1.2,4.9-2.2,9.1-2.5,11.5c-0.2,1.5-0.1,2.8,1.4,3.4c0.7,0.3,1.9,0.7,2.7,0.9c0.6,0.1,0.8,0.4,0.8,0.6
				c-0.1,0.4-0.6,0.4-1.2,0.3c-3.6-0.9-7-1.8-8.4-2.2c-1.2-0.3-4.7-1-6.9-1.5c-0.7-0.2-1-0.4-1-0.8c0.1-0.3,0.3-0.4,1-0.2
				c0.8,0.2,1.5,0.2,2,0.3c1.1,0,1.7-1.1,2.3-2.6c0.8-2.2,1.8-6.4,3-11.3L337.7,494.5z"/>
			<path style="fill:#FFFFFF;" d="M378.1,501.6c0.6-8.3,0.7-9.9,0.7-11.6c0-1.9-0.5-2.8-1.7-3.2c-0.6-0.2-1.3-0.3-2-0.4
				c-0.6,0-0.9-0.2-0.9-0.6c0-0.3,0.5-0.4,1.4-0.3c2.1,0.1,5.6,0.5,7.2,0.6c1.4,0.1,4.7,0.1,6.8,0.3c0.7,0,1.2,0.2,1.1,0.5
				c0,0.4-0.4,0.5-0.9,0.5c-0.6,0-1,0-1.7,0.1c-1.5,0.2-2,1.1-2.3,3c-0.2,1.7-0.3,3.3-0.9,11.6l-0.6,9.6c-0.4,5.3-0.6,9.6-0.6,12
				c0.1,1.5,0.4,2.5,2,2.8c0.8,0.2,2,0.4,2.8,0.4c0.6,0,0.9,0.2,0.9,0.5c0,0.4-0.5,0.5-1.1,0.5c-3.7-0.2-7.2-0.6-8.7-0.7
				c-1.3-0.1-4.8-0.2-7-0.3c-0.7,0-1.1-0.2-1.1-0.6c0-0.3,0.2-0.4,0.9-0.4c0.8,0.1,1.5,0,2-0.1c1.1-0.2,1.5-1.1,1.8-2.6
				c0.4-2.3,0.7-6.6,1.1-11.9L378.1,501.6z"/>
			<path style="fill:#FFFFFF;" d="M402.4,508.2c-1.2-9.3,3.4-22.2,20-24.4c13.8-1.8,23.4,4.9,25.1,17.4c1.7,12.5-5.9,23.5-19.9,25.4
				C411.6,528.7,403.6,517.9,402.4,508.2z M439.9,504.3c-1.6-12.2-9.8-18.8-18.8-17.6c-6.4,0.9-13.1,5.3-11.3,18.9
				c1.5,11.3,9.1,19.5,19.7,18C433.3,523.1,442,520,439.9,504.3z"/>
			<path style="fill:#FFFFFF;" d="M474,507.4c1.8,3.9,3,4.9,4.2,4.8c1-0.1,2-0.4,2.8-0.8c0.6-0.2,0.9-0.3,1,0c0.2,0.4-0.2,0.7-1,1
				c-3.3,1.4-5.4,2.2-6.4,2.6c-0.5,0.2-2.8,1.4-5.5,2.5c-0.7,0.3-1.2,0.4-1.3,0c-0.1-0.3,0.1-0.5,0.6-0.8c0.7-0.3,1.6-0.7,2.2-1.2
				c1.2-1,0.7-2.5-1.1-6.9l-12.4-30.1c-0.4-1-0.6-1.8-0.1-2c0.6-0.2,1.3,0.2,2.6,0.7c0.9,0.4,12.2,5.3,22.8,9.4
				c5,1.9,15,6.2,16.2,6.7l0.3-0.1l-10.3-22.4c-1.4-3.1-2.2-3.8-3.7-3.8c-0.9,0-2.1,0.6-2.8,0.9c-0.6,0.3-0.9,0.2-1-0.1
				c-0.2-0.4,0.4-0.7,1.1-1c2.7-1.1,5.2-2,6.3-2.5c0.6-0.2,2.4-1.2,5-2.3c0.7-0.3,1.2-0.5,1.4-0.1c0.1,0.3-0.1,0.6-0.7,0.8
				c-0.5,0.2-0.9,0.4-1.5,0.8c-1.3,1-1.2,2.3-0.1,5.1l13.1,32.1c0.5,1.1,0.5,1.7,0,1.9c-0.6,0.2-1.4-0.1-2.2-0.4
				c-4.5-1.6-13.9-5.4-21.5-8.3c-7.9-3.1-16.3-6.9-17.7-7.5l-0.2,0.1L474,507.4z"/>
			<path style="fill:#FFFFFF;" d="M527.9,487.5c-0.9,0.2-1.2,0.1-2-0.9c-1.8-2.4-3.6-5.2-4-6c-0.4-0.7-0.7-1.3-0.3-1.5
				c0.4-0.3,0.7,0.1,1,0.4c0.4,0.6,1.3,1.4,2.1,2c3.4,2.5,6.9,1.8,9.7-0.2c4-3,4-7.1,2.3-9.5c-1.6-2.2-3.8-3.8-9.6-3.8l-3.2-0.1
				c-7.7-0.2-11.7-2-14.4-5.6c-3.6-4.9-2-11.4,4.2-16c2.9-2.2,5.1-3.1,6.5-3.6c0.5-0.2,0.8-0.2,1,0.1c0.4,0.6,1.2,2,3.7,5.4
				c0.7,1,0.8,1.4,0.5,1.7c-0.3,0.2-0.6,0.1-1-0.5c-0.3-0.4-1.5-1.6-3.3-2.1c-1.3-0.3-3.6-0.7-6.5,1.4c-3.3,2.4-3.9,5.8-2,8.5
				c1.5,2,3.7,2.8,9.5,2.9l1.9,0c8.4,0.2,12.6,1.7,15.7,5.9c1.9,2.6,3.1,6.3,1.4,10.8c-1.2,3.1-3.4,5.3-5.8,7.1
				C532.7,485.8,530.4,487,527.9,487.5z"/>
			<path style="fill:#FFFFFF;" d="M564.8,421.2c0.1-0.1,0.1-0.3-0.1-0.5l-0.9-0.8c-6.4-5.4-7.5-6.4-8.9-7.5
				c-1.5-1.1-2.5-1.4-3.9-0.2c-0.4,0.3-1,1-1.5,1.6c-0.4,0.5-0.7,0.7-1,0.4c-0.3-0.2-0.1-0.6,0.4-1.2c1.9-2.3,4.3-4.9,5.3-6
				c0.9-1,3-3.8,4.4-5.5c0.5-0.6,0.8-0.8,1.1-0.6c0.3,0.2,0.2,0.6-0.3,1.1c-0.3,0.3-0.6,0.8-0.9,1.3c-0.8,1.3-0.3,2.3,1.1,3.6
				c1.3,1.2,2.4,2.2,8.8,7.6l7.4,6.3c3.9,3.3,7.2,6.1,9.1,7.4c1.3,0.9,2.4,1.4,3.7,0.3c0.6-0.5,1.5-1.4,2-2c0.4-0.5,0.7-0.6,0.9-0.4
				c0.3,0.2,0.1,0.7-0.3,1.2c-2.3,2.8-4.7,5.3-5.8,6.5c-0.8,1-3,3.8-4.4,5.4c-0.5,0.6-0.9,0.8-1.2,0.5c-0.2-0.2-0.2-0.5,0.2-1
				c0.5-0.6,0.9-1.2,1.1-1.7c0.6-1-0.2-2-1.3-3.2c-1.6-1.7-4.9-4.5-8.7-7.8l-3.7-3.1c-0.2-0.1-0.4-0.1-0.5,0l-13.8,16.2
				c-0.1,0.1-0.2,0.3,0,0.5l3.7,3.1c3.9,3.3,7.2,6.1,9.1,7.4c1.3,0.9,2.4,1.4,3.7,0.3c0.6-0.5,1.5-1.4,2-2c0.4-0.5,0.7-0.6,0.9-0.4
				c0.3,0.3,0.1,0.7-0.3,1.2c-2.3,2.8-4.7,5.3-5.8,6.5c-0.8,1-3,3.8-4.4,5.5c-0.5,0.6-0.8,0.7-1.1,0.5c-0.2-0.2-0.2-0.5,0.2-1
				c0.5-0.6,0.9-1.2,1.1-1.7c0.6-1-0.2-2-1.3-3.2c-1.6-1.7-4.9-4.5-8.7-7.8l-7.4-6.3c-6.4-5.4-7.5-6.4-9-7.5
				c-1.5-1.1-2.5-1.4-3.9-0.2c-0.4,0.3-1,1-1.5,1.5c-0.4,0.5-0.7,0.7-1,0.4c-0.3-0.2-0.1-0.6,0.4-1.2c2-2.3,4.3-4.9,5.3-6
				c0.9-1,3-3.8,4.4-5.5c0.5-0.6,0.8-0.8,1.1-0.6c0.3,0.3,0.2,0.6-0.3,1.1c-0.3,0.3-0.6,0.8-0.9,1.3c-0.8,1.3-0.3,2.3,1.1,3.6
				c1.3,1.2,2.4,2.2,8.8,7.6l0.9,0.7c0.2,0.2,0.4,0.1,0.5,0L564.8,421.2z"/>
			<path style="fill:#FFFFFF;" d="M580.2,394.3c-7.4-3.9-8.8-4.6-10.4-5.3c-1.7-0.8-2.8-0.7-3.6,0.2c-0.4,0.5-0.8,1.1-1.1,1.7
				c-0.3,0.5-0.5,0.7-0.9,0.5c-0.3-0.1-0.2-0.6,0.2-1.4c1-1.9,2.8-4.9,3.5-6.3c0.6-1.2,2-4.2,3-6.1c0.3-0.6,0.6-1,0.9-0.8
				c0.4,0.2,0.3,0.6,0.1,1c-0.3,0.5-0.4,0.9-0.6,1.6c-0.5,1.5,0.2,2.3,1.8,3.3c1.5,0.9,2.9,1.6,10.3,5.5l8.6,4.5
				c4.7,2.5,8.6,4.5,10.7,5.4c1.4,0.5,2.4,0.7,3.4-0.7c0.5-0.6,1.1-1.7,1.5-2.4c0.3-0.5,0.6-0.7,0.8-0.6c0.3,0.2,0.3,0.7,0,1.2
				c-1.7,3.3-3.5,6.3-4.2,7.6c-0.6,1.1-2.1,4.3-3.1,6.3c-0.3,0.6-0.7,0.9-1,0.7c-0.2-0.1-0.3-0.4,0-1c0.4-0.7,0.6-1.4,0.7-1.9
				c0.3-1.1-0.3-1.8-1.7-2.7c-1.9-1.3-5.8-3.3-10.5-5.8L580.2,394.3z"/>
			<path style="fill:#FFFFFF;" d="M592.8,367.2c-8-2.5-9.4-3-11.1-3.4c-1.8-0.5-2.8-0.3-3.7,1.3c-0.2,0.4-0.6,1.3-0.8,2
				c-0.2,0.6-0.4,0.9-0.8,0.8c-0.4-0.1-0.4-0.5-0.1-1.3c0.9-2.8,2.1-6.1,2.6-7.6c0.7-2.2,1.5-5.3,2.3-7.8c2.1-6.6,5.1-8.3,6.1-8.9
				c1.5-0.8,4.3-1.6,7.1-0.7c7.4,2.4,10.9,9.6,8.5,17.1c-0.1,0.3-0.3,0.8-0.4,1.1c-0.1,0.2-0.3,0.6-0.7,0.5
				c-0.4-0.1-0.5-0.6-0.1-1.7c0.9-3-1-8.2-6.4-9.9c-1.7-0.6-5.3-1.5-8.8,0.6c-2.3,1.4-3.3,3.4-3.7,4.7c-0.3,0.8-0.5,1.6-0.5,2.1
				c0,0.3,0.3,0.6,0.9,0.7l20.9,6.7c4.8,1.5,9,2.8,11.3,3.3c1.5,0.3,2.8,0.4,3.5-1.2c0.3-0.7,0.8-1.8,1.1-2.6
				c0.2-0.6,0.4-0.8,0.7-0.7c0.4,0.1,0.4,0.6,0.2,1.2c-1.1,3.5-2.3,6.8-2.8,8.2c-0.4,1.2-1.3,4.6-2,6.7c-0.2,0.7-0.5,1-0.9,0.9
				c-0.3-0.1-0.4-0.3-0.1-1c0.3-0.8,0.4-1.5,0.4-2c0.1-1.1-0.9-1.8-2.4-2.5c-2.1-1-6.2-2.3-11.1-3.8L592.8,367.2z"/>
		</g>
		<g>
			<path style="fill:#FFFFFF;" d="M221.1,254.6c-10.6,3.9-20.2,1.1-27.6-3.2c-5.2-3-13.3-9.8-16.1-21.2c-2.1-8.6-1.3-17.8,4.8-29.5
				c2.5-4.9,4.3-7.6,6.7-11c1.9-2.8,3.9-4.9,5.4-7.1c0.5-0.8,1.1-0.9,1.5-0.7c0.6,0.3,1.4,1.1,4,2.8c2.4,1.6,6.7,3.9,8.1,5
				c1.1,0.7,1.6,1.2,1.3,2c-0.3,0.6-1,0.4-2.1-0.2c-2.4-1.3-5.6-1.8-8.6-1c-4,1.1-9.3,6-13,13.3c-3.5,6.8-4.2,12.3-2.9,17.5
				c2.1,8.7,8.6,14.3,16,18.6c18.2,10.4,34.5,1.4,40-9.2c3.6-7,5.1-11.7,3.2-16.9c-0.8-2.2-2.4-4.5-3.7-5.6c-1.1-0.9-1.3-1.3-1-1.9
				c0.3-0.6,0.9-0.4,1.5-0.1c0.9,0.5,7.1,5.3,9.3,7.6c1.1,1.1,1.3,1.7,1.2,3.3c-0.4,3.8-3,10.1-5.6,15.2
				C237.8,243.2,230.8,251,221.1,254.6z"/>
			<path style="fill:#FFFFFF;" d="M253.8,175.1c7.7,8.5,11.9,13,14.2,12.9c1.9-0.1,4-1.2,8.7-6.1c3.3-3.3,5.6-5.8,5.5-9.1
				c0-1.6-1-4.2-2-5.6c-0.5-0.7-0.7-1.2-0.2-1.7c0.4-0.4,0.8-0.2,1.5,0.6c0.7,0.7,4.8,6.1,6,8.5c1,1.8,1,2.5-2.2,5.7
				c-4.4,4.5-7.7,7.6-10.5,10.3c-2.9,2.7-5.1,4.8-7.7,7.4c-0.7,0.7-2,2.1-3.4,3.6c-1.4,1.5-2.9,3.2-4.1,4.4c-0.8,0.8-1.4,1-1.8,0.6
				c-0.3-0.3-0.2-0.8,0.5-1.5c0.9-0.9,1.5-1.8,2-2.5c1-1.5,0-3.3-1.5-5.4c-2.2-3.1-7-8.3-12.5-14.4l-10.6-11.6
				c-9.2-10-10.8-11.9-12.9-13.9c-2.2-2.1-3.6-2.7-6.1-1.1c-0.6,0.4-1.4,1-2.2,1.9c-0.7,0.7-1.2,0.9-1.6,0.5c-0.4-0.5-0.1-1,0.8-2
				c2.9-2.9,6.9-6.6,8.6-8.3c1.5-1.5,5.8-6.2,8.2-8.6c0.9-0.9,1.4-1.2,1.8-0.7c0.4,0.5,0.2,1-0.6,1.7c-0.7,0.7-1.6,1.7-2.2,2.6
				c-1.4,2-0.8,3.6,1.2,6.1c1.8,2.2,3.5,4.1,12.6,14.1L253.8,175.1z"/>
			<path style="fill:#FFFFFF;" d="M278.4,132.1c-5.8-12.5-6.9-14.8-8.2-17.4c-1.4-2.7-2.7-3.7-5.5-3c-0.7,0.1-2,0.7-3.1,1.3
				c-0.8,0.4-1.4,0.5-1.6-0.1c-0.3-0.6,0.2-1,1.3-1.6c4.1-2.1,9-4.3,11.3-5.5c1.8-0.9,6.5-3.7,9.3-5.1c1.1-0.6,1.8-0.7,2-0.1
				c0.3,0.6-0.1,1-0.9,1.4c-0.8,0.4-1.3,0.8-2.1,1.4c-1.9,1.5-1.8,3.2-0.7,6.1c1.1,2.7,2.1,5,7.9,17.5l5.3,11.5
				c5.5,11.9,10.1,15.8,15.3,17.2c4.8,1.3,8.5-0.2,11.1-1.5c3.4-1.7,7-5,8.5-9.9c2.1-6.7-1.1-14.2-5-22.7l-4.8-10.3
				c-5.8-12.5-6.9-14.8-8.2-17.4c-1.4-2.7-2.7-3.7-5.5-3c-0.7,0.1-2,0.7-2.9,1.2c-0.8,0.4-1.4,0.5-1.6-0.1c-0.3-0.6,0.2-1,1.3-1.6
				c3.9-2,8.8-4.2,8.9-4.3c0.9-0.5,5.6-3.2,8.6-4.7c1.1-0.5,1.7-0.7,1.9-0.1c0.3,0.6-0.1,1-1,1.4c-0.8,0.4-1.3,0.8-2.1,1.4
				c-1.9,1.5-1.8,3.2-0.7,6.1c1.1,2.7,2.1,5,7.9,17.5l4.1,8.8c4.2,9.1,7.9,19.3,4.2,28.5c-3.1,7.8-8.2,11.5-13.2,14.1
				c-4.1,2.1-11.5,5.6-19.6,3c-5.7-1.8-11.4-6.4-16.9-18.3L278.4,132.1z"/>
			<path style="fill:#FFFFFF;" d="M359.9,99.5c-1.4-13.8-1.7-16.4-2.1-19.3c-0.5-3.1-1.3-4.5-4.2-4.8c-0.7-0.1-2.1,0-3.3,0.1
				c-0.9,0.1-1.5,0-1.5-0.7c-0.1-0.6,0.5-0.9,1.8-1c4.5-0.5,9.8-0.8,11.5-1c4.1-0.5,7.4-1.1,10.3-1.4c15.3-1.7,18.9,6.8,19.4,11.6
				c0.8,7.5-2.8,12.4-7,16.9c7.2,1.8,16.3,7.3,17.4,17.9c1,9.7-5,20.6-20.6,22.4c-1,0.1-3.5,0.2-5.9,0.4c-2.6,0.1-5.1,0.3-6.4,0.4
				c-0.9,0.1-2.8,0.4-4.8,0.6c-1.9,0.3-4.1,0.6-5.8,0.8c-1.1,0.1-1.7-0.1-1.8-0.7c0-0.5,0.3-0.8,1.3-0.9c1.3-0.1,2.3-0.4,3-0.7
				c1.7-0.6,1.9-2.6,1.9-5.3c0-3.9-0.7-11.1-1.5-19.4L359.9,99.5z M370.2,100c0.1,0.7,0.3,0.9,0.7,0.9c0.8,0.1,2.1,0,4-0.2
				c2.8-0.3,4.6-0.9,5.9-2.4c2-2.2,2.9-5.6,2.5-10c-0.6-6.1-4.7-13.7-12-12.9c-1.2,0.1-1.9,0.2-2.8,0.5c-0.6,0.2-0.7,0.6-0.6,1.6
				L370.2,100z M382.1,106c-1.9-1.2-3.9-1.6-7.2-1.4c-1.5,0.1-2.4,0.2-3.6,0.3c-0.3,0-0.5,0.2-0.4,0.7l2.2,21.6c0.6,6,1,7.5,3.8,8.4
				c2.4,0.7,4.3,0.6,6.3,0.4c3.8-0.4,10-3.3,9.1-12.8C391.5,117.6,389,110.1,382.1,106z"/>
			<path style="fill:#FFFFFF;" d="M441.9,72.4c0.7-1.4,1.4-2.1,2-1.9c0.7,0.2,1,0.8,1.5,3.4l8.9,56.4l35.9-43.6
				c1-1.2,1.6-1.8,2.4-1.6c0.7,0.2,1,1.3,0.7,3.2l-7.3,56.7c-0.8,5.8-0.6,8.6,1.6,10.1c2.2,1.5,3.8,2.1,4.8,2.4
				c0.7,0.2,1.3,0.5,1.1,1c-0.2,0.7-1.2,0.7-2.4,0.3c-2-0.6-13.3-4.3-16.5-5.5c-1.8-0.7-2.3-1.2-2.1-1.7c0.1-0.4,0.5-0.6,1.2-0.7
				c0.5,0,1.1-1.1,1.4-3.7l5.6-40.2l-0.3-0.1l-28.7,34.6c-3,3.6-3.6,4.2-4.4,4c-0.7-0.2-1.1-2.2-1.7-5.3c-0.9-4.6-3.7-20.1-4-22.8
				c-0.2-2.1-2.1-14.6-3.2-22.1l-0.3-0.1l-13.8,33.8c-0.6,1.5-1,2.7-1.4,4.1c-0.5,1.7,0.4,2.8,1.7,3.6c1.4,0.8,2.5,1.2,3.3,1.5
				c0.7,0.2,1.2,0.5,1.1,1c-0.2,0.8-1,0.7-2.2,0.4c-3.4-1-7-2.4-8.5-2.8c-1.6-0.5-5.6-1.4-8.2-2.2c-0.8-0.2-1.4-0.6-1.2-1.4
				c0.1-0.4,0.7-0.5,1.5-0.2c0.7,0.2,1.2,0.4,2.5,0.5c2.4,0.2,4-3.1,5.2-5.9L441.9,72.4z"/>
			<path style="fill:#FFFFFF;" d="M517.7,153.8c-0.3-0.3-0.6-0.2-1,0.1l-11.3,7.3c-2,1.2-3.6,2.7-4.3,3.6c-1,1.3-1.1,2.7,1,4.4
				l1,0.8c0.8,0.7,0.9,1,0.6,1.4c-0.4,0.6-0.9,0.4-1.7-0.2c-2.1-1.8-4.9-4.4-6.9-6.1c-0.7-0.6-4.6-3.4-8-6.3
				c-0.9-0.7-1.2-1.2-0.7-1.8c0.3-0.4,0.7-0.4,1.2,0.1c0.6,0.5,1.6,1.2,2.2,1.6c3.4,2.1,6.5,0.7,10.5-1.8l50.6-31.3
				c2.4-1.4,3.4-1.9,4-1.3c0.6,0.5,0.5,1.5-0.1,3.7c-1.4,5.3-12.6,43.5-16.5,58c-2.3,8.6-1.1,11.2,0,12.7c0.8,1,1.8,2,2.6,2.6
				c0.5,0.4,0.8,0.8,0.4,1.3c-0.4,0.6-1.1,0.2-3.6-1.8c-2.4-2-7.3-6-12.5-10.6c-1.1-1.1-2-1.7-1.6-2.2c0.3-0.4,0.7-0.4,1.4,0.1
				c0.6,0.2,1.5,0,1.8-1.2l6.1-19.7c0.1-0.5,0-0.8-0.3-1.1L517.7,153.8z M534,161.5c0.3,0.3,0.6,0.1,0.7-0.2l7.3-22.8
				c0.1-0.3,0.4-0.8,0.2-0.9c-0.2-0.2-0.6,0.1-0.9,0.3l-19.4,12.6c-0.3,0.2-0.4,0.5-0.1,0.7L534,161.5z"/>
			<path style="fill:#FFFFFF;" d="M556.5,207.4c-5.7,3.9-7.1,6.1-6.7,8c0.3,1.6,1.1,3.1,1.8,4.3c0.5,0.8,0.6,1.4,0.2,1.7
				c-0.6,0.4-1.1-0.2-1.8-1.3c-2.9-5-4.4-8.2-5.3-9.6c-0.4-0.7-2.7-4.1-5-8.1c-0.6-1-0.9-1.7-0.2-2.2c0.4-0.3,0.9,0.1,1.3,0.8
				c0.6,1,1.4,2.3,2.4,3.2c1.7,1.6,4.1,0.5,10.6-3.5l44.4-27.5c1.5-1,2.7-1.4,3.1-0.6c0.5,0.8-0.1,2.1-0.7,4.3
				c-0.4,1.5-5.8,20.9-10.1,39c-2,8.4-6.8,25.6-7.2,27.7l0.2,0.4l32.9-22.1c4.5-3,5.5-4.6,5.2-6.9c-0.2-1.4-1.3-3.3-1.9-4.3
				c-0.5-0.9-0.5-1.4,0-1.7c0.6-0.4,1.2,0.4,1.8,1.6c2.3,4,4.2,7.8,5.1,9.4c0.5,0.8,2.4,3.6,4.6,7.3c0.6,1,0.9,1.8,0.3,2.2
				c-0.4,0.3-0.9,0-1.5-0.9c-0.4-0.8-0.8-1.4-1.5-2.2c-1.8-1.8-3.7-1.4-7.9,1.2l-47.3,29.2c-1.6,1-2.5,1.2-2.9,0.5
				c-0.5-0.8-0.2-2.3,0.1-3.6c1.7-7.7,5.7-23.7,8.8-36.6c3.2-13.5,7.6-27.9,8.2-30.2l-0.1-0.2L556.5,207.4z"/>
		</g>
	</g>
	<path style="fill:#FFFFFF;" d="M345.6,304c-2.8,0-5.1,2.3-5.1,5.1c0,2.8,2.3,5.1,5.1,5.1c2.8,0,5.1-2.3,5.1-5.1
		C350.7,306.3,348.4,304,345.6,304z M446.5,304c-2.8,0-5.1,2.3-5.1,5.1c0,2.8,2.3,5.1,5.1,5.1c2.8,0,5.1-2.3,5.1-5.1
		C451.6,306.3,449.3,304,446.5,304z M446.5,304c-2.8,0-5.1,2.3-5.1,5.1c0,2.8,2.3,5.1,5.1,5.1c2.8,0,5.1-2.3,5.1-5.1
		C451.6,306.3,449.3,304,446.5,304z M345.6,304c-2.8,0-5.1,2.3-5.1,5.1c0,2.8,2.3,5.1,5.1,5.1c2.8,0,5.1-2.3,5.1-5.1
		C350.7,306.3,348.4,304,345.6,304z M345.6,304c-2.8,0-5.1,2.3-5.1,5.1c0,2.8,2.3,5.1,5.1,5.1c2.8,0,5.1-2.3,5.1-5.1
		C350.7,306.3,348.4,304,345.6,304z M446.5,304c-2.8,0-5.1,2.3-5.1,5.1c0,2.8,2.3,5.1,5.1,5.1c2.8,0,5.1-2.3,5.1-5.1
		C451.6,306.3,449.3,304,446.5,304z M446.5,304c-2.8,0-5.1,2.3-5.1,5.1c0,2.8,2.3,5.1,5.1,5.1c2.8,0,5.1-2.3,5.1-5.1
		C451.6,306.3,449.3,304,446.5,304z M345.6,304c-2.8,0-5.1,2.3-5.1,5.1c0,2.8,2.3,5.1,5.1,5.1c2.8,0,5.1-2.3,5.1-5.1
		C350.7,306.3,348.4,304,345.6,304z M345.6,304c-2.8,0-5.1,2.3-5.1,5.1c0,2.8,2.3,5.1,5.1,5.1c2.8,0,5.1-2.3,5.1-5.1
		C350.7,306.3,348.4,304,345.6,304z M446.5,304c-2.8,0-5.1,2.3-5.1,5.1c0,2.8,2.3,5.1,5.1,5.1c2.8,0,5.1-2.3,5.1-5.1
		C451.6,306.3,449.3,304,446.5,304z M446.5,304c-2.8,0-5.1,2.3-5.1,5.1c0,2.8,2.3,5.1,5.1,5.1c2.8,0,5.1-2.3,5.1-5.1
		C451.6,306.3,449.3,304,446.5,304z M345.6,304c-2.8,0-5.1,2.3-5.1,5.1c0,2.8,2.3,5.1,5.1,5.1c2.8,0,5.1-2.3,5.1-5.1
		C350.7,306.3,348.4,304,345.6,304z M345.6,304c-2.8,0-5.1,2.3-5.1,5.1c0,2.8,2.3,5.1,5.1,5.1c2.8,0,5.1-2.3,5.1-5.1
		C350.7,306.3,348.4,304,345.6,304z M446.5,304c-2.8,0-5.1,2.3-5.1,5.1c0,2.8,2.3,5.1,5.1,5.1c2.8,0,5.1-2.3,5.1-5.1
		C451.6,306.3,449.3,304,446.5,304z M446.5,304c-2.8,0-5.1,2.3-5.1,5.1c0,2.8,2.3,5.1,5.1,5.1c2.8,0,5.1-2.3,5.1-5.1
		C451.6,306.3,449.3,304,446.5,304z M345.6,304c-2.8,0-5.1,2.3-5.1,5.1c0,2.8,2.3,5.1,5.1,5.1c2.8,0,5.1-2.3,5.1-5.1
		C350.7,306.3,348.4,304,345.6,304z M501.9,365.5v-67.2c0-1.1-2.4-2.5-2.4-2.5h-14.8l-16.1-17c2.4-4.4-1.6-5.8-1.6-5.8l-7.2,0.6
		v-29.2c0.7-12.7-5.4-11-5.4-11h-6.8l-2.3-1.5h-81.8l-2.1,1.8h-10.1c-8.4,0.4-9.3,7.5-9.3,7.5v37h-11.5c-2.3,0.8-0.8,5.5-0.8,5.5
		h4.9l-12.4,12.9h-13.6c-3.2,0.5-3.2,10.4-3.2,10.4h-11.2c-4.1-0.1-3.8,13.1-3.8,13.1l3,1c-5.1,4.7-3.4,41.8-3.4,41.8
		c-0.4,15.1,5.9,17.3,5.9,17.3h20.1c3.6-2.9,4.6-17.3,4.6-17.3h4.8c4.4,3.9,7,0,7,0h4.9l28.2,6.3h66.1l21.3-3.8h10.4
		c2.4,2.4,4.8-1,4.8-1h5.1c0,17.7,6.3,15.6,6.3,15.6h18.4C502.8,375.7,501.9,365.5,501.9,365.5z M443,235.2l3,1.4h7.1l-0.7,4.7
		l-22.1-6.9L443,235.2z M417.9,236.6l22.5,5.6l-61.5,0.8l-11.7-5.9L417.9,236.6z M361.5,239.8l6,3.3h-10.9
		C356.6,243.1,357.4,239.4,361.5,239.8z M356.2,248h5.5c-1.9,1.3-5.5,6.7-5.5,6.7V248z M329.1,296.2l11.1-11.2h1.6v7.9l-2.4,3.3
		H329.1z M345.6,315.7c-3.6,0-6.6-2.9-6.6-6.6c0-3.6,2.9-6.6,6.6-6.6c3.6,0,6.6,2.9,6.6,6.6C352.2,312.7,349.2,315.7,345.6,315.7z
		 M354.8,281.4v-3l2.1-2.3c0,0,1.3,2.2,2.1,2.7C358.9,278.7,355.7,280.5,354.8,281.4z M371.3,273c0,0-18.4,2.2-16.1-14.8
		c0,0,16.1,6.6,29.7,0C384.9,258.2,389.2,273.9,371.3,273z M413.5,321.3c2.9,0,5.3,2.2,5.6,5.1h-46c0.3-2.9,2.7-5.1,5.6-5.1H413.5z
		 M393.1,283.9c0-5,11.8-4.8,11.8-4.8c11,0.8,10.5,4.8,10.5,4.8H393.1z M414,365h-34.5c-1.8,0-3.4-1.2-4-2.8H418
		C417.4,363.8,415.9,365,414,365z M375.7,359.1c0.2-0.5,0.5-0.9,0.9-1.3c0.8-0.8,1.8-1.2,3-1.2H414c1.7,0,3.2,1,3.9,2.5H375.7z
		 M413.5,348.9h-34.8c-2.7,0-4.9-1.8-5.5-4.3H419C418.4,347.1,416.2,348.9,413.5,348.9z M419.2,341.2h-46.1v-4h46.1V341.2z
		 M419.2,333.8h-46.1v-4h46.1V333.8z M414,277.6h-13.2l-0.1-6.7h3.4c0,0,3.9-4.2-0.2-6.9h-10.1c0,0-4,3.1,0,6.9h5v6.7
		c0,0-4.4,0.3-7,1.6c0,0-3.7-6.5-6.5-8.1c0,0,2.8-12.8-2.8-20.6l47.7,24.3C430.3,274.8,419.2,274.7,414,277.6z M446.5,315.7
		c-3.6,0-6.6-2.9-6.6-6.6c0-3.6,2.9-6.6,6.6-6.6c3.6,0,6.6,2.9,6.6,6.6C453.1,312.7,450.1,315.7,446.5,315.7z M389.1,248h64
		l1.3,33.4L389.1,248z M467.6,294.7l-1.1-4.8l-1.1-2.3h-5.1l-0.3-5.8c6.3-2.1,16.6,12.8,16.6,12.8H467.6z M446.5,304
		c-2.8,0-5.1,2.3-5.1,5.1c0,2.8,2.3,5.1,5.1,5.1c2.8,0,5.1-2.3,5.1-5.1C451.6,306.3,449.3,304,446.5,304z M345.6,304
		c-2.8,0-5.1,2.3-5.1,5.1c0,2.8,2.3,5.1,5.1,5.1c2.8,0,5.1-2.3,5.1-5.1C350.7,306.3,348.4,304,345.6,304z M345.6,304
		c-2.8,0-5.1,2.3-5.1,5.1c0,2.8,2.3,5.1,5.1,5.1c2.8,0,5.1-2.3,5.1-5.1C350.7,306.3,348.4,304,345.6,304z M446.5,304
		c-2.8,0-5.1,2.3-5.1,5.1c0,2.8,2.3,5.1,5.1,5.1c2.8,0,5.1-2.3,5.1-5.1C451.6,306.3,449.3,304,446.5,304z M446.5,304
		c-2.8,0-5.1,2.3-5.1,5.1c0,2.8,2.3,5.1,5.1,5.1c2.8,0,5.1-2.3,5.1-5.1C451.6,306.3,449.3,304,446.5,304z M345.6,304
		c-2.8,0-5.1,2.3-5.1,5.1c0,2.8,2.3,5.1,5.1,5.1c2.8,0,5.1-2.3,5.1-5.1C350.7,306.3,348.4,304,345.6,304z M345.6,304
		c-2.8,0-5.1,2.3-5.1,5.1c0,2.8,2.3,5.1,5.1,5.1c2.8,0,5.1-2.3,5.1-5.1C350.7,306.3,348.4,304,345.6,304z M446.5,304
		c-2.8,0-5.1,2.3-5.1,5.1c0,2.8,2.3,5.1,5.1,5.1c2.8,0,5.1-2.3,5.1-5.1C451.6,306.3,449.3,304,446.5,304z M446.5,304
		c-2.8,0-5.1,2.3-5.1,5.1c0,2.8,2.3,5.1,5.1,5.1c2.8,0,5.1-2.3,5.1-5.1C451.6,306.3,449.3,304,446.5,304z M345.6,304
		c-2.8,0-5.1,2.3-5.1,5.1c0,2.8,2.3,5.1,5.1,5.1c2.8,0,5.1-2.3,5.1-5.1C350.7,306.3,348.4,304,345.6,304z M345.6,304
		c-2.8,0-5.1,2.3-5.1,5.1c0,2.8,2.3,5.1,5.1,5.1c2.8,0,5.1-2.3,5.1-5.1C350.7,306.3,348.4,304,345.6,304z M446.5,304
		c-2.8,0-5.1,2.3-5.1,5.1c0,2.8,2.3,5.1,5.1,5.1c2.8,0,5.1-2.3,5.1-5.1C451.6,306.3,449.3,304,446.5,304z M446.5,304
		c-2.8,0-5.1,2.3-5.1,5.1c0,2.8,2.3,5.1,5.1,5.1c2.8,0,5.1-2.3,5.1-5.1C451.6,306.3,449.3,304,446.5,304z M345.6,304
		c-2.8,0-5.1,2.3-5.1,5.1c0,2.8,2.3,5.1,5.1,5.1c2.8,0,5.1-2.3,5.1-5.1C350.7,306.3,348.4,304,345.6,304z M345.6,304
		c-2.8,0-5.1,2.3-5.1,5.1c0,2.8,2.3,5.1,5.1,5.1c2.8,0,5.1-2.3,5.1-5.1C350.7,306.3,348.4,304,345.6,304z M345.6,304
		c-2.8,0-5.1,2.3-5.1,5.1c0,2.8,2.3,5.1,5.1,5.1c2.8,0,5.1-2.3,5.1-5.1C350.7,306.3,348.4,304,345.6,304z"/>
</g>
</svg>
