<?xml version="1.0" encoding="utf-8"?>
<!-- Generator: Adobe Illustrator 16.0.0, SVG Export Plug-In . SVG Version: 6.00 Build 0)  -->
<!DOCTYPE svg PUBLIC "-//W3C//DTD SVG 1.1//EN" "http://www.w3.org/Graphics/SVG/1.1/DTD/svg11.dtd">
<svg version="1.1" id="Layer_1" xmlns="http://www.w3.org/2000/svg" xmlns:xlink="http://www.w3.org/1999/xlink" x="0px" y="0px"
	 width="892.9px" height="524.4px" viewBox="0 0 892.9 524.4" enable-background="new 0 0 892.9 524.4" xml:space="preserve">
<g id="_133914472">
	
		<linearGradient id="SVGID_1_" gradientUnits="userSpaceOnUse" x1="304.1602" y1="-342.2241" x2="297.2017" y2="-335.2656" gradientTransform="matrix(72 0 0 72 -20998.3125 24667.25)">
		<stop  offset="0" style="stop-color:#22366C"/>
		<stop  offset="0.149" style="stop-color:#22366C"/>
		<stop  offset="0.3294" style="stop-color:#22366C"/>
		<stop  offset="0.4392" style="stop-color:#3451A3"/>
		<stop  offset="0.5294" style="stop-color:#22366C"/>
		<stop  offset="0.6392" style="stop-color:#22366C"/>
		<stop  offset="0.8196" style="stop-color:#A7BDE2"/>
		<stop  offset="1" style="stop-color:#D8E2F3"/>
	</linearGradient>
	<path fill="url(#SVGID_1_)" d="M752.5,437.8c-0.1-2-1.4-8.6,0.3-9.2c0.7-0.2,2.4-0.8,2.9-1c0.5-0.1-0.2,0,0.1,0
		c0.3,0,1-0.6,1.4,0.8c0.3,1.4,1,3.8,0.7,5.5c-0.3,1.6-2.6,4-3.6,4.8c-1.2,0.8,0.1-0.1,0,0c-0.1,0.1-0.2,0.2-0.7,0.2
		C753.3,439,752.6,439.5,752.5,437.8L752.5,437.8z M790.8,483.1c0,0.1,0,0.6,0.2,0.6c0.2-0.1,0.1-0.5,0-0.6
		C790.9,482.8,790.8,482.9,790.8,483.1L790.8,483.1z M762.3,440.5L762.3,440.5C762.3,440.5,762.3,440.6,762.3,440.5
		c0.1-0.2,0.3-0.6,0.9-0.7c0.6-0.1,1.9-0.2,2.3-0.3c0.5-0.1,0.3-0.1,0.8,0.1c0.3,0.2,0.8,1,0.5,1.6c-0.2,0.6-0.9,1-0.8,1.5
		c0.1,0.5,0.7,0.3,0.7,0.9c0.1,0.6-0.2,1.5,0.2,1.9c0.5,0.3,1.4-0.1,1.9-0.2c0.5-0.1-0.2-0.6,0.9,0.2c1,0.8,7.1,4.5,9.1,5.4
		c1.9,0.8,1.2,0.5,1.7,0.6c0.5,0.1,1,0.2,1.3,0.2c0.2,0,0,0,0,0l0,0c0,0-0.6,0,0,0c0.6,0,1.9-0.2,3.5-0.8c1.6-0.6,5.1-0.6,7.1-0.3
		c2,0.2,1-1.7,1.5-2.4c0.4-0.7,0.7-0.8,1.5-0.5c0.8,0.3,2,1.2,2.8,1.2c0.8,0,1.5-0.8,1.7-1c0.3-0.2,0.2,0.6,0,0
		c-0.2-0.6-1.4-2.9-1.7-3.5c-0.2-0.6,0,0.1,0,0c0-0.1,0.1-0.5-0.1-0.6c-0.2-0.2-1-0.3-1.3-0.3c-0.2,0,0.1,0,0,0c0,0,0,0-0.3-0.2
		c-0.3-0.2-0.7-1-0.2-1.6c0.5-0.6,1.3-1.6,1.5-2c0.5-0.6-0.7-2-1.3-3c-0.2-0.5,0.1,0.1,0,0c-0.1-0.1-0.3-0.5,0-1.2
		c0.3-0.6,1.2-2.1,1.5-2.7c0.4-0.6,0.6-0.6,0.8-0.6c0.3,0,0.6,0.1,0.8-0.1s0.6-0.7,0.9-0.7c0.3,0,0.3,0,0.6-0.1
		c0.2-0.1,0.6-0.1,0.9,0.2c0.4,0.3,0.5,1.3,0.2,1.6c-0.2,0.3-0.8-0.3-0.2,0.2c0.6,0.6,2.8,2.8,3.3,3.4c0.5,0.6-0.1-0.1,0,0
		c0.1,0.1,0.8-0.2,0.2,1.2c-0.5,1.4-0.3,3.7,0.1,4.8c0.5,1,0.8,2,0.9,2.4c0.1,0.5-0.1-0.2,0,0c0.1,0.2,0.2,1-0.7,1.4
		c-0.9,0.3-3.3,1.3-4,1.5c-0.7,0.2-0.1-0.6,0,0.1c0.1,0.7,0.9,3.5,1.2,4.2c0.2,0.7,0,0,0,0s-0.7-5.9,0,0.1c0.7,6.1-1.5,16.6-3,18.7
		c-1.5,2.1-1.9,2.1-1.9,3.1c0,1,1.2,0.1,0.9,1.3c-0.1,1.2-0.7,2.7-1.3,3.1c-0.6,0.5-1.6-0.7-1.5,0.6c0.1,1.3,0.6,4.1,0.5,5.2
		c-0.1,1.2-0.1,0.7-0.1,1.3c0,0.6-0.3,1.2-1.3,1c-0.8,0-2.6-0.2-3.1-0.2s0.1,0,0,0s-0.5-0.1-0.6-0.2c-0.2-0.1-0.6-0.5-0.7-0.6
		c-0.1-0.1,0.1,0.1,0,0c-0.1-0.1-0.2-0.3-0.4-0.5c-0.1-0.1-0.1,0.1-0.3,0.2s-0.8,0.1-1,0.5c-0.2,0.3-0.1,1.3-0.2,1.5
		c-0.1,0.2,0,0,0,0s0.1-0.3,0,0s-0.7,1.2-1.2,1.4c-0.6,0.2-1.3,0.2-1.7,0.2c-0.5-0.1-0.6-0.7-1-0.3c-0.5,0.3-0.6,1.4-0.9,2
		c-0.2,0.6,0,0.9-1.3,0.7c-1.3-0.2-2.9-0.7-4.1-1.2c-1.2-0.5-3.5-0.9-5.1-0.7s-1.2-0.2-1.3-1c-0.1-0.7,0.1-2-0.4-2.6
		c-0.5-0.6-0.1,1.4-1.3-0.6c-1-2-4.8-8.7-5.7-10.5c-0.9-1.7,0,0.1,0,0s-0.1,1-0.1-0.6c0-1.6,0.1-7.4,0-9.2c0-1.7-0.7-1.4-1.2-2.1
		c-0.5-0.7-1-1.6-1.2-2.1c-0.1-0.5,0.2,0.5,0,0c-0.3-0.5-2-4.5-2.4-5.8c-0.3-1.3-0.2-0.8-0.3-1.3c-0.1-0.3-0.2-0.9-0.2-1
		c0-0.1,0,0,0,0l0,0c0,0,0.2,1.4,0,0s0.6-7.6,1-9.4c0.6-1.9,0.3-1.2,0.6-1.7C761.9,441.4,762.2,440.7,762.3,440.5
		C762.4,440.2,762.3,440.5,762.3,440.5L762.3,440.5z M672.3,378.2c0.4,0.6,8.3-0.7,8.3-0.7l0.9-2l6.2-0.8l-2.1-1.6l-1.2,0.8
		l-2.6-0.9c0,0,0.9-2.6-0.3-2.4c-1.3,0.1-10.4,1.3-11.1,3.6C669.9,376.3,671.8,377.6,672.3,378.2L672.3,378.2z M554.5,30.1
		c0.3,2.4-2,6.5-0.7,8.8s-1-2.9-1.9-0.3c-0.9,2.6,4,2.1,9,2c5-0.1,8.8-2.8,11.3-4.5c2.4-1.7-1.4-1-0.8-1.7c0.6-0.7,0-2.8-0.5-3.7
		c-0.5-0.9-2-0.9-2-0.9l-8.8,4.2C560,33.8,554.2,27.7,554.5,30.1z M581.6,28.6c-5-2.2-2.2,5.4-1.6,6.4c0.5,1,0.9-2,0.9-2l3.1,0.2
		c0,0-1.7-1.6-0.8-1.2c1,0.5,2.1,2.2,2.3,3.5c0.1,1.3,1.7-0.8,1.9,0.3c0.1,1.2-1.2,5.1-3.1,4.8c-1.9-0.3-0.3,1.9-0.3,1.9l-3.6,1
		l-4.3,0.6l-4.4-0.1l-1.5-2.3l-0.9,2.6l-1.9-0.3c0,0,1.5-2.3,0.3-1.9s-2.1,3.4-1.9,4.7c0.1,1.3-2.2,2.1-2.2,2.1s-3-1.5-3.3-0.8
		c-0.2,0.7-0.3,0.7-2.2,2.1c-1.9,1.5-1.7,5.5-2.9,5.9s-2.1,3.4-2.1,3.4l0.1,1.3c0,0,4.9-0.3,3.8,0.7c-1.2,1-3.7,2.9-5.2,3.1
		c-1.5,0.2-0.9,7.6-0.9,7.6l-3.5,1.7l-1.2,5.7l4,1.4l1.7,3.5c0,0-2.1-1.9-2.6-0.9c-0.5,1-2.7,1.3-3.6,1c-0.9-0.2,1.3,1.5,0,1
		c-1.3-0.5-8.8-1.3-10.7-0.3c-2,0.9-2.2,1.4-2.3,1.5c-0.1,0.1,0.7-2.8,0.7-2.8s-5.2-0.7-5.4-0.9c-0.6-1-2.8-4.2-6.9-7.1
		c-1.2-0.8-3.8-0.9-4.1-0.8c-0.1,0-0.2-1.9-0.5-1.7c-1.2,0.7-1.9,1.2-1.9,1.2s0,0.2-0.5-0.9c-0.1-0.5-0.8-0.5-1.4-0.3
		c-1.2,0.1-3.4,1.9-3.8,2.7c-0.6,1-0.6,0-1,0.3l-1.9-0.3l-0.5,1.3l-0.1,1.7l-2.6,1.7c-2.2-7.3-6.3-1-1.2,0.8l-1.9,0.2l-0.6,0.7
		l-0.5,1.3c0.5,3.3-1.4,3.7-5.2,5c-3,1-4.3,2.2-3.7,6.8c0.3,2.4-4-1.4-4-1.4l-1.6,2.1l1.9-0.2c-0.7,3.8,0,3.7-3.8,4.2l-0.1-1.3
		c-0.6,1.5-2.1,1-1.6,2.1c0.7,1.5,0.2,2,0,3.1c-0.3,2-0.9,4.4,0.5,7l1,2l-0.8,2.7c-0.3,1.2-1.7-1.6-2.7-1.5
		c-0.9,0.1-2.8-0.2-3.8-0.7c-1-0.5-1.2,0.8-1.2,0.8l-0.1-1.3l-3.4,0.9l-3.8-2.4c-0.1,0.9,0.3,2.7-0.5,3.7c-0.8,1-3,1.5-4,2.7
		c-1.4,1.6-2.7,3.3-3.1,6.1c-0.2,0.9,1.4,2.3-0.7,3.6c-0.9,0.6-1.7,4.4-2.1,7.8c0,0.2-1.6-0.7-2.7-0.6c0,0,0.9,11.5,2.2,11.1
		c3.4-1.3,1.6-0.6,1.6-0.6l-7,6.6l0.3,2.4c0,0-1.9,0.6-2.4,1.2c-0.2,0.2-0.2,0-0.1,0.9c0.3,2.7-0.8,8.1-5.2,11.6
		c-4.4,3.6-12.2,8.4-15.8,9.4c-3.6,1-5.2,0.3-7.6,1.5c-2.3,1.3-3.5,4.2-4.3,4.9c-0.8,0.7-10.1,2.6-10.6,4.4
		c-0.5,1.9-0.2,2.9-8.8,4.2c-8.5,1.4-7.3-0.1-15,9.4c-7.6,9.5-6.2,7.9-7.7,8.5c-1.5,0.5-7.9,6.6-7.9,6.6s-2.8,14.7-4.2,11.2
		c-1.4-3.6-1.6-5.9-2.6-10.2c-0.9-4.3-2,1.5-2.8,2.8c-0.8,1.3-1.9,9.5-1.6,11.4c0.2,1.9,2.3,3.7,2.6,5.2c0.2,1.5,1,5.5,0.8,6.8
		c-0.1,1.3-2.4,7.4-1.5,12.7c0.9,5.1,2.8,4.9,4,6.4c1.2,1.5,2.4,4.1,2.4,4.1s5.1,5.6,5.8,6.1c0.7,0.6,3.5,2.7,4.3,4.4
		c0.8,1.7,3.5,7.7,0.9,7.3c-2.6-0.3-3.4-4.3-3.8-5.8c-0.5-1.5-0.5,6.1-1.4,3.4c-0.9-2.7-3.6-8.5-6.2-9.2s-2,7,2.1,6.8
		c0.9-0.1-3.1,3.5-4.3,1.5c-1.3-2.2-4.7-6.2-5.1-4.3c-0.3,1.2,1.6,6.3,3.3,8.4c2.6,3.3,5.2,2.6,5.2,2.6s2.9,4.3,4,5.1
		c1,0.8,2.6-0.3,6.4,3.5c4,3.8,3.6,8.8,5.8,11.8c2.2,2.8,4.4,2.8,6.2,4.8c1.9,2,1.7,3.5,3.1,5.2c1.5,1.6,4.3,4.1,5.1,6.2
		c0.9,2.1,2,8.5,2.4,9.1c0.3,0.6,4.5,8.7,4.9,9.3c0.4,0.6,5,5.2,6.5,7.2c1.5,2,4.3,6.8,5.2,11.8s0.8,4,1.6,7.9
		c0.8,4,2.8,7.4,1.3,10.4c-1.5,3-1.3,2-2.2,2.1c-0.9,0.1-3.1-3.3-3.1-0.2c0,3.1-1,12.3,4.7,12.5c5.7,0.1,10.2,2.1,12.2,2.8
		c2,0.7,6.4,1.4,7.7,1.5s3.8-0.1,6.8-0.8c2.9-0.7,4.2-0.8,5.5-0.7c1.3,0.1,4.8-1.9,4.8-1.9l4.5-3c0,0-2.8-0.2-1.5-1.6
		c1.4-1.4,0.5-4.7,4.8-6.9c4.3-2.2,6.4-1.4,8.4-2.3c2.1-0.9-4,3.3-2-1s8.5-6.6,10.8-7.6c2.3-0.9,2-1.9,4.7-2.4
		c2.7-0.7,7.7-0.9,9.8-1.3c2.1-0.2,4.1-2,3.6-1c-0.5,0.9-1.5,1.6,3.7-0.5s7.6-1.3,9.3,0s-1.5-1.6,2.2-2.1s5.9-9.8,8.3-13.5
		c2.3-3.7,5.8-3.3,7-4c1.2-0.8,11.9-9.7,13-10.4c1.2-0.8,5.5-0.7,6.8-0.8c1.3-0.1,9.1-2.4,9.1-2.4s12.3-5.9,13.5-6.8
		c1.2-0.8,2.6-2.2,6.4-4c3.8-1.7,14.9-3.1,19.4-3.7c4.5-0.6,3.5-1.4,6.6-1.5c3.1-0.1,11.4,4.8,13.2,5.1c1.7,0.3,1.4,1.7,3.1,0.2
		s5.7,0.8,8.3,1.4s0.1,1.5,3.6,1c3.5-0.5,3.6,4,5,3.5c1.5-0.5,4.4,0.1,5.1,1.2c0.8,1.2-2.3,0.9-2.3,0.9s0.8,2,0.3,3
		c-0.5,1,1,0.9,0.8,1.7c-0.1,0.8,2.1,2.2,2.1,2.2s4.4-2.1,4.9-0.6c0.5,1.5-1.6,2.4,1.4,6.1c3,3.6,6.6,3.1,6.4,8.4
		c-0.1,5.2,4.3,10.1,4.8,10.7c0.5,0.6,2.8-2.2,2.8-2.2l0.8,1.7l1.3-0.1l-0.2-6.8l0.8-2.7l5.5-5.7c0,0,4.8,0.6,7.4-5.4
		c2.6-5.9,13.5-13,7.2-1.5c-6.2,11.4,0,15.1-4.3,19.9c-4.3,4.8-6.2,3.3-6.8,5.8c-0.6,2.6,6.6-2.1,6.6-2.1l3.7-0.5l1.4-4
		c0,0,0.9-12.6,2.4-10.2c1.5,2.3,6.4,13.2,4.1,16.9c-2.3,3.7-2.8,2.6-3.4,2.9c-0.6,0.3-2.2,0.3,0.6,0.9c2.9,0.6,5.5-1.7,8.7-0.9
		c3.3,0.8,9.9,9.3,10.8,11.6c0.9,2.4,1.4,3.5,1.3,4.8c-0.1,1.3-2.1,0.4-2.1,2.8c-0.1,2.4,7,13.7,10.1,15.5c3.1,1.7,9.1,3.1,9.4,5.6
		c0.3,2.4,0.7,0.6,0.7,0.6l1.3,0.5c0,0,0.9-2.6,1.5-2.7s8.4,2.1,10.4,3c2,0.9,6.5,5.4,10.7,5.5c4.2,0.1,11.9-7.7,16.3-4
		s0.9-2.8,3.1,0.2c2.2,3,7.7,4.3,8.3,6.4s1.4-3.5,2.3-1.5s2.3,2.9,7.2-0.9c4.9-3.8,7.8-7.9,14.9-10.7c7.1-2.8,15.6,0.5,18.6-0.5
		c3-0.9,5.5-3.1,6.3-4.5c0.8-1.4,0.3-1.9,0.3-2.6c-0.1-0.6,1.4,1,1.3,0.5c-0.1-0.6-0.7-3-0.6-4.9c0.1-1.9,3-8.6,4.3-9.9
		c1.4-1.3-0.5-1.2-0.4-3c0.1-2,4.7-10.2,5.4-11.3c0.8-1,4.5-3,4.5-3l-0.3-2.4l2.6-9.1l3.8-3.6l2.3-5.9l7.4-10.2l3.5-1.7
		c0,0,2.7-0.7,2.9-1.6c0.2-0.9,1.9-2.1,2.8-2.2c0.9-0.1,1.2-5.7,1.2-5.7l5.6-9.4l2.3-6.5l0.5-6.3l1.9-4.7l2.3-6.5l2-9l4.1-6.8
		c0,0,0.7-7.4,0.1-8.7c-0.6-1.3-4.4-11.4-2.9-13.3c1.4-1.9-1.9,0.2-1.9,0.2l-1.2-4.2c0,0,1.7,4.1,1.9,0.3s1.3-11.2,1.4-18.3
		c0.1-7.1,2-10.4,2.7-12.8c0.8-2.4-1-7.7-3-4.5c-2.1,3-0.9,4.8-2.3,5.9c-1.4,1.2,0.9,2.3,0.9,2.3l-5.5-3.6l-2.7-6.5l-4.2-3.3l-5.4-8
		l-4.5-1.3c-0.9-4.2-1-10.2-6.4-6.6L852,187c0,0,0.6-3.1,0.6-5c0.1-1.9-0.5-6.1-1.9-7.4c-4.2-4.1-2.2,2.6-2.3,3.6l-2.8-2.8l-1.2,0.8
		l-2.4-4.7l-2.6-0.3v5c-3.4-0.3-3.1-1.3-4.9-4.3l-0.1-1.3c3.1-0.5-1.5-2.6-1.2-4.2c1.3-6.4-2.1-2.8-1.7-4.1c0.2-0.9,0.6-0.7-0.6-4.3
		c-1-3.6-3.3-3.6-5.1-5.6c-1.9-2-2.7-3.7-3-4.5c-0.5-0.9,1.3-0.1,1.3-0.1l-0.1-0.6l2.1,2.2l-0.3-3l2.1,2.2l1.3-0.1l0.6-0.7
		c-3.7-4.8-11.4-3.8-11.9-5.4c-0.5-1.5-2.7-3.7-3.7-4.5c-1-0.8-2.3,0.9-2.3,0.9c-0.2-2,0.1-3.7-2.3-3.5c0,0-0.5,3.5-0.9,2
		c-0.5-1.5-2-8.4-4.7-7.4c-2.7,0.9-3.5-0.2-4-1.4c-0.5-1.2-2,1.4-2,1.4l-1.4-0.5c0,0,2.2-2.9,0.7-2.4c-1.5,0.5-6.5-1.3-7.1-3.7
		c-0.2-1,0.3-2.9,0.2-4.2c-0.2-2.1-1.3-5.4-1-7.1l-4.2,3.1c0,0,2.8-5.4,1.9-5.6c-0.9-0.2-0.9-2.3-1.2-4.2s-3.3-8.6-3.7-9.4
		c-0.5-0.9,1.9-0.2,1.9-0.2s2.4-0.6-0.1-1.3c-2.6-0.7-7.9-5.5-9.1-7.6c-1.2-2.1,1.7-0.8,1.7-0.8l-4.2-13.2c0,0,1.3-1.7,0.9-2.6
		c-0.5-0.9-0.1-3.4,0.1-4.4c0.2-0.9-11.4-6.1-11.4-6.1l-1.3-5.5c0,0-3,5.8-3.4,2.9c-0.3-2.9-2.6,2.6-5.2,2.6c-2.8,0-3.4-4.9-3.8-5.7
		c-0.5-0.9-1.7-4.1-1.7-4.1s0.2-3.5,0-5c-0.2-1.5-1.6-5.4-1-8.6c0.6-3.1-3,0.3-3,0.3l1.4-4c0,0-5.6-2.1-5.5-3.6
		c0.1-1.5,2.1-2.8,2.4-5.2c0.3-2.6-4.3,0-5.9-2.3c-1.5-2.3-2.9-9.8-6.1-12.9c-3.1-3.1,2.4-3,0.1-4.4l0,0c-2.4-1.3-5.7,4-7.9,10.9
		c-2.2,7-4.5,18.2-4.9,19.9c-0.5,1.7,3.7-0.5,3.7-0.5s-3.1,5.1-3,5.9c0.1,0.9,1,3.6,0.7,5.5c-0.3,2-2,4.3-1.6,7.1
		c0.3,2.8,1.6,2.9,1.9,4.8c0.2,1.9-0.1,4.1,0.1,5.6c0.2,1.5,1.5,7.2,1.5,7.2s-1.6,6.8-2,9c-0.3,2.2-0.2,7.4-1.5,12
		c-1.3,4.5-3,5.9-3.4,7.3c-0.5,1.3-0.6,2.6-1.3,4.5c-0.7,2-7.8,7.2-10.4,6.9c-2.6-0.3,6.1,3.1-6.6-2.9c-12.7-6.1-8.8-10.7-21.3-10.4
		s-1.4-3.7-6.3-5.5c-4.9-1.7-22.6-10.9-26.5-13.6c-4-2.7-1.2-0.9-2.1-0.8c-0.9,0.1-1.7,0.6-2.9-1.4c-1.2-2.1,3-7.8,4.7-8.7
		c1.6-0.9,0.6-12.7,3.3-15.5c2.7-2.8,3.4-1.4,4.2-4.2c0.8-2.8-0.7-3.4,0.1-4.4c0.8-1-0.8-1.7-0.8-1.7l4.4-4.3l-2.9-3.4
		c0,0-1.5,5.4-2.9,1.6c-1.4-3.7-3.7-3.5-7.6-0.9c-3.8,2.6,1.9,0.3,1.9,0.3l-1,1.4c0,0,3-1,2.6,0.3c-0.5,1.3-1.9,4.7-3.8,3.6
		c-2-1,0.2-3.1-0.5-3.7c-0.7-0.6,0.3-1.9,0.3-1.9l-4.5,3l-0.7-0.6l3.3-3.5c0,0,0.3-0.7,0-0.9c-0.3-0.2-1.6,0.6-1.4-0.1
		c0.2-0.6-10.4,5.5-11.5,2.7c-1.2-2.7-1.7,0.8-1.7,0.8s1.7-3.4-1.5-1.6c-3.3,1.6-4.7,2.2-8.5,1.7c-3.8-0.6-3.3-1.4-4.5-1.3
		c-1.3,0.1,1-1.4,1-1.4l-0.1-0.6c0,0-7.6,1.6-7.3,0.9c0.2-0.7,0.3-1.9-0.3-2.4c-0.7-0.6,2.1-2.8,0.9-2c-1.2,0.8-1.4,2.9-2.7,3.5
		c-1.3,0.6-4.9-3.7-5.6-4.3c-0.7-0.6-3.4,2.9-3.4,2.9s-0.8-8.6-1.6-7.9s-1.9,2.7-2,4"/>
	
		<linearGradient id="SVGID_2_" gradientUnits="userSpaceOnUse" x1="296.2515" y1="-335.355" x2="296.2515" y2="-337.9312" gradientTransform="matrix(72 0 0 72 -20998.3125 24667.25)">
		<stop  offset="0" style="stop-color:#010101"/>
		<stop  offset="0.6196" style="stop-color:#010101"/>
		<stop  offset="0.6236" style="stop-color:#B7BEC9"/>
		<stop  offset="0.8588" style="stop-color:#010101"/>
		<stop  offset="1" style="stop-color:#010101"/>
	</linearGradient>
	<path fill="url(#SVGID_2_)" d="M179.2,456.6c-1.7,2.8-2.6,5.9-2.6,9.5c0,2.4,0.5,4.4,1.3,5.9l28,47.5c0.7,1.4,1.7,2.1,2.9,2.1
		c2.4,0,4.7-1.9,6.8-5.5l98-169.8c0.9-1.9,1.5-3.5,1.5-5.1c0-3.4-1.9-5.1-5.7-5.1H76.3c-2.8,0-5.8,0.9-9,2.9c-3.1,2-5.5,4.4-7.1,7.2
		L7.4,437.6c-0.9,1.9-1.5,3.5-1.5,5.1c0,3.4,2,5.1,5.9,5.1h50.7c2.7,0,5.6-0.9,8.7-2.9c3.1-2,5.5-4.4,7.1-7.2l46.9-81.1
		c1.7-2.8,4.1-5.2,7.2-7.2c3.1-2,6.1-2.9,8.8-2.9l0,0c3.8,0,5.7,1.7,5.7,5.1c0,1.5-0.5,3.3-1.5,5.1l-46.9,81.1
		c-0.9,1.9-1.4,3.5-1.4,5.1c0,3.4,2,5.1,5.9,5.1h50.7c2.7,0,5.6-0.9,8.8-2.9c3.1-2,5.5-4.3,7.1-7.1l46.8-81.1
		c1.7-2.8,4.1-5.2,7.2-7.2c3.1-2,6.1-2.9,8.8-2.9l0,0c3.8,0,5.7,1.7,5.7,5.1c0,1.5-0.5,3.3-1.5,5.1L179.2,456.6L179.2,456.6z
		 M339.9,336.3c-2.8,0-5.8,0.9-9,2.9c-3.1,2-5.5,4.4-7.1,7.2L271,437.7c-0.9,1.9-1.5,3.5-1.5,5.1c0,3.4,2,5.1,5.9,5.1h50.6
		c2.7,0,5.6-0.9,8.7-3c3.1-2,5.5-4.4,7.1-7.2l47-81c1.7-2.8,4.1-5.2,7.2-7.2s6.1-2.9,8.8-2.9l0,0c3.8,0,5.7,1.7,5.7,5.1
		c0,1.5-0.5,3.3-1.5,5.1l-5.9,10.1c-0.9,1.9-1.5,3.5-1.5,5.1c0,3.4,2,5.1,5.9,5.1h50.7c2.7,0,5.6-0.9,8.7-2.9c3.1-2,5.5-4.4,7.1-7.2
		l11.9-20.3c0.9-1.9,1.5-3.5,1.5-5.1c0-3.4-1.9-5.1-5.7-5.1L339.9,336.3L339.9,336.3z M510,336.3c-2.8,0-5.8,0.9-9,2.9
		c-3.1,2-5.5,4.4-7.1,7.2L482,366.7c-0.9,1.9-1.5,3.5-1.5,5.1c0,3.4,2,5.1,5.9,5.1h50.9c2.7,0,5.6-0.9,8.8-2.9
		c3.1-2,5.5-4.3,7.1-7.1l5.9-10.1c1.7-2.9,4.1-5.2,7.1-7.2c3.1-2,6.1-3,8.8-3l0,0c3.8,0,5.7,1.7,5.7,5.1c0,1.6-0.5,3.3-1.4,5.1
		L567.8,377c-1.7,2.8-4.1,5.1-7.2,7.1s-6.1,2.9-9,2.9l0,0h-71c-2.8,0-5.8,0.9-8.8,2.9c-3.1,2-5.5,4.4-7.2,7.2l-23.4,40.5
		c-0.9,1.9-1.5,3.5-1.5,5.1c0,3.4,2,5.1,5.9,5.1h141.9c2.7,0,5.6-0.9,8.7-2.9c3.1-2,5.5-4.4,7.1-7.2l52.8-91.2
		c0.9-1.9,1.5-3.5,1.5-5.1c0-3.4-1.9-5.1-5.7-5.1H510L510,336.3z M538.2,427.4c-1.5,2.8-4,5.2-7.1,7.2c-3.1,2-6.2,2.9-9,2.9l0,0
		c-3.8,0-5.7-1.7-5.7-5.1c0-1.5,0.5-3.3,1.5-5.1l11.9-20.3c1.5-2.8,3.8-5.2,7-7.2c3.1-2,6.1-2.9,8.8-2.9l0,0c4,0,5.9,1.7,5.9,5.1
		c0,1.5-0.5,3.3-1.5,5L538.2,427.4L538.2,427.4z"/>
	
		<linearGradient id="SVGID_3_" gradientUnits="userSpaceOnUse" x1="297.8735" y1="-338.8618" x2="300.7887" y2="-341.7769" gradientTransform="matrix(72 0 0 72 -20998.3125 24667.25)">
		<stop  offset="0" style="stop-color:#FFFFFF"/>
		<stop  offset="7.843100e-002" style="stop-color:#FFFFFF"/>
		<stop  offset="0.3098" style="stop-color:#A9ADB4"/>
		<stop  offset="0.4784" style="stop-color:#FFFFFF"/>
		<stop  offset="0.6196" style="stop-color:#FFFFFF"/>
		<stop  offset="0.9216" style="stop-color:#A4A7AD"/>
		<stop  offset="1" style="stop-color:#9EA1A8"/>
	</linearGradient>
	<path fill="url(#SVGID_3_)" d="M542.7,116.7c24.7-27.8,52.4-46.4,80.8-63.1l17.2,0.6c0,0-0.9,7-1.9,13c-2.9,1.6-7.7,7.8-4.2,11.1
		c1.4,1,2,0.9,3.8,0.7l0.1,0.2c-14.5,7.1-30.1,15.6-47.7,27.2c20.3-3.3,40.3-4.9,59.8-4.8c0.3,13.4,0.7,26.8,1,40.2
		c-19.9,0.9-40.2,0.2-59.4,7.1c28.4,6.2,49,14.8,66.6,24.2c0.8,6.9,1.5,13.6,2.3,20.5c-10.9-0.6-21.9-1.2-32.8-1.7
		c-12.8-8.5-58.2-18.7-82.9-15.7c4.4,18,13.4,34.5,22.8,45.7c-11.3,13.2-24.6,21.5-39.6,25.5c-6.5-12.2-12.9-29-19.4-48.2
		c-13.2,24.8-30.5,39.9-49,52.3c-13.5-1.9-23.2-4.1-32.6-8c0-7.3-0.3-15.7-0.3-23c14.7-4.4,26.9-13.2,40.5-26.7
		c-16.3-0.7-31.3-4.4-46-9.3l0.1-4.4c1.3,0,2.6,0.5,4.4-0.2c4.2-1.2,14.7-6.9,17.5-9.7c3.4-2.9,6.4-8.3,5.8-13.2l2.3-0.9l-0.4-2.4
		l7.2-6.5l-0.9-2.3l-2.3,0.9c0.2-3.3-1.2-6.3-1.5-9.1c3.6,0.5,7.1,0.8,10.6,1.2c-2.6-2.6-4.9-5.4-7.1-8c0.2-0.2,0.6-0.3,0.9-0.6
		l1.6-2.1c0.8-3.8,1.4-4,3.4-7.3l4.9-0.6l-4.3,4.9l2.6,0.3c1,3.6,4,6.4,6.2,9.2l0.3-1.9l0.8,1.7l-0.7-5.5l3-0.3l-6.9-5.4l0.8,1.2
		c-2-0.9,0.2-3.1,1.3-4.5l-4-1.4l0.4-2.6l2,1l4.2-1.2l0.1,1.3l1.2-0.8c2,0.9,2,0.9,3.8,0.7l2.7,1.5c0.3-2.6,0.2-3.1,2.7-3.5l0.3-2.6
		l-2.3,1.5c-1.6-4.7-1.6-5.5-1.4-6.2c6.4,7,13.3,14,20.9,20.7c0.7-15.6,1.3-31.2,2.3-46l2.4-2.2l-0.6-0.7l0.5-1.3l1.9,0.3l0.1,1.3
		l-1.7,0.8l2.1,2.2l0.5-5.7c2.3-1.5,3.5-1.7,5.7,0.5l1.2-0.8l0.1,1.3c4.1-1.7,9.9,4.3,11.6,7.8l4.1,0.3l-0.8,5.5
		c1.2-0.8,2.7-3.5,3.8-3.6c2.7-1.5,7.1-0.6,9.9,0.2L542.7,116.7L542.7,116.7z M477.9,102.8l0.1,0.1l-0.2-0.1H477.9z"/>
	<g>
		<path fill="none" stroke="#5A0E0E" stroke-width="1.390000e-002" d="M632.9,53.4l7.2,0.2l-0.6,4.2l-0.6,4
			c-28.6,15.6-53.7,30.8-73.8,50.6c-5.6,1.6-17.1,6.3-22,8.7C566.2,98.3,597.8,74.2,632.9,53.4L632.9,53.4z M650.3,109l0.6,24.8
			c-39.7-1.4-78.3,9.4-116.3,33.5c5.8,27.2,14.5,48,27.1,60.5c-7.2,6.9-15.1,12.1-23.6,15.7c-10.9-18.5-20.6-40.2-25.6-66.2
			c-26.1,10.1-53.8,6.5-80.2-0.7c4.4-2.2,9.4-5.2,11.2-7.1c3.4-2.9,6.4-8.3,5.8-13.2l2.3-0.9l-0.3-2.4l7.2-6.5
			c17.6,0,34.6-1,50.7-4.3c0.1-23.2,1.6-47,4.4-67c0.3,0.2,0.8,0.6,1.3,1l1.2-0.8l0.1,1.3c4.1-1.7,9.9,4.3,11.6,7.8l4.4,0.7
			l-1.2,5.1c1.2-0.8,2.7-3.5,3.8-3.6c0.5-0.2,1-0.5,1.5-0.6c-1.3,14.8-2.3,30.6-2.9,48.3C573,116.3,608.2,109.4,650.3,109L650.3,109
			z M659.2,179.4l1.2,10.2c-28-15.9-61.1-26-98.5-28.2c6.2-3,14.2-7.3,20.4-9.9C610.6,156.5,635.4,167,659.2,179.4L659.2,179.4z
			 M447.9,248.9c-6.9-1.4-12.7-2.9-18.5-5.1c23.7-13.8,46.1-28.3,61.5-49.3c5.6-0.8,9.4-0.8,14.4-1.4
			C491.4,216.1,471.5,233,447.9,248.9L447.9,248.9z M460.5,123.6c0.6-1.5,1.3-2.2,2.7-4.5l4.1-2.3l0.3-2.6l1,0.6
			c6.2,7.9,12.8,14.8,20.3,20C473.3,135.2,470.8,136,460.5,123.6L460.5,123.6z"/>
		
			<linearGradient id="SVGID_4_" gradientUnits="userSpaceOnUse" x1="297.9263" y1="-338.9419" x2="300.7706" y2="-341.7862" gradientTransform="matrix(72 0 0 72 -20998.3125 24667.25)">
			<stop  offset="0" style="stop-color:#ED1B30"/>
			<stop  offset="0.2588" style="stop-color:#911A1F"/>
			<stop  offset="0.3608" style="stop-color:#AD1F23"/>
			<stop  offset="0.4392" style="stop-color:#ED2224"/>
			<stop  offset="0.7804" style="stop-color:#ED2224"/>
			<stop  offset="0.902" style="stop-color:#871719"/>
			<stop  offset="1" style="stop-color:#80141B"/>
		</linearGradient>
		<path fill="url(#SVGID_4_)" d="M632.9,53.4l7.2,0.2l-0.6,4.2l-0.6,4c-28.6,15.6-53.7,30.8-73.8,50.6c-5.6,1.6-17.1,6.3-22,8.7
			C566.2,98.3,597.8,74.2,632.9,53.4L632.9,53.4z M650.3,109l0.6,24.8c-39.7-1.4-78.3,9.4-116.3,33.5c5.8,27.2,14.5,48,27.1,60.5
			c-7.2,6.9-15.1,12.1-23.6,15.7c-10.9-18.5-20.6-40.2-25.6-66.2c-26.1,10.1-53.8,6.5-80.2-0.7c4.4-2.2,9.4-5.2,11.2-7.1
			c3.4-2.9,6.4-8.3,5.8-13.2l2.3-0.9l-0.3-2.4l7.2-6.5c17.6,0,34.6-1,50.7-4.3c0.1-23.2,1.6-47,4.4-67c0.3,0.2,0.8,0.6,1.3,1
			l1.2-0.8l0.1,1.3c4.1-1.7,9.9,4.3,11.6,7.8l4.4,0.7l-1.2,5.1c1.2-0.8,2.7-3.5,3.8-3.6c0.5-0.2,1-0.5,1.5-0.6
			c-1.3,14.8-2.3,30.6-2.9,48.3C573,116.3,608.2,109.4,650.3,109L650.3,109z M659.2,179.4l1.2,10.2c-28-15.9-61.1-26-98.5-28.2
			c6.2-3,14.2-7.3,20.4-9.9C610.6,156.5,635.4,167,659.2,179.4L659.2,179.4z M447.9,248.9c-6.9-1.4-12.7-2.9-18.5-5.1
			c23.7-13.8,46.1-28.3,61.5-49.3c5.6-0.8,9.4-0.8,14.4-1.4C491.4,216.1,471.5,233,447.9,248.9L447.9,248.9z M460.5,123.6
			c0.6-1.5,1.3-2.2,2.7-4.5l4.1-2.3l0.3-2.6l1,0.6c6.2,7.9,12.8,14.8,20.3,20C473.3,135.2,470.8,136,460.5,123.6L460.5,123.6z"/>
	</g>
	
		<linearGradient id="SVGID_5_" gradientUnits="userSpaceOnUse" x1="299.8032" y1="-336.8755" x2="303.6382" y2="-340.7106" gradientTransform="matrix(72 0 0 72 -20998.3125 24667.25)">
		<stop  offset="0" style="stop-color:#FFFFFF"/>
		<stop  offset="7.843100e-002" style="stop-color:#FFFFFF"/>
		<stop  offset="0.3098" style="stop-color:#A9ADB4"/>
		<stop  offset="0.4784" style="stop-color:#FFFFFF"/>
		<stop  offset="0.6196" style="stop-color:#FFFFFF"/>
		<stop  offset="0.9216" style="stop-color:#A4A7AD"/>
		<stop  offset="1" style="stop-color:#9EA1A8"/>
	</linearGradient>
	<path fill="url(#SVGID_5_)" d="M780.8,99.7l3.5,17.5l3.3-2.3l1.2-1l0.6,5c0.2,1.9-0.7,3.8,0,5c0,0.1,0,0.2,0,0.3l-0.3,0.6l0.6,0.3
		c0.8,1.7,2.8,2.8,4.9,2.9l1.7,1l-0.6,0.7l2.6,0.9l0.2-0.2l2.4,1.5l-14,3.5l1.7,18.3l-9-12.5l-9.8,15.6l2.7-19.1l-13.8,1.2
		l12.3-11.3l-7.3-14.1l12.7,4.9L780.8,99.7z M690.5,165.5c2.1,2.7,4.2,5.4,6.4,8c2.2,2.7,4.4,5.4,6.6,8c0.9-4.4,2-8.8,3.1-13.3
		c0.7,3.3,1.5,6.4,2.3,9.7c0.8,3.3,1.7,6.4,2.7,9.7c2.1,0.6,4.2,1.2,6.3,1.7c2.1,0.6,4.2,1.2,6.3,1.7c-2.2,2.7-4.3,5.2-6.4,7.9
		c2.4,2.9,4.8,5.9,7.3,8.8c2.6,2.9,5.1,5.9,7.7,8.8c-2.6-1.6-5.1-3.1-7.7-4.8c-2.6-1.6-5-3.1-7.6-4.8c0.9,3.1,2,6.2,3,9.3
		c1,3.1,2.2,6.2,3.5,9.3c-2.3-3.3-4.7-6.6-7-9.9c-2.2-3.3-4.4-6.6-6.5-9.9c-2.6,1.9-5.1,3.6-7.7,5.5c-0.2-2.6-0.3-5-0.5-7.6
		c-0.1-2.6-0.1-5-0.2-7.6c-2.4-2-4.9-3.8-7.3-5.8c-2.4-2-4.8-3.8-7.2-5.8c2,0.1,3.8,0.4,5.8,0.5c2,0.1,3.8,0.3,5.8,0.5
		c-1.5-3.4-3.1-6.6-4.5-10C693.1,172.1,691.9,168.8,690.5,165.5L690.5,165.5z M812,318.5c0.7,2,1.5,3.8,2.2,5.8
		c0.7,1.9,1.5,3.8,2.2,5.7c2.4-1.7,4.9-3.5,7.3-5.4c2.4-1.9,4.9-3.8,7.3-5.9c-1.5,2.6-3,5.1-4.5,7.7c-1.5,2.6-3,5-4.5,7.4
		c2.3,0.1,4.7,0.3,6.9,0.3c2.3,0,4.7-0.1,6.9-0.2c-2.7,1.5-5.2,3-7.9,4.4s-5.2,2.6-7.9,3.7c0.5,2.1,0.8,4.1,1.3,6.2
		c0.5,2.1,0.8,4.1,1.3,6.2c-3.6-2-7.1-4-10.7-6.2c-1.7,2.2-3.6,4.3-5.4,6.5c-1.7,2.1-3.6,4.2-5.4,6.2c0.5-2.3,0.8-4.7,1.3-6.9
		c0.5-2.3,0.8-4.7,1.3-7c-2.7,0.5-5.2,0.8-7.9,1c-2.7,0.2-5.2,0.5-7.9,0.6c2.3-1.4,4.7-2.7,6.9-4.2c2.3-1.4,4.7-3,6.9-4.5
		c-3-3.1-6.1-6.3-9.1-9.5c2.4,0.5,4.9,0.9,7.3,1.3c2.4,0.3,4.9,0.6,7.3,0.8c0.7-2.3,1.5-4.7,2.2-7.1
		C810.5,323.3,811.3,320.8,812,318.5L812,318.5z M827,221.7l0.6,12.7l-9.1,8.8l10.4-2.6l0.6,11.9l4.9-14.7l10.4-2.3l-6.9-6.1
		l3.3-12.8l-7.9,8.7L827,221.7z M552.4,336.2l2.8-11.8c-12.5,4.7-24.7,5.5-36.8,5.7c10.4-6.8,20.9-13.5,32.1-19.4
		c-7.4-6.1-13.5-11.2-22.2-16.4c8.4-1.5,21.9-2.3,33.8-1.3c2.3-9,2.2-20.1,1.9-31.5c5.6,5.7,11.2,11.8,16.4,21.2
		c7.4-7.9,15.5-17.5,23.5-26.9c-2.7,13.2-5.4,26.2-10.7,36.5c10.1,1.5,17.9,4.2,24,6.8c-7.9,5.7-17.1,10-28,14l1.5,8.8
		c-5.4,0.6-12,1.3-16.4,3.4c-0.8,0.3-1.5,0.7-2.2,1.2l-0.2-0.1l-3.3,2.6c-0.2,0.1-0.3,0.2-0.6,0.5l-13.5,6.8L552.4,336.2
		L552.4,336.2z"/>
	<path fill="#010101" d="M261.4,475.5c-0.6,1-1,2.1-1.6,3c-0.6,0.9-0.9,1.7-1.4,2.6l-6.4,11.2h-8.7l16.6-28.6h12l-3.7,10.6
		c-0.1,0.2-0.2,0.6-0.3,0.9c-0.1,0.3-0.2,0.7-0.5,1.3c-0.1,0.5-0.3,0.8-0.5,1.3c-0.2,0.5-0.4,0.9-0.6,1.4c0.3-0.5,0.7-0.9,1.2-1.5
		c0.5-0.6,0.9-1.3,1.6-2.1l9.7-11.9H291l-16.6,28.6h-8.8l6.9-11.9c0.1-0.1,0.3-0.6,0.7-1.2c0.3-0.6,1-1.7,2.1-3.5l-0.8,1
		c-1.4,1.6-2.3,2.8-2.9,3.5l-10.2,11.9h-5l3.5-11.3c0.1-0.5,0.3-1,0.6-1.9C260.4,478.3,260.9,477.1,261.4,475.5L261.4,475.5z"/>
	<path fill="#010101" d="M298.7,476c-0.7,0-1.3,0.1-1.7,0.3c-0.6,0.2-1,0.7-1.7,1.3c-0.6,0.6-1.2,1.4-1.7,2.3
		c-0.6,0.9-1,1.9-1.4,2.7c-0.3,0.9-0.5,1.6-0.2,2.1c0.2,0.5,0.7,0.7,1.5,0.7c0.7,0,1.3-0.1,1.7-0.5c0.5-0.3,1.2-0.8,1.7-1.5
		c0.6-0.6,1-1.4,1.6-2.3c0.6-0.9,1-1.7,1.3-2.6c0.3-0.9,0.3-1.6,0.2-2C300,476.2,299.5,476,298.7,476L298.7,476z M283.5,483.4
		c0.2-0.7,0.7-1.6,1.2-2.6c0.5-0.9,1-2,1.7-3c1-1.7,2.1-3.3,3-4.4c0.9-1.2,2-2.2,3-3.1c1.3-1.2,2.8-2,4.4-2.4
		c1.6-0.5,3.6-0.7,6.1-0.7c3.8,0,6.4,0.7,7.4,2c1,1.3,1,3.5-0.1,6.6c-0.2,0.7-0.6,1.5-1,2.4c-0.5,0.9-0.9,1.9-1.5,2.9
		c-1,1.9-2.1,3.4-3.1,4.7c-1,1.3-2.1,2.6-3.1,3.5c-1.5,1.4-3.1,2.3-4.8,2.9c-1.7,0.6-3.8,0.9-6.3,0.9c-3.7,0-6.2-0.7-7.1-2.2
		C282,489.2,282.2,486.8,283.5,483.4L283.5,483.4z"/>
	<path id="_x31_2" fill="#010101" d="M320.6,491.7c-1.7,0.3-3.4,0.7-4.9,0.8c-1.5,0.2-3,0.2-4.3,0.2c-1.7,0-2.9-0.3-3.4-1
		c-0.5-0.7-0.5-1.9,0.2-3.4c0.1-0.3,0.3-0.7,0.5-1c0.1-0.3,0.3-0.7,0.5-0.9l5.4-9.3h-2.9l2.7-4.7c3.1-2.2,5.6-4,7.3-5.2
		c1.7-1.3,3.3-2.6,4.5-3.7h5.1l-2.6,4.5h7.1l-5.2,9.1h-7.1l-3.3,5.7c-0.1,0.2-0.2,0.3-0.3,0.6c-0.1,0.2-0.2,0.5-0.2,0.7
		c-0.2,0.6-0.2,0.9,0,1.2c0.2,0.2,0.6,0.3,1.3,0.3c0.5,0,1,0,1.9-0.2c0.8-0.1,1.7-0.2,2.9-0.5L320.6,491.7L320.6,491.7z"/>
	<path fill="#010101" d="M344.8,476c-0.7,0-1.3,0.1-1.7,0.3c-0.6,0.2-1,0.7-1.7,1.3c-0.6,0.6-1.2,1.4-1.7,2.3
		c-0.6,0.9-1,1.9-1.4,2.7c-0.3,0.9-0.5,1.6-0.2,2.1c0.2,0.5,0.7,0.7,1.5,0.7c0.7,0,1.3-0.1,1.7-0.5c0.6-0.2,1.2-0.8,1.7-1.5
		c0.6-0.6,1-1.4,1.6-2.3c0.6-0.9,1-1.7,1.3-2.6c0.3-0.9,0.3-1.6,0.2-2C346.1,476.2,345.5,476,344.8,476L344.8,476z M329.4,483.4
		c0.2-0.7,0.7-1.6,1.2-2.6c0.5-0.9,1-2,1.7-3c1-1.7,2.1-3.3,3-4.4c0.9-1.2,2-2.2,3-3.1c1.3-1.2,2.8-2,4.4-2.4
		c1.6-0.5,3.6-0.7,6.1-0.7c3.8,0,6.4,0.7,7.4,2c1,1.3,1,3.5-0.1,6.6c-0.2,0.7-0.6,1.5-1,2.4c-0.5,0.9-0.9,1.9-1.5,2.9
		c-1,1.9-2.1,3.4-3.1,4.7c-1,1.3-2.1,2.6-3.1,3.5c-1.5,1.4-3.1,2.3-4.8,2.9c-1.7,0.6-3.8,0.9-6.3,0.9c-3.7,0-6.2-0.7-7.1-2.2
		C328,489.2,328.2,486.8,329.4,483.4L329.4,483.4z"/>
	<path id="_x31_234" fill="#010101" d="M350.5,492.1l14.1-24.2h8.3c-0.6,0.9-1.2,2-1.7,2.9c-0.6,1-1.3,2.1-2,3.4h0.1
		c1.6-2.4,3.3-4.2,4.8-5.2c1.5-1.2,3-1.7,4.7-1.7c0.5,0,0.9,0,1.3,0.1c0.5,0.1,0.8,0.2,1.3,0.5l-7.4,12.9c-0.7-0.2-1.3-0.3-1.9-0.5
		c-0.6-0.1-1.2-0.1-1.7-0.1c-1.4,0-2.7,0.5-3.8,1.3c-1,0.8-2.3,2.4-3.6,4.7l-3.5,5.9h-8.7V492.1z"/>
	<path fill="#010101" d="M383.7,492.1l16.6-28.6h17.1c1.7,0,2.8,0.6,3.3,1.6c0.5,1,0.2,2.7-0.6,4.9c-1.3,3.4-2.9,5.9-4.9,7.7
		c-2,1.7-4.2,2.6-6.6,2.6h-0.5l1.6,12h-10.8l-0.4-6.6c0-0.5,0-0.9,0-1.4s0-1.2,0.1-1.9l-0.2,0.5c-1,1.9-1.5,2.8-1.6,3l-3.7,6.4h-9.4
		V492.1z M401.3,477.6h3c1.3,0,2.4-0.3,3.3-0.9s1.5-1.6,2-2.9c0.2-0.7,0.3-1.3,0.1-1.6c-0.2-0.3-0.6-0.5-1.4-0.5h-3.6L401.3,477.6
		L401.3,477.6z"/>
	<path fill="#010101" d="M431,476.5c-0.7,0-1.3,0.1-1.9,0.5c-0.6,0.3-1.2,0.8-1.9,1.6c-0.5,0.6-0.9,1.3-1.4,2c-0.5,0.7-0.8,1.4-1,2
		c-0.2,0.7-0.3,1.3-0.1,1.7c0.2,0.5,0.7,0.6,1.4,0.6c1.2,0,2.2-0.6,3.4-1.7s2.1-2.7,2.7-4.4c0.2-0.7,0.2-1.3,0-1.7
		C432.1,476.8,431.6,476.5,431,476.5z M447.3,467.9l-14.1,24.2h-8.6c0.6-0.8,1-1.7,1.6-2.7c0.6-0.9,1-1.9,1.6-2.8
		c-1.7,2.2-3.5,3.7-5,4.8c-1.6,0.9-3.3,1.5-5.1,1.5c-1.9,0-3-0.6-3.6-1.9c-0.5-1.2-0.3-3,0.6-5.4c0.7-1.7,1.5-3.6,2.7-5.6
		c1.2-2.1,2.3-3.8,3.5-5.6c2-2.6,3.7-4.4,5.5-5.6c1.6-1.2,3.5-1.6,5.5-1.6c1.9,0,3.1,0.5,3.7,1.3c0.6,0.8,0.7,2.2,0.2,4.1
		c0.2-0.5,0.6-1.2,1.2-2.2c0.6-1,1-1.9,1.4-2.4h9V467.9z"/>
	<path id="_x31_234567" fill="#010101" d="M456.5,491.4c-2.1,0.5-4,0.8-5.6,1c-1.6,0.2-3.1,0.4-4.5,0.4c-2.8,0-4.5-0.6-5.4-1.7
		s-0.7-3.1,0.3-5.7c0.2-0.6,0.6-1.3,0.8-2c0.3-0.7,0.7-1.4,1.2-2.2c0.9-1.7,2-3.4,2.9-4.9c0.9-1.5,1.9-2.7,2.8-3.6
		c0.8-0.9,1.6-1.7,2.3-2.3c0.7-0.6,1.5-1.2,2.2-1.5c0.9-0.5,2-0.9,3.1-1.2c1.3-0.2,2.7-0.3,4.2-0.3c1.7,0,3.4,0.1,4.8,0.3
		c1.5,0.2,2.8,0.6,4.1,1l-5,8.6c-0.9-0.1-1.7-0.3-2.6-0.3c-0.8-0.1-1.5-0.1-2.2-0.1c-1,0-2.1,0.1-2.9,0.2c-0.8,0.2-1.5,0.5-2.1,0.8
		c-0.6,0.5-1.3,1-2,2c-0.7,0.9-1.2,1.7-1.5,2.6c-0.3,0.8-0.2,1.5,0.1,1.9c0.3,0.3,1.3,0.6,2.6,0.6c0.9,0,2-0.1,3.1-0.2
		c1.2-0.1,2.3-0.3,3.5-0.7L456.5,491.4L456.5,491.4z"/>
	<path fill="#010101" d="M485.4,461.1c0.3,0,0.7,0.1,0.7,0.3c0.1,0.2,0.1,0.6-0.1,0.9c-0.1,0.3-0.3,0.8-0.7,1.4
		c-0.4,0.6-0.6,1-0.9,1.5c-0.3,0.5-0.7,0.8-1.2,1c-0.3,0.2-0.8,0.3-1.4,0.3h-5.7c-0.3,0-0.7-0.1-0.8-0.3c-0.1-0.2-0.1-0.6,0.1-0.9
		c0.1-0.3,0.3-0.8,0.7-1.4c0.3-0.6,0.6-1,0.9-1.5c0.3-0.5,0.7-0.8,1.2-1c0.3-0.2,0.8-0.3,1.4-0.3H485.4L485.4,461.1z M460,492.1
		l14-24.1c0.7,0.1,1.4,0.4,2,0.4c0.7,0.1,1.3,0.1,2,0.1c0.7,0,1.4,0,2.2-0.1c0.8-0.1,1.7-0.2,2.7-0.4l-14,24.1H460z"/>
	<path id="_x31_23456789" fill="#010101" d="M473.1,492.1l14.1-24.2h8.5c-0.6,0.9-1,2-1.6,2.9s-1.2,2-1.7,2.9c1.9-2.3,3.6-4,5.2-5
		c1.6-0.9,3.4-1.5,5.4-1.5c1.7,0,2.9,0.5,3.4,1.4c0.6,0.9,0.5,2.3-0.2,4.2c-0.2,0.6-0.5,1.2-0.8,1.9c-0.3,0.7-0.8,1.5-1.4,2.6
		l-8.5,14.7h-8.8l5.7-9.9c0.2-0.5,0.5-0.8,0.6-1c0.1-0.3,0.3-0.6,0.3-0.8c0.2-0.6,0.2-1.2,0.1-1.5s-0.5-0.6-1-0.6
		c-0.8,0-1.5,0.3-2.2,0.9c-0.7,0.6-1.4,1.5-2.2,2.8l-5.9,10.2h-8.7V492.1z"/>
	<path fill="#010101" d="M519.7,475.6c-0.5,0-1,0.1-1.5,0.3c-0.5,0.2-0.9,0.5-1.3,0.9c-0.6,0.6-1.2,1.4-1.7,2.2
		c-0.6,0.9-1,1.7-1.3,2.4c-0.2,0.7-0.2,1.3-0.1,1.6c0.2,0.4,0.7,0.6,1.3,0.6c1,0,2.2-0.6,3.3-1.6c1-1,2-2.6,2.7-4.3
		c0.2-0.7,0.2-1.2,0-1.5C520.8,475.8,520.3,475.6,519.7,475.6z M535.9,467.9l-12.5,21.3c-0.9,1.6-1.9,3-2.7,4s-1.7,1.7-2.8,2.4
		c-1.3,0.9-2.8,1.5-4.7,2c-1.7,0.5-3.7,0.7-5.9,0.7c-1.6,0-3.1-0.1-4.8-0.5c-1.6-0.3-3.1-0.7-4.7-1.3l3-5.4c1,0.5,2,0.7,2.9,0.9
		c0.9,0.2,1.9,0.3,2.8,0.3c2.2,0,4.1-0.6,5.6-1.6c1.5-1,2.8-2.9,4.1-5.4c-1.4,1.5-2.8,2.6-4.1,3.1c-1.3,0.6-2.7,0.9-4.2,0.9
		c-2.2,0-3.7-0.6-4.3-1.7c-0.7-1.2-0.6-2.9,0.3-5.4c0.5-1.4,1.3-2.9,2.3-4.7c1-1.7,2.1-3.3,3.3-4.8c1.7-2.2,3.4-3.7,5-4.7
		c1.5-0.9,3.4-1.3,5.6-1.3c1.9,0,3,0.5,3.6,1.3c0.6,0.8,0.5,2.3-0.1,4.3c0.6-0.9,1-1.9,1.5-2.7c0.5-0.8,0.9-1.6,1.3-2.3h9.3V467.9z"
		/>
	<path fill="#010101" d="M537.3,492.1l23.7-28.6h15.4l-10.9,28.6h-9l1.6-4.2h-7.2l-3.4,4.2H537.3L537.3,492.1z M556.3,480.8h4.8
		l4.1-10.6L556.3,480.8L556.3,480.8z"/>
	<path id="_x31_23456789101112" fill="#010101" d="M581.9,467.9h8.8l-8.8,15.1c0,0.1-0.1,0.1-0.1,0.2c-0.1,0.2-0.2,0.5-0.2,0.6
		c-0.1,0.5-0.1,0.8,0.1,1s0.6,0.3,1,0.3c0.7,0,1.3-0.2,1.7-0.6c0.5-0.3,0.9-0.9,1.4-1.7l8.7-15.1h8.8l-8.8,15.4
		c-1,1.9-2,3.1-2.7,4.1c-0.7,0.9-1.5,1.6-2.3,2.3c-1.4,1-3,2-4.9,2.6c-1.9,0.6-3.8,0.8-6.1,0.8c-3.3,0-5.5-0.6-6.6-1.6
		c-1.2-1-1.3-2.7-0.5-5c0.1-0.3,0.3-0.8,0.6-1.3c0.2-0.5,0.6-1,0.9-1.6L581.9,467.9L581.9,467.9z"/>
	<path id="_x31_2345678910111213" fill="#010101" d="M593.9,491.7l3.7-6.4c1.3,0.2,2.3,0.5,3.4,0.6c1,0.1,1.9,0.2,2.7,0.2
		c1.6,0,2.8-0.1,3.5-0.3c0.7-0.2,1.2-0.7,1.4-1.3c0.1-0.3,0.1-0.6,0-0.7c-0.1-0.1-0.3-0.2-0.6-0.2c-0.1,0-0.6,0-1.4,0.1
		c-0.8,0-1.6,0.1-2.3,0.1c-1.7,0-2.9-0.5-3.4-1.3c-0.5-0.8-0.5-2.2,0.2-4c0.6-1.4,1.3-2.9,2.3-4.3c0.9-1.5,2-2.7,3-3.6
		c1.2-1,2.6-1.9,4.2-2.3c1.6-0.5,3.6-0.7,6.2-0.7c1.5,0,3.1,0.1,4.9,0.2c1.7,0.1,3.5,0.5,5.2,0.8l-4.1,7.1c-1.3-0.2-2.4-0.5-3.4-0.6
		c-1-0.1-1.9-0.2-2.7-0.2c-1.6,0-2.8,0.1-3.5,0.3c-0.7,0.2-1.3,0.7-1.5,1.3c-0.1,0.3-0.1,0.7,0,0.8c0.1,0.1,0.5,0.2,1,0.2
		c0.2,0,0.7,0,1.6-0.1c0.8,0,1.5-0.1,2.1-0.1c1.6,0,2.7,0.4,3,1.2c0.5,0.8,0.2,2.1-0.3,4c-0.6,1.4-1.3,2.8-2.1,4.2
		c-0.9,1.3-1.9,2.3-2.8,3.3c-1.3,1-2.6,1.7-4.1,2.2c-1.5,0.5-3.5,0.7-5.8,0.7c-1.6,0-3.3-0.1-5-0.2
		C597.5,492.3,595.6,492,593.9,491.7L593.9,491.7z"/>
	<path id="_x31_234567891011121314" fill="#010101" d="M633.6,491.7c-1.7,0.3-3.4,0.7-5,0.8c-1.6,0.1-3,0.2-4.3,0.2
		c-1.7,0-2.9-0.3-3.4-1c-0.5-0.7-0.5-1.9,0.2-3.4c0.1-0.3,0.3-0.7,0.5-1c0.1-0.3,0.3-0.7,0.5-0.9l5.4-9.3h-2.9l2.7-4.7
		c3.1-2.2,5.6-4,7.3-5.2c1.7-1.3,3.3-2.6,4.5-3.7h5.1l-2.6,4.5h7.1l-5.2,9.1h-7.1l-3.3,5.7c-0.1,0.2-0.2,0.3-0.3,0.6
		c-0.1,0.2-0.2,0.5-0.2,0.7c-0.2,0.6-0.2,0.9,0,1.2c0.2,0.2,0.6,0.3,1.3,0.3c0.5,0,1,0,1.9-0.2c0.8-0.1,1.7-0.2,2.9-0.5L633.6,491.7
		L633.6,491.7z"/>
	<path id="_x31_23456789101112131415" fill="#010101" d="M637.7,492.1l14.1-24.2h8.3c-0.6,0.9-1.2,2-1.7,2.9c-0.6,1-1.3,2.1-2,3.4
		h0.1c1.6-2.4,3.3-4.2,4.8-5.2c1.5-1.2,3-1.7,4.7-1.7c0.5,0,0.9,0,1.3,0.1c0.5,0.1,0.8,0.2,1.3,0.5l-7.4,12.9
		c-0.7-0.2-1.3-0.3-1.9-0.5c-0.6-0.1-1.2-0.1-1.7-0.1c-1.4,0-2.7,0.5-3.8,1.3c-1,0.8-2.3,2.4-3.6,4.7l-3.5,5.9h-8.7V492.1z"/>
	<path fill="#010101" d="M677.4,476.5c-0.7,0-1.3,0.1-1.9,0.5s-1.2,0.8-1.9,1.6c-0.5,0.6-0.9,1.3-1.4,2c-0.5,0.8-0.8,1.4-1,2
		c-0.2,0.7-0.3,1.3-0.1,1.7c0.2,0.5,0.7,0.6,1.4,0.6c1.2,0,2.2-0.6,3.4-1.7c1.2-1.2,2.1-2.7,2.7-4.4c0.2-0.7,0.2-1.3,0-1.7
		C678.6,476.8,678.1,476.5,677.4,476.5L677.4,476.5z M693.8,467.9l-14.1,24.2h-8.6c0.6-0.8,1-1.7,1.6-2.7c0.6-0.9,1-1.9,1.6-2.8
		c-1.7,2.2-3.5,3.7-5,4.8c-1.6,0.9-3.3,1.5-5.1,1.5s-3-0.6-3.6-1.9c-0.5-1.2-0.4-3,0.6-5.4c0.7-1.7,1.5-3.6,2.7-5.6
		c1.2-2.1,2.3-3.8,3.5-5.6c2-2.6,3.7-4.4,5.5-5.6c1.6-1.2,3.5-1.6,5.5-1.6c1.9,0,3.1,0.5,3.7,1.3c0.6,0.8,0.7,2.2,0.2,4.1
		c0.2-0.5,0.6-1.2,1.2-2.2c0.6-1,1-1.9,1.4-2.4h9V467.9z"/>
	<polygon id="_x31_234567891011121314151617" fill="#010101" points="692.9,492.1 684.1,492.1 701.5,462.1 710.4,462.1 	"/>
	<path fill="#010101" d="M722.6,461.1c0.3,0,0.7,0.1,0.7,0.3s0.1,0.6-0.1,0.9c-0.1,0.3-0.3,0.8-0.7,1.4c-0.3,0.6-0.6,1-0.9,1.5
		c-0.3,0.5-0.7,0.8-1.2,1c-0.3,0.2-0.8,0.3-1.4,0.3h-5.7c-0.3,0-0.7-0.1-0.8-0.3c-0.1-0.2-0.1-0.6,0.1-0.9c0.1-0.3,0.3-0.8,0.7-1.4
		c0.3-0.6,0.6-1,0.9-1.5c0.3-0.5,0.7-0.8,1.2-1c0.4-0.2,0.8-0.3,1.4-0.3H722.6L722.6,461.1z M697.2,492.1l14-24.1
		c0.7,0.1,1.4,0.4,2,0.4c0.7,0.1,1.3,0.1,2,0.1c0.7,0,1.4,0,2.2-0.1c0.8-0.1,1.7-0.2,2.7-0.4l-14,24.1H697.2L697.2,492.1z"/>
	<path fill="#010101" d="M730.1,476.5c-0.7,0-1.3,0.1-1.9,0.5c-0.6,0.3-1.2,0.8-1.9,1.6c-0.5,0.6-0.9,1.3-1.4,2
		c-0.5,0.7-0.8,1.4-1,2c-0.2,0.7-0.3,1.3-0.1,1.7c0.2,0.5,0.7,0.6,1.4,0.6c1.2,0,2.2-0.6,3.4-1.7s2.1-2.7,2.7-4.4
		c0.2-0.7,0.2-1.3,0-1.7C731.2,476.8,730.7,476.5,730.1,476.5L730.1,476.5z M746.4,467.9l-14.1,24.2h-8.6c0.6-0.8,1-1.7,1.6-2.7
		s1-1.9,1.6-2.8c-1.7,2.2-3.5,3.7-5,4.8c-1.6,0.9-3.3,1.5-5.1,1.5c-1.9,0-3-0.6-3.6-1.9c-0.5-1.2-0.3-3,0.6-5.4
		c0.7-1.7,1.5-3.6,2.7-5.6c1.2-2.1,2.3-3.8,3.5-5.6c2-2.6,3.7-4.4,5.5-5.6c1.6-1.2,3.5-1.6,5.5-1.6c1.9,0,3.1,0.5,3.7,1.3
		c0.6,0.8,0.7,2.2,0.2,4.1c0.2-0.5,0.6-1.2,1.2-2.2c0.6-1,1-1.9,1.4-2.4h9V467.9z"/>
</g>
</svg>
