<?xml version="1.0" encoding="utf-8"?>
<!-- Generator: Adobe Illustrator 16.0.0, SVG Export Plug-In . SVG Version: 6.00 Build 0)  -->
<!DOCTYPE svg PUBLIC "-//W3C//DTD SVG 1.1//EN" "http://www.w3.org/Graphics/SVG/1.1/DTD/svg11.dtd">
<svg version="1.1" id="Layer_1" xmlns="http://www.w3.org/2000/svg" xmlns:xlink="http://www.w3.org/1999/xlink" x="0px" y="0px"
	 width="512px" height="512px" viewBox="0 0 512 512" enable-background="new 0 0 512 512" xml:space="preserve">
<linearGradient id="SVGID_1_" gradientUnits="userSpaceOnUse" x1="-41.2529" y1="651.915" x2="-47.3634" y2="645.8046" gradientTransform="matrix(72 0 0 -72 3478 46978.625)">
	<stop  offset="0" style="stop-color:#22366C"/>
	<stop  offset="0.149" style="stop-color:#22366C"/>
	<stop  offset="0.3294" style="stop-color:#22366C"/>
	<stop  offset="0.4392" style="stop-color:#3451A3"/>
	<stop  offset="0.5294" style="stop-color:#22366C"/>
	<stop  offset="0.6392" style="stop-color:#22366C"/>
	<stop  offset="0.8196" style="stop-color:#A7BDE2"/>
	<stop  offset="1" style="stop-color:#D8E2F3"/>
</linearGradient>
<path fill="url(#SVGID_1_)" d="M353.5,26.8c-6.2-1.7-7.6,16.9-9.6,21l-1.4,5.5l3.2-0.4l-2.5,5.1c0.2,1.6,0.9,2.6,0.6,4.7
	c-0.4,1.1-1.7,3.4-1.4,6.1c0.3,2.1,1.4,2.5,1.6,4.1s-0.3,2.2,0.1,4.8l1.3,6.2l-1.7,7.7c-0.6,3.8,0.2,5.9-1.3,10.3
	c-0.6,3.3-2.2,4-2.9,6.3l-1.1,3.9c-1.2,3.4-5.6,6.1-8.9,5.9c-1.1-0.4-4.5-2.1-5.7-2.5c-2.8-1.2-4.9-1-5.9-4.6l1.4-1.3l-2.6,0.3
	c1.3-2.3,1.8-2.9,4.4-3.2l3.3-3.1l-0.1-1.1c-4.9-1-7.3,1.5-7.7,6.3l-11-2.3l-5.4-4.7l-9-3.1c0.8-2.2,0.8-2.2-0.5-4.2l-0.5,0.1
	l-0.9,1.2l-0.3-2.1l-1.3,2.3l-2.1,0.3l0.3-2.2l-1.9,1.8l-7.6-5.4l-0.7-1c-1.6,0.2-2.1,0.3-3.3-0.6c-3-2.8,1.1-8.2,3.6-9.6l1.7-11.2
	c2.9,0.1,3.9-2.2,6-4.2c-0.8-2-1.3-2,0.1-3.8l-0.7-1.5l3.8-3.7l-2.5-2.9l-2.5,1.4c-2.3-6.5,0.1-5.2-6.5-0.8l1.6,0.3l-0.9,1.2
	l2.2,0.3c-0.8,2.2-1.3,2.3-3.3,3.1c0.3-1.6,0.8-2.2-0.4-3.2l0.3-1.6l-3.9,2.6l-0.6-0.5l2.8-3c0,0,0.2-0.7,0-0.8
	c-0.3-0.3-1.2-0.1-1.2-0.1c0.3-1-7.9,7-9.9,2.3l-1.5,0.7l-1.3-1.4c-5.5,2.8-2.6,0.9-7.3,1.5c-1.3-1.4-1.8-1.4-3.9-1.1l0.9-1.2
	l-0.1-0.5l-6.3,0.8c0.4-1.1,0.9-1.2-0.3-2.1l0.8-1.7c-2,1.3-1.8,2.4-2.3,3c-1.6,0.2-3.6-2.8-4.7-3.7l-2.9,2.5l-1.4-6.8
	c-1.4,1.3-1.4,1.3-1.7,3.4l-1.7-0.8l-0.9,1.2c-2.8-1.2-4.3,0-5.6,2.3c1.7,0.8,3.4,1.7,4.2,3.2l0.8-1.7l2.7,0.2l-0.7-1
	c1.7,0.8,1.7,0.8,2,3l1.6,0.3c0.3,2.1,0.6,4.7-2.7,4.1l-0.3,1.6l-3.1,0.9l-3.7,0.5l-3.8-0.1l-1.3-2l-0.8,2.2l-1.6-0.3l0.3-1.6
	c-2,0.8-1.9,1.8-1.6,4l-1.9,1.8l-2.8-0.7c-0.4,1.1-0.3,2.2-1.9,1.8c-0.8,2.2-0.5,4.3-2.5,5.1l-1.8,2.9l0.1,1.1l3.3,0.6
	c-1.9,1.8-1.8,2.4-4.5,2.7l-0.8,6.5l-3,1.5l-1,4.9l3.4,1.2l1.5,3l-2.2-0.8c-0.8,1.7-1.4,1.3-3.1,0.9l-0.3,1.6
	c-2.2-0.8-6.7-1.8-9.1-0.4c-1.1,0.1-2.4,2.4-3.3,3.1l1-4.4l-3.8-0.6c-1.5-3-6.4-8.3-10-6.7l-0.1-1.1l-1,0.7
	c-1.8-1.9-2.9-1.8-4.9-0.4l-0.4,4.9l-1.8-1.9l1.5-0.7l-0.1-1.1l-1.6-0.3l-0.4,1.1l0.6,0.5l-2.9,2.5l-0.9-3.1l-2.1,0.3l-0.2,2.7
	l2.2,0.8l-1.6,0.2l-0.5,0.6l-0.4,1.1l0.3,2.6l-3.2-4.4l-2.5,5.7l-1.8-1.9l-0.2,2.7l-0.8-2c-2.3,3-0.1,3.2,0.4,7.4l-3.4-1.2l-1.4,1.8
	l1.6-0.2l-0.6,3.3l-2.6,0.3l-0.1-1.1l-2.1,0.3l-0.3,1.6l-2.1,0.3c1.7,0.9,1.7,0.9,3.2-0.4c0.7,5.8-1.4,1.3,1.1,8.9l2-1.3l-0.3,2.2
	c-2.1,0.3-2,0.8-2.3,3l-2.3-1.3c-1.6,0.2-1.6,0.2-3.3-0.6l-1,0.7l-0.1-1.1l-3.6,1l-1.7-0.9l-0.3,2.2l3.4,1.2c-0.9,1.2-2.8,3-1.1,3.9
	l-0.7-1l5.9,4.6l-2.6,0.3l0.6,4.7l-0.7-1.5l-0.3,1.6c-1.9-2.4-4.4-4.8-5.3-7.9l-2.2-0.3l3.7-4.2l-4.2,0.5c-1.8,2.9-2.3,3-2.9,6.3
	l-1.4,1.8c-7,4.1-2.1,8.8-2.5,14.2l2-0.8l0.8,2l-6.2,5.6l0.3,2.1l-2,0.8c0.5,4.2-2.1,8.8-5,11.3c-2.4,2.4-11.4,7.3-15,8.3
	c-2.6,0.9-3.8-0.6-5.8,0.7c-2,0.8-2.3,3-3.7,4.2l-9.1,3.8l-0.7,2.8c-3.6,1-3.9,3.2-6.8,0.9l-4.5,2.2l1.2-2.8l-1.8-1.4l-0.6,3.8
	l-2.4-1.8l0.1,0.5l1.1-0.1l-2,1.3l1.6,0.3c-2.2,4-2.9,2.5-5.6,6.1c-1.9,1.8-4,6.4-6.6,7.3l-6.8,5.7l-3.6,9.6
	c-2.4-6.1-1.9-2.4-2.2-8.8c-1,0.7-1.4,1.3-2.4,2.4c-0.4,1.1-1.6,8.8-1.4,9.8c0.3,2.1,1.8,1.9,2.2,4.5l0.7,5.8
	c-0.3,2.2-2.5,5.1-1.3,10.9c0.4,3.2,1.5,3,3.4,5.4l2,3.5l5,5.2c1.2,0.9,3,2.3,3.7,3.8c0.7,1.5,1.1,4.7,0.8,6.3
	c-1.8-1.9-2.5-2.9-3.4-5.4l-1.2,3.4c-1.7-4.6-0.4-3.2-5.3-7.9c-1.2,3.4,0.1,5.3,2.6,7.7c3,2.3,5.6,2,2.9,6l-4.6-6.9l-2,0.8l-4-5.9
	l-1.1,0.1c-0.1,3.2,1.6,4.1,3.5,6.5l3.8,4.3l4.1,2.7c1.8,1.4,3.1,3.3,4.9,4.7c5,5.2,2.5,6.6,5,10c1.3,1.4,3.6,2.8,5.3,4.1
	c1.3,2,1.5,3,2.7,4.5c1.3,1.4,2.9,1.8,4.4,5.3l2.1,7.8c0.7,1,3.6,7,4.2,8l5.6,6.2c2.6,3.4,5.5,5.7,4.5,10.1c2.6,3.4,1,3.6,1.4,6.8
	c1,3.6,3.3,4.9,1.1,8.9c-0.4,1.1-0.8,1.7-1.9,1.8c-0.5,0.1-2.2-0.3-2.7-0.2c0.6,4.7,0.4,7.4,4,10.7c3.9-3.2,7.1,1.2,10.5,2.4
	l6.6,1.3c2.2,0.3,2.6-0.9,5.8-0.7c1.4-1.3,2.6-0.9,4.7-0.6l4.1-1.6l3.9-2.6l-1.3-1.4c2.4-2.4,3.4-2.6,4.1-5.9c4.9,0.4,3.7-0.5,7.2-2
	l-1.7-0.8c3.3-7.4,5.2-5,9.3-6.5l4-2.1c4.7-1.1,4.7-0.6,8.4-1.1l3.1-0.9c-0.8,1.7-0.8,2.2,0.9,3.1l-1.3-2l0.5-0.1l0.7,1l2.4-2.4
	c4.3,0.5,5.1-2.3,8,0l1.9-1.8c6.3-0.8,4.9-7.6,7.1-11.6c1.8-2.4,4-2.1,6-3.4l11.2-8.9c2-1.3,3.7-0.5,5.8-0.7l7.8-2.1l11.6-5.8
	c2-1.3,3.4-2.6,5.5-3.4c4.5-2.2,12-2.6,16.7-3.2c3.2-0.4,4.1-1.6,5.7-1.3c3.7-0.5,9.1,4.2,11.3,4.4c0.6,0.5,2.2,0.3,2.7,0.2
	c2.4-2.4,4.3,0.5,7.1,1.2c1.6,0.3,3.7-0.5,5.3-0.7l-2.3,3l4-2.1l0.5,3.7c2.6-0.9,3.1-0.9,4.4,1l-2,0.8l0.3,2.6l1.1-0.1l-0.3,1.6
	l1.8,1.9l4.2-0.5c0.9,2.6,1.4,2.5,1.2,5.2c4.6,2.6,5.5,5.2,6.6,9.8l-1.7-0.8l-0.7,2.8l1.5-0.7l3.9,5.4l2.4-1.9l0.7,1.5l1.1-0.1
	l0.4-5.4l0.2-2.7l4.7-4.9l6.4-4.6l3.7-8.5l2.2,0.3l0.6-3.3c-0.3,2.2,0.3,2.6,1.7,4.6c-4,2.1-1.2,3.4-2,5.6c-0.3,1.6-1.8,2.9-3.1,5.2
	c-0.7,2.8,0.3,2.6-1.8,7.2l1.5-0.7l-0.4,5.4c-4.4-1-4.7,0.6-5.8,5l5.7-1.8l3.2-0.4l1.2-3.4l2.1-8.8c2.6,3.9,6.5,9.3,3.5,14.5
	c-0.9,1.2-1.9,1.8-2.9,2.5l0.1,1.1c4.9,1,5.7-1.3,7.9-1c3.4,1.2,7.9,7,9.3,10c0.1,1.1,0.9,3.1,1.1,4.1c-0.4,1.1-0.8,1.7-1.8,2.4
	c0.9,3.1,1.3,5.7,4.7,7.4l-0.4,1.1c2.4,1.8,2.1,3.5,4.4,4.8c2.3,1.3,7.6,0.6,8.1,4.8l0.6,0.5l1.1,0.4l1.3-2.3
	c1.1-0.1,7.8,2.2,8.9,2.6c2.3,1.3,6.5,4.5,9.2,4.7c3.8,0.1,8.1-7.5,12.2-5.3c0.6,0.5,1.2,0.9,1.8,1.9l3-1.5l-0.3,1.6
	c3.4,1.2,6.1,1.9,7.1,5.5l2-1.3c0.7,1.5,1.9,2.4,1.1,4.1l3.2-0.4l-0.5-3.7c6.2-1.3,9.2-7.6,15.3-10c6.1-2.4,12.4,0.6,16-0.4
	c1.5-0.7,4.5-2.2,5.4-3.9c0.5-0.6,0.4-1.1,0.3-2.2l1.1,0.4c-0.1-1.1-0.4-3.2-0.5-4.2c0.3-2.2,1.7-7.7,3.7-8.5
	c-0.1-1.1-0.7-1.5-0.3-2.6c-0.3-2.1,3.3-7.9,4.6-9.7l3.9-2.6l-0.3-2.1l2.2-7.8l3.3-3.1l2-5.1l6.4-8.8l3-1.5l2.5-1.4
	c0.3-1.6,0.9-1.7,2.4-1.9l1-4.9l4.8-8.1l2-5.6l0.4-5.4l1.6-4l2-5.6l1.7-7.7l3.5-5.8l0.1-7.5l-1.5-3l1.4-6.1l0.2-7l-1.4,1.3l-0.3,5.9
	c-1.2-0.9-1.8-1.4-0.9-2.6l-1.6,0.2l-1-3.6l1.6,0.3c0.2-6.4-1.7-8.9,1.2-15.7c-2.6-3.9,1.2-7.6,2.3-11c0.3-1.6,0-4.3-0.2-5.9
	l-2.4,1.9c0.9,3.1,0.4,3.2-2,5.1l0.8,2l-4.7-3.1l-2.3-5.6l-3.6-2.8l-4.6-6.9l-3.9-1.1l-1.3-6.2l-2.2-0.8l-2,1.3l-1.3-5.7l0.5-4.3
	c0.1-3.2-1.2-5.2-3.6-7.6l-1.4,1.8l1.6,0.3l-0.3,2.2l-2.4-2.4l-1,0.7l-2.1-4l-2.2-0.3l0,4.3l-2.2-0.3l-2.1-3.5l-0.1-1.1l1.1-0.1
	l-2.1-3.5l0.6-3.3l-2.2-0.3c0.3-1.6,0.3-2.2-0.5-3.7c-1.1-4.7-2.5-2.9-4.4-4.8c-1.3-1.4-1.9-2.4-2.6-3.9l1.1-0.1l-0.1-0.5l1.8,1.9
	l-0.3-2.6l1.8,1.9l1.1-0.1l0.5-0.6l-1.9-2.4l1.4-1.3l-1,0.7l0.3-1.6l-1.6,0.2l-1.3-1.4l0.9,3.1l-5.9-4.1l-1.3,2.3
	c-0.9-2.6-1.4-2.5-3.2-3.9l-2,0.8l-0.3-2.6l-0.6-0.5l-1.1,0.1l-0.8,1.7c-0.9-2.6-1.7-5.1-4-6.4c-0.3,2.2-2.6,0.9-3.4-1.2l-1.4,1.3
	l-2.2-0.8l1.4-1.8c-2.6,0.9-6.4-0.2-6.9-3.4c-0.7-1,0.2-2.7,0-4.3l-0.5-3.7l-3.6,1l2.1-4.5c-1.6-0.3-0.8-2-1-3.6
	c-0.2-1.6-2.5-6.6-3.2-8.1l1.6-0.2l-0.1-1.1c-4.4-1-5.7-3-7.8-6.5l1.5-0.7L391,85.6l0.8-2.2c-0.7-1.5-0.3-2.1,0.1-3.8l-9.8-5.2
	l-1.1-4.7l-2.9,2.5l-0.3-2.1c-1.9,1.8-2.2,4-4.3,4.3c-1.6-0.3-2.6-3.4-3.3-4.9l-1.5-3.5l0-4.3c-0.3-2.6-1.8-1.9-0.9-7.4l-2.6,0.3
	l1.2-3.4l-4.7-3.1c0.2-2.7,0.2-2.7,2.1-4.5c-1.6-0.3-4.3-0.5-5.1-2c-1.9-2.4,0-8.6-5.2-11.1C354.3,28.8,354.8,28.2,353.5,26.8
	L353.5,26.8z M203.9,48.6c0.5,4.2-2.8,3.6-0.6,7.6l-1.6-0.3l-0.8,2.2l8.5-0.6l4.3,0l5.4-3.9l-0.7-1.5c0.9-1.2,0.3-1.6-0.4-3.2
	l-1.7-0.8l-7.6,3.6L203.9,48.6L203.9,48.6z M230.9,58.5l0.1,0.5l-0.6-0.5L230.9,58.5z M280.4,75.1c-0.3,2.2,0.9,2.1-0.4,3.9l8.6,0.5
	l-0.3-2.1l-3.2,0.4l0.7-2.8l1.2-2.8l-2,1.3l-0.3-2.1c-2.1,0.3-2.6,0.3-3.4,2.6L280.4,75.1L280.4,75.1z M377.1,69.2l0.1,0.5l0.5-0.6
	L377.1,69.2L377.1,69.2z M185.4,95.9l0.1,0.5l0.5-0.6L185.4,95.9z M143,103.5l-0.9,1.2l0.1,0.5l2.1-0.3L143,103.5z M324.8,103.2
	l0.1,0.5l0.5-0.6L324.8,103.2z M320.6,112.3c1.5-0.7,2.1-0.3,3-2l-1.1-0.4C321,110.6,321,110.6,320.6,112.3L320.6,112.3z
	 M407.3,124.7c-0.3,2.2,0.4,3.2,2.6,3.4L407.3,124.7z M61.1,190.5l0.1,0.5l-0.6-0.5L61.1,190.5L61.1,190.5z M439,151.1l-0.5,0.6
	l2.2,0.8l-0.1-1.1L439,151.1L439,151.1z M448.1,163.8l0.1,0.5l0.5-0.6L448.1,163.8L448.1,163.8z M453,164.8l2.2,0.3L453,164.8z
	 M448.8,169.1l0.1,0.5l0.5-0.6L448.8,169.1z M460.8,183.6l0.1,0.5l0.5-0.6L460.8,183.6z M43.4,260.6l1.3,1.4L43.4,260.6z
	 M253.6,302.7l0.1,0.5l0.5-0.6L253.6,302.7z M268.9,305.5l0.1,0.5l0.5-0.6L268.9,305.5z M79.4,332.5l2.1-0.3L79.4,332.5z M279,321.3
	l1.4-1.8L279,321.3z M161,339.2l0.1,0.5l0.5-0.6L161,339.2z M167.8,338.3l0.1,0.5l0.5-0.6L167.8,338.3z M164.8,339.7l0.1,0.5
	l0.5-0.6L164.8,339.7z M297.2,334l1.3,2L297.2,334z M303.8,348.1l8.4-1.1l0.8-1.7l5.3-0.7l-0.8-2l-2,1.3l-2.2-0.8l-0.3-2.1
	c-2.1,0.3-10,1.3-10.8,3.5C302,346.2,303.2,347.1,303.8,348.1L303.8,348.1z M386.8,370.1c0.9,3.1,2.2,4.5-1.9,6.1l-1-3.6l-2,0.8
	L386.8,370.1L386.8,370.1z M357.1,376l0.1,0.5l0.5-0.6L357.1,376z M374.7,392l0.4,6.9c3.4-2.6,3.2-4.2,2.2-7.8L374.7,392L374.7,392z
	 M402.4,391.1l0.1,0.5l0.5-0.6L402.4,391.1L402.4,391.1z M408.8,390.8l-0.5,0.6l1.7,0.9L408.8,390.8z M415.6,394.2l0.1,0.5l0.5-0.6
	L415.6,394.2z M414.1,394.9l-1.3,2.3l2.1,4l-1.1-0.4l-1.4,1.8c1.1,0.4,1.1,0.4,2-0.8l1.7,0.8l-2,1.3l1.5,3l4.1-1.6
	c-0.9-3.1-2.1-3.5-0.9-6.8l-3.7-3.8L414.1,394.9L414.1,394.9z M383.4,401.5c-1.2,2.8-2.3,7.2-1.9,10.4c0.2,1.6,1.8,5.7,2.5,6.6
	c0.7,1.5,2,3,2.1,4l0,8l4.9,9l1-0.7l0.5,3.7c4.2-0.5,4.4,1,8.2,1.6l1.2-2.8c1.8,1.4,3.4,1.2,3-1.5l1.5-0.7l-0.8-2l2.6-0.9l-0.1,3.2
	l0.6,0.5l2.7,0.2c0.2-2.7,0.6-3.8-0.8-6.3c2.1-0.3,2.6-0.3,2.9-2.5l-1.5,0.7c0.7-2.8,0.5-4.3,2.9-6.3l-0.6,3.3
	c2.5-1.4,1.6-4,1.8-6.7c0.1-3.2,1.2-7.6,0.8-10.8l-1-3.6l-2.5,1.4l-2.8-1.2l-1.8,2.9c-4-2.2-6.3,0.8-9.5,0.7
	c-2.7-0.2-8.5-3.7-10.9-5.6l-2.6,0.3l-0.3-2.6l-2,1.3l2.2-4L383.4,401.5L383.4,401.5z"/>
<linearGradient id="SVGID_2_" gradientUnits="userSpaceOnUse" x1="-44.7026" y1="645.7402" x2="-44.7026" y2="647.3486" gradientTransform="matrix(72 0 0 -72 3478 46978.625)">
	<stop  offset="0" style="stop-color:#010101"/>
	<stop  offset="0.6196" style="stop-color:#010101"/>
	<stop  offset="0.6236" style="stop-color:#B7BEC9"/>
	<stop  offset="0.8588" style="stop-color:#010101"/>
	<stop  offset="1" style="stop-color:#010101"/>
</linearGradient>
<path fill="url(#SVGID_2_)" d="M164.1,444.7c-1.1,1.8-1.6,3.7-1.6,5.9c0,1.5,0.3,2.7,0.8,3.7l17.5,29.7c0.4,0.9,1.1,1.3,1.8,1.3
	c1.5,0,2.9-1.1,4.2-3.4l61.2-106c0.6-1.1,0.9-2.2,0.9-3.2c0-2.1-1.2-3.2-3.6-3.2H99.9c-1.8,0-3.6,0.6-5.6,1.8
	c-2,1.2-3.5,2.7-4.4,4.5l-33,57c-0.6,1.1-0.9,2.2-0.9,3.2c0,2.1,1.2,3.2,3.7,3.2h31.6c1.7,0,3.5-0.6,5.5-1.8c2-1.2,3.5-2.7,4.4-4.5
	l29.3-50.6c1.1-1.8,2.5-3.3,4.5-4.5c1.9-1.2,3.8-1.8,5.5-1.8l0,0c2.4,0,3.6,1.1,3.6,3.2c0,1-0.3,2-0.9,3.2l-29.3,50.6
	c-0.6,1.1-0.9,2.2-0.9,3.2c0,2.1,1.2,3.2,3.7,3.2h31.7c1.7,0,3.5-0.6,5.5-1.8c2-1.2,3.5-2.7,4.4-4.5l29.2-50.7
	c1.1-1.8,2.5-3.3,4.5-4.5c1.9-1.2,3.8-1.8,5.5-1.8l0,0c2.4,0,3.6,1.1,3.6,3.2c0,1-0.3,2-0.9,3.2L164.1,444.7L164.1,444.7z
	 M264.5,369.6c-1.8,0-3.6,0.6-5.6,1.8c-2,1.2-3.5,2.7-4.4,4.5l-33,57c-0.6,1.1-0.9,2.2-0.9,3.2c0,2.1,1.2,3.2,3.7,3.2h31.6
	c1.7,0,3.5-0.6,5.5-1.9c2-1.2,3.5-2.7,4.4-4.5l29.4-50.6c1.1-1.8,2.5-3.3,4.5-4.5c1.9-1.2,3.8-1.8,5.5-1.8l0,0
	c2.4,0,3.6,1.1,3.6,3.2c0,1-0.3,2-0.9,3.2l-3.7,6.3c-0.6,1.1-0.9,2.2-0.9,3.2c0,2.1,1.2,3.2,3.7,3.2h31.6c1.7,0,3.5-0.6,5.5-1.8
	c2-1.2,3.5-2.7,4.4-4.5l7.4-12.7c0.6-1.1,0.9-2.2,0.9-3.2c0-2.1-1.2-3.2-3.6-3.2H264.5L264.5,369.6z M370.6,369.6
	c-1.8,0-3.6,0.6-5.6,1.8s-3.5,2.7-4.4,4.5l-7.4,12.7c-0.6,1.1-0.9,2.2-0.9,3.2c0,2.1,1.2,3.2,3.7,3.2h31.7c1.7,0,3.5-0.6,5.5-1.8
	c2-1.2,3.5-2.7,4.4-4.4l3.7-6.3c1.1-1.8,2.5-3.3,4.4-4.5c1.9-1.3,3.8-1.9,5.5-1.9l0,0c2.4,0,3.6,1.1,3.6,3.2c0,1-0.3,2-0.8,3.2
	l-7.3,12.6c-1.1,1.8-2.5,3.2-4.5,4.5c-1.9,1.2-3.8,1.8-5.6,1.8l0,0h-44.3c-1.8,0-3.6,0.6-5.5,1.8c-1.9,1.2-3.4,2.7-4.5,4.5
	l-14.6,25.3c-0.6,1.1-0.9,2.2-0.9,3.2c0,2.1,1.2,3.2,3.7,3.2H419c1.7,0,3.5-0.6,5.5-1.8c2-1.2,3.5-2.7,4.4-4.5l33-57
	c0.6-1.1,0.9-2.2,0.9-3.2c0-2.1-1.2-3.2-3.6-3.2H370.6L370.6,369.6z M388.3,426.5c-1,1.8-2.4,3.3-4.4,4.5s-3.8,1.8-5.6,1.8l0,0
	c-2.4,0-3.6-1.1-3.6-3.2c0-1,0.3-2,0.9-3.2l7.4-12.7c1-1.8,2.4-3.3,4.4-4.5c1.9-1.2,3.8-1.8,5.5-1.8l0,0c2.5,0,3.7,1.1,3.7,3.2
	c0,1-0.3,2-0.9,3.1L388.3,426.5L388.3,426.5z"/>
<linearGradient id="SVGID_3_" gradientUnits="userSpaceOnUse" x1="-46.7441" y1="648.9668" x2="-44.2394" y2="651.4715" gradientTransform="matrix(72 0 0 -72 3478 46978.625)">
	<stop  offset="0" style="stop-color:#FFFFFF"/>
	<stop  offset="7.843100e-002" style="stop-color:#FFFFFF"/>
	<stop  offset="0.3098" style="stop-color:#A9ADB4"/>
	<stop  offset="0.4784" style="stop-color:#FFFFFF"/>
	<stop  offset="0.6196" style="stop-color:#FFFFFF"/>
	<stop  offset="0.9216" style="stop-color:#A4A7AD"/>
	<stop  offset="1" style="stop-color:#9EA1A8"/>
</linearGradient>
<path fill="url(#SVGID_3_)" d="M193.2,122c21.2-23.9,45-39.9,69.4-54.2l14.8,0.5c0,0-0.8,6-1.6,11.2c-2.5,1.4-6.6,6.7-3.6,9.5
	c1.2,0.9,1.7,0.8,3.3,0.6l0.1,0.2c-12.5,6.1-25.9,13.4-41,23.4c17.4-2.8,34.6-4.2,51.4-4.1c0.3,11.5,0.6,23,0.9,34.5
	c-17.1,0.8-34.5,0.2-51,6.1c24.4,5.3,42.1,12.7,57.2,20.8c0.7,5.9,1.3,11.7,2,17.6c-9.4-0.5-18.8-1-28.2-1.5
	c-11-7.3-50-16.1-71.2-13.5c3.8,15.5,11.5,29.6,19.6,39.3c-9.7,11.3-21.1,18.5-34,21.9c-5.6-10.5-11.1-24.9-16.7-41.4
	c-11.3,21.3-26.2,34.3-42.1,44.9c-11.6-1.6-19.9-3.5-28-6.9c0-6.3-0.3-13.5-0.3-19.8c12.6-3.8,23.1-11.3,34.8-22.9
	c-14-0.6-26.9-3.8-39.5-8l0.1-3.8c1.1,0,2.2,0.4,3.8-0.2c3.6-1,12.6-5.9,15-8.3c2.9-2.5,5.5-7.1,5-11.3l2-0.8l-0.3-2.1l6.2-5.6
	l-0.8-2l-2,0.8c0.2-2.8-1-5.4-1.3-7.8c3.1,0.4,6.1,0.7,9.1,1c-2.2-2.2-4.2-4.6-6.1-6.9c0.2-0.2,0.5-0.3,0.8-0.5l1.4-1.8
	c0.6-3.3,1.2-3.4,2.9-6.3l4.2-0.5l-3.7,4.2l2.2,0.3c0.9,3.1,3.4,5.5,5.3,7.9l0.3-1.6l0.7,1.5l-0.6-4.7l2.6-0.3l-5.9-4.6l0.7,1
	c-1.7-0.8,0.2-2.7,1.1-3.9l-3.4-1.2l0.3-2.2l1.7,0.9l3.6-1l0.1,1.1l1-0.7c1.7,0.8,1.7,0.8,3.3,0.6l2.3,1.3c0.3-2.2,0.2-2.7,2.3-3
	l0.3-2.2l-2,1.3c-1.4-4-1.4-4.7-1.2-5.3c5.5,6,11.4,12,18,17.8c0.6-13.4,1.1-26.8,2-39.5l2.1-1.9l-0.6-0.5l0.4-1.1l1.6,0.3l0.1,1.1
	l-1.5,0.7l1.8,1.9l0.4-4.9c2-1.3,3-1.5,4.9,0.4l1-0.7l0.1,1.1c3.5-1.5,8.5,3.7,10,6.7l3.8,0.6l-1,4.4c1-0.7,2.3-3,3.3-3.1
	c2.3-1.3,6.1-0.5,8.5,0.2L193.2,122L193.2,122z M137.6,110.1l0.1,0.1l-0.2-0.1L137.6,110.1z M185.4,95.9l0.1,0.5l0.5-0.6L185.4,95.9
	z"/>
<g>
	<path fill="none" stroke="#5A0E0E" stroke-width="1.390000e-002" d="M271.3,68.1l6.2,0.2l-0.5,3.6l-0.5,3.4
		c-24.6,13.4-46.1,26.5-63.4,43.5c-4.8,1.4-14.7,5.4-18.9,7.5C213.9,106.7,241.1,86,271.3,68.1L271.3,68.1z M286.2,115.9l0.5,21.3
		c-34.1-1.2-67.3,8.1-99.9,28.8c5,23.4,12.5,41.2,23.3,52c-6.2,5.9-13,10.4-20.3,13.5c-9.4-15.9-17.7-34.5-22-56.9
		c-22.4,8.7-46.2,5.6-68.9-0.6c3.8-1.9,8.1-4.5,9.6-6.1c2.9-2.5,5.5-7.1,5-11.3l2-0.8l-0.3-2.1l6.2-5.6c15.1,0.1,29.7-0.9,43.6-3.7
		c0.1-19.9,1.4-40.4,3.8-57.6c0.3,0.2,0.7,0.5,1.1,0.9l1-0.7l0.1,1.1c3.5-1.5,8.5,3.7,10,6.7l3.8,0.6l-1,4.4c1-0.7,2.3-3,3.3-3.1
		c0.4-0.2,0.9-0.4,1.3-0.5c-1.1,12.7-2,26.3-2.5,41.5C219.9,122.2,250,116.2,286.2,115.9L286.2,115.9z M293.8,176.4l1,8.8
		c-24.1-13.7-52.5-22.3-84.6-24.2c5.3-2.6,12.2-6.3,17.5-8.5C252.1,156.7,273.4,165.7,293.8,176.4L293.8,176.4z M112.3,236.1
		c-5.9-1.2-10.9-2.5-15.9-4.4c20.4-11.9,39.6-24.3,52.8-42.4c4.8-0.7,8.1-0.7,12.4-1.2C149.7,207.9,132.6,222.4,112.3,236.1z
		 M123.1,128.4c0.5-1.3,1.1-1.9,2.3-3.9l3.5-2.1l0.3-2.2l0.9,0.5c5.3,6.8,11,12.7,17.4,17.2C134.1,138.4,132,139.1,123.1,128.4
		L123.1,128.4z M185.4,95.9l0.1,0.5l0.5-0.6L185.4,95.9z"/>
	
		<linearGradient id="SVGID_4_" gradientUnits="userSpaceOnUse" x1="-46.6919" y1="649.0293" x2="-44.2487" y2="651.4725" gradientTransform="matrix(72 0 0 -72 3478 46978.625)">
		<stop  offset="0" style="stop-color:#ED1B30"/>
		<stop  offset="0.2588" style="stop-color:#911A1F"/>
		<stop  offset="0.3608" style="stop-color:#AD1F23"/>
		<stop  offset="0.4392" style="stop-color:#ED2224"/>
		<stop  offset="0.7804" style="stop-color:#ED2224"/>
		<stop  offset="0.902" style="stop-color:#871719"/>
		<stop  offset="1" style="stop-color:#80141B"/>
	</linearGradient>
	<path fill="url(#SVGID_4_)" d="M271.3,68.1l6.2,0.2l-0.5,3.6l-0.5,3.4c-24.6,13.4-46.1,26.5-63.4,43.5c-4.8,1.4-14.7,5.4-18.9,7.5
		C213.9,106.7,241.1,86,271.3,68.1L271.3,68.1z M286.2,115.9l0.5,21.3c-34.1-1.2-67.3,8.1-99.9,28.8c5,23.4,12.5,41.2,23.3,52
		c-6.2,5.9-13,10.4-20.3,13.5c-9.4-15.9-17.7-34.5-22-56.9c-22.4,8.7-46.2,5.6-68.9-0.6c3.8-1.9,8.1-4.5,9.6-6.1
		c2.9-2.5,5.5-7.1,5-11.3l2-0.8l-0.3-2.1l6.2-5.6c15.1,0.1,29.7-0.9,43.6-3.7c0.1-19.9,1.4-40.4,3.8-57.6c0.3,0.2,0.7,0.5,1.1,0.9
		l1-0.7l0.1,1.1c3.5-1.5,8.5,3.7,10,6.7l3.8,0.6l-1,4.4c1-0.7,2.3-3,3.3-3.1c0.4-0.2,0.9-0.4,1.3-0.5c-1.1,12.7-2,26.3-2.5,41.5
		C219.9,122.2,250,116.2,286.2,115.9L286.2,115.9z M293.8,176.4l1,8.8c-24.1-13.7-52.5-22.3-84.6-24.2c5.3-2.6,12.2-6.3,17.5-8.5
		C252.1,156.7,273.4,165.7,293.8,176.4L293.8,176.4z M112.3,236.1c-5.9-1.2-10.9-2.5-15.9-4.4c20.4-11.9,39.6-24.3,52.8-42.4
		c4.8-0.7,8.1-0.7,12.4-1.2C149.7,207.9,132.6,222.4,112.3,236.1z M123.1,128.4c0.5-1.3,1.1-1.9,2.3-3.9l3.5-2.1l0.3-2.2l0.9,0.5
		c5.3,6.8,11,12.7,17.4,17.2C134.1,138.4,132,139.1,123.1,128.4L123.1,128.4z M185.4,95.9l0.1,0.5l0.5-0.6L185.4,95.9z"/>
</g>
<linearGradient id="SVGID_5_" gradientUnits="userSpaceOnUse" x1="-45.0806" y1="647.251" x2="-41.7854" y2="650.5461" gradientTransform="matrix(72 0 0 -72 3478 46978.625)">
	<stop  offset="0" style="stop-color:#FFFFFF"/>
	<stop  offset="7.843100e-002" style="stop-color:#FFFFFF"/>
	<stop  offset="0.3098" style="stop-color:#A9ADB4"/>
	<stop  offset="0.4784" style="stop-color:#FFFFFF"/>
	<stop  offset="0.6196" style="stop-color:#FFFFFF"/>
	<stop  offset="0.9216" style="stop-color:#A4A7AD"/>
	<stop  offset="1" style="stop-color:#9EA1A8"/>
</linearGradient>
<path fill="url(#SVGID_5_)" d="M398.3,107.9l3,15l2.8-2l1-0.3l0.5,3.7c0.2,1.6-0.6,3.3,0,4.3c0,0.1,0,0.2,0,0.3l-0.3,0.5l0.5,0.3
	c0.7,1.5,2.4,2.4,4.2,2.5l1.5,0.9l-0.5,0.6l2.2,0.8l0.2-0.2l2.1,1.3l-12,3l1.5,15.7l-7.7-10.7l-8.4,13.4l2.3-16.4l-11.9,1l10.6-9.7
	l-6.5-12.2l10.9,4.2L398.3,107.9L398.3,107.9z M407.6,125.1l-0.4,0.7c0-0.3,0-0.7,0-1.1L407.6,125.1z M320.7,164.4
	c1.8,2.3,3.6,4.6,5.5,6.9c1.9,2.3,3.8,4.6,5.7,6.9c0.8-3.8,1.7-7.6,2.7-11.4c0.6,2.8,1.3,5.5,2,8.3c0.7,2.8,1.5,5.5,2.3,8.3
	c1.8,0.5,3.6,1,5.4,1.5c1.8,0.5,3.6,1,5.4,1.5c-1.9,2.3-3.7,4.5-5.5,6.8c2.1,2.5,4.1,5.1,6.3,7.6c2.2,2.5,4.4,5.1,6.6,7.6
	c-2.2-1.4-4.4-2.7-6.6-4.1c-2.2-1.4-4.3-2.7-6.5-4.1c0.8,2.7,1.7,5.3,2.6,8c0.9,2.7,1.9,5.3,3,8c-2-2.8-4-5.7-6-8.5
	c-1.9-2.8-3.8-5.7-5.6-8.5c-2.2,1.6-4.4,3.1-6.6,4.7c-0.2-2.2-0.3-4.3-0.4-6.5s-0.1-4.3-0.2-6.5c-2.1-1.7-4.2-3.3-6.3-5
	c-2.1-1.7-4.1-3.3-6.2-5c1.7,0.1,3.3,0.3,5,0.4c1.7,0.1,3.3,0.3,5,0.4c-1.3-2.9-2.7-5.7-3.9-8.6
	C323.1,170.1,321.9,167.3,320.7,164.4L320.7,164.4z M425.1,295.9c0.6,1.7,1.3,3.3,1.9,5c0.6,1.6,1.3,3.3,1.9,4.9
	c2.1-1.5,4.2-3,6.3-4.6c2.1-1.6,4.2-3.3,6.3-5.1c-1.3,2.2-2.6,4.4-3.9,6.6c-1.3,2.2-2.6,4.3-3.9,6.4c2,0.1,4,0.3,5.9,0.3
	c2,0,4-0.1,5.9-0.2c-2.3,1.3-4.5,2.6-6.8,3.8c-2.3,1.2-4.5,2.2-6.8,3.2c0.4,1.8,0.7,3.5,1.1,5.3c0.4,1.8,0.7,3.5,1.1,5.3
	c-3.1-1.7-6.1-3.4-9.2-5.3c-1.5,1.9-3.1,3.7-4.6,5.6c-1.5,1.8-3.1,3.6-4.6,5.3c0.4-2,0.7-4,1.1-5.9c0.4-2,0.7-4,1.1-6
	c-2.3,0.4-4.5,0.7-6.8,0.9c-2.3,0.2-4.5,0.4-6.8,0.5c2-1.2,4-2.3,5.9-3.6c2-1.2,4-2.6,5.9-3.9c-2.6-2.7-5.2-5.4-7.8-8.2
	c2.1,0.4,4.2,0.8,6.3,1.1c2.1,0.3,4.2,0.5,6.3,0.7c0.6-2,1.3-4,1.9-6.1C423.8,300,424.5,297.9,425.1,295.9L425.1,295.9z M438,212.7
	l0.5,10.9l-7.8,7.6l8.9-2.2l0.5,10.2l4.2-12.6l8.9-2l-5.9-5.2l2.8-11l-6.8,7.5L438,212.7L438,212.7z M202.1,311.1l2.4-10.1
	c-10.7,4-21.2,4.7-31.6,4.9c8.9-5.8,18-11.6,27.6-16.7c-6.4-5.3-11.6-9.6-19.1-14.1c7.2-1.3,18.8-2,29-1.1c2-7.7,1.9-17.3,1.6-27.1
	c4.8,4.9,9.6,10.1,14.1,18.1c6.4-6.8,13.3-15,20.2-23.1c-2.3,11.3-4.6,22.5-9.2,31.4c8.7,1.3,15.4,3.6,20.6,5.8
	c-6.8,4.8-14.7,8.6-24.1,12l1.3,7.6c-4.6,0.5-10.3,1.1-14.1,2.9c-0.7,0.3-1.3,0.6-1.9,1l-0.2-0.1l-2.8,2.2c-0.2,0.1-0.3,0.2-0.5,0.4
	l-11.6,5.8L202.1,311.1L202.1,311.1z"/>
</svg>
