<?xml version="1.0" encoding="utf-8"?>
<svg xmlns="http://www.w3.org/2000/svg" viewBox="0 0 2500 97">
  <defs>
    <style>.a{fill:#27292a;}.b{fill:#fff;opacity:0.2;}</style>
  </defs>
  <path class="a" d="M -379.355 -0.012 L -379.355 74.988 L 1949.14 74.988 C 1964.82 74.988 1995.639 70.748 2006.719 59.658 C 2006.719 59.658 2035.045 35.513 2048.725 21.843 C 2067.695 2.873 2069.382 -0.012 2069.382 -0.012 L -379.355 -0.012 Z" style="fill: rgb(85, 118, 134); transform-origin: 1062.52px 38.494px;" transform="matrix(-1, 0, 0, -1, 0, 0)"/>
  <path class="a" d="M 0.315 91 L -0.014 97 L 2391.63 97 C 2411.38 96.996 2430.32 89.143 2444.28 75.169 C 2444.28 75.169 2478.74 40.715 2495.96 23.49 C 2519.86 -0.404 2549.44 0 2549.44 0 C 2549.44 -0.293 2536.457 0 2531.59 0 C 2521.156 0 2501.577 8.305 2492.2 17.682 C 2472.473 37.409 2457.583 52.913 2440.37 70.126 C 2426.067 84.429 2406.699 91 2389.44 91 C 2379.532 91 2371.637 91 2371.637 91 L 0.315 91 Z" style="stroke-width: 12px;" transform="matrix(-1, 0, 0, -1, 2549.43994141, 96.999985)"/>
</svg>