<svg width="512" height="512" xmlns="http://www.w3.org/2000/svg">
 <!-- Created with Method Draw - http://github.com/duopixel/Method-Draw/ -->

 <g>
  <title>background</title>
  <rect fill="#fff" id="canvas_background" height="514" width="514" y="-1" x="-1"/>
  <g display="none" overflow="visible" y="0" x="0" height="100%" width="100%" id="canvasGrid">
   <rect fill="url(#gridpattern)" stroke-width="0" y="0" x="0" height="100%" width="100%"/>
  </g>
 </g>
 <g>
  <title>Layer 1</title>
  <linearGradient y2="1.07584" x2="0.0875" y1="0.04776" x1="1.02758" id="svg_31">
   <stop stop-color="#1A346D" offset="0"/>
   <stop stop-color="#1A346D" offset="0.149"/>
   <stop stop-color="#1A346D" offset="0.3294"/>
   <stop stop-color="#0040C9" offset="0.4392"/>
   <stop stop-color="#1A346D" offset="0.5294"/>
   <stop stop-color="#1A346D" offset="0.6392"/>
   <stop stop-color="#A3BEF7" offset="0.8196"/>
   <stop stop-color="#D6E3FF" offset="1"/>
  </linearGradient>
  <linearGradient y2="-0.00014" x2="0.50036" y1="0.99959" x1="0.50036" id="svg_30">
   <stop stop-color="#000000" offset="0"/>
   <stop stop-color="#000000" offset="0.6196"/>
   <stop stop-color="#B7BEC8" offset="0.6236"/>
   <stop stop-color="#000000" offset="0.8588"/>
   <stop stop-color="#000000" offset="1"/>
  </linearGradient>
  <linearGradient y2="0.02861" x2="0.98846" y1="1.08943" x1="0.1113" id="svg_29">
   <stop stop-color="#FFFFFF" offset="0"/>
   <stop stop-color="#FFFFFF" offset="0.07843"/>
   <stop stop-color="#A8ADB3" offset="0.3098"/>
   <stop stop-color="#FFFFFF" offset="0.4784"/>
   <stop stop-color="#FFFFFF" offset="0.6196"/>
   <stop stop-color="#A4A7AD" offset="0.9216"/>
   <stop stop-color="#9FA2A8" offset="1"/>
  </linearGradient>
  <linearGradient y2="0.13953" x2="1.05812" y1="1.19634" x1="0.21172" id="svg_27">
   <stop stop-color="#FFFFFF" offset="0"/>
   <stop stop-color="#FFFFFF" offset="0.07843"/>
   <stop stop-color="#A8ADB3" offset="0.3098"/>
   <stop stop-color="#FFFFFF" offset="0.4784"/>
   <stop stop-color="#FFFFFF" offset="0.6196"/>
   <stop stop-color="#A4A7AD" offset="0.9216"/>
   <stop stop-color="#9FA2A8" offset="1"/>
  </linearGradient>
  <g stroke="null" id="svg_51">
   <path stroke="null" id="svg_33" fill="url(#svg_31)" d="m374.46696,393.356c-0.10212,-1.73596 -1.22538,-7.55652 0.30635,-8.0671c0.61269,-0.20423 2.14442,-0.71481 2.55288,-0.91904c0.40846,-0.10212 -0.20423,0 0.10212,0s0.91904,-0.51058 1.22538,0.71481c0.30635,1.22538 0.91904,3.3698 0.61269,4.79941c-0.30635,1.42961 -2.24653,3.47192 -3.16557,4.18672c-1.02115,0.71481 0.10212,-0.10212 0,0c-0.10212,0.10212 -0.20423,0.20423 -0.61269,0.20423c-0.30635,0.10212 -0.91904,0.61269 -1.02115,-0.91904l0,0zm33.5959,39.72281c0,0.10212 0,0.51058 0.20423,0.51058c0.20423,-0.10212 0.10212,-0.40846 0,-0.51058c-0.10212,-0.20423 -0.20423,-0.10212 -0.20423,0l0,0zm-25.01822,-37.37416c0,0 0,0 0,0c0,0 0,0.10212 0,0c0.10212,-0.20423 0.30635,-0.51058 0.81692,-0.61269s1.63384,-0.20423 2.0423,-0.30635c0.40846,-0.10212 0.30635,-0.10212 0.71481,0.10212c0.30635,0.20423 0.71481,0.91904 0.40846,1.42961c-0.20423,0.51058 -0.81692,0.91904 -0.71481,1.3275c0.10212,0.40846 0.61269,0.30635 0.61269,0.81692c0.10212,0.51058 -0.20423,1.3275 0.20423,1.63384c0.40846,0.30635 1.22538,-0.10212 1.63384,-0.20423c0.40846,-0.10212 -0.20423,-0.51058 0.81692,0.20423c0.91904,0.71481 6.22903,3.98249 7.96498,4.6973c1.63384,0.71481 1.02115,0.40846 1.53173,0.51058c0.40846,0.10212 0.91904,0.20423 1.12327,0.20423s0,0 0,0c0,0 0,0 0,0c0,0 -0.51058,0 0,0c0.51058,0 1.63384,-0.20423 3.06346,-0.71481s4.49307,-0.51058 6.22903,-0.30635c1.73596,0.20423 0.91904,-1.53173 1.3275,-2.14442c0.30635,-0.61269 0.61269,-0.71481 1.3275,-0.40846s1.73596,1.02115 2.45076,1.02115c0.71481,0 1.3275,-0.71481 1.53173,-0.91904c0.30635,-0.20423 0.20423,0.51058 0,0c-0.20423,-0.51058 -1.22538,-2.55288 -1.53173,-3.06346c-0.20423,-0.51058 0,0.10212 0,0c0,-0.10212 0.10212,-0.40846 -0.10212,-0.51058c-0.20423,-0.20423 -0.91904,-0.30635 -1.12327,-0.30635s0.10212,0 0,0c0,0 0,0 -0.30635,-0.20423c-0.30635,-0.20423 -0.61269,-0.91904 -0.20423,-1.42961s1.12327,-1.42961 1.3275,-1.73596c0.40846,-0.51058 -0.61269,-1.73596 -1.12327,-2.65499c-0.20423,-0.40846 0.10212,0.10212 0,0s-0.30635,-0.40846 0,-1.02115c0.30635,-0.51058 1.02115,-1.83807 1.3275,-2.34865c0.30635,-0.51058 0.51058,-0.51058 0.71481,-0.51058c0.30635,0 0.51058,0.10212 0.71481,-0.10212s0.51058,-0.61269 0.81692,-0.61269c0.30635,0 0.30635,0 0.51058,-0.10212s0.51058,-0.10212 0.81692,0.20423c0.30635,0.30635 0.40846,1.12327 0.20423,1.42961c-0.20423,0.30635 -0.71481,-0.30635 -0.20423,0.20423s2.45076,2.45076 2.85923,2.96134s-0.10212,-0.10212 0,0c0.10212,0.10212 0.71481,-0.20423 0.20423,1.02115c-0.40846,1.22538 -0.30635,3.26769 0.10212,4.18672c0.40846,0.91904 0.71481,1.73596 0.81692,2.14442c0.10212,0.40846 -0.10212,-0.20423 0,0c0.10212,0.20423 0.20423,0.91904 -0.61269,1.22538c-0.81692,0.30635 -2.85923,1.12327 -3.47192,1.3275s-0.10212,-0.51058 0,0.10212s0.81692,3.06346 1.02115,3.67615s0,0 0,0c0,0 -0.61269,-5.20787 0,0.10212s-1.3275,14.60247 -2.65499,16.44055c-1.3275,1.83807 -1.63384,1.83807 -1.63384,2.75711s1.02115,0.10212 0.81692,1.12327c-0.10212,1.02115 -0.61269,2.34865 -1.12327,2.75711c-0.51058,0.40846 -1.42961,-0.61269 -1.3275,0.51058c0.10212,1.12327 0.51058,3.57403 0.40846,4.59518c-0.10212,1.02115 -0.10212,0.61269 -0.10212,1.12327c0,0.51058 -0.30635,1.02115 -1.12327,0.91904c-0.71481,0 -2.24653,-0.20423 -2.75711,-0.20423s0.10212,0 0,0c-0.10212,0 -0.40846,-0.10212 -0.51058,-0.20423c-0.20423,-0.10212 -0.51058,-0.40846 -0.61269,-0.51058c-0.10212,-0.10212 0.10212,0.10212 0,0c-0.10212,-0.10212 -0.20423,-0.30635 -0.30635,-0.40846c-0.10212,-0.10212 -0.10212,0.10212 -0.30635,0.20423c-0.20423,0.10212 -0.71481,0.10212 -0.91904,0.40846s-0.10212,1.12327 -0.20423,1.3275c-0.10212,0.20423 0,0 0,0c0,0 0.10212,-0.30635 0,0c-0.10212,0.30635 -0.61269,1.02115 -1.02115,1.22538c-0.51058,0.20423 -1.12327,0.20423 -1.53173,0.20423c-0.40846,-0.10212 -0.51058,-0.61269 -0.91904,-0.30635c-0.40846,0.30635 -0.51058,1.22538 -0.81692,1.73596c-0.20423,0.51058 0,0.81692 -1.12327,0.61269c-1.12327,-0.20423 -2.55288,-0.61269 -3.57403,-1.02115c-1.02115,-0.40846 -3.06346,-0.81692 -4.49307,-0.61269c-1.42961,0.20423 -1.02115,-0.20423 -1.12327,-0.91904c-0.10212,-0.61269 0.10212,-1.73596 -0.30635,-2.24653s-0.10212,1.22538 -1.12327,-0.51058c-0.91904,-1.73596 -4.18672,-7.65864 -5.00364,-9.19037c-0.81692,-1.53173 0,0.10212 0,0s-0.10212,0.91904 -0.10212,-0.51058c0,-1.42961 0.10212,-6.53537 0,-8.0671c0,-1.53173 -0.61269,-1.22538 -1.02115,-1.83807s-0.91904,-1.42961 -1.02115,-1.83807s0.20423,0.40846 0,0c-0.30635,-0.40846 -1.73596,-3.98249 -2.14442,-5.10576c-0.30635,-1.12327 -0.20423,-0.71481 -0.30635,-1.12327c-0.10212,-0.30635 -0.20423,-0.81692 -0.20423,-0.91904c0,-0.10212 0,0 0,0s0,0 0,0c0,0 0.20423,1.22538 0,0c-0.20423,-1.22538 0.51058,-6.63749 0.91904,-8.27133c0.51058,-1.63384 0.30635,-1.02115 0.51058,-1.53173c0.61269,-0.10212 0.81692,-0.71481 0.91904,-0.91904c0.10212,-0.20423 0,0 0,0l0,0zm-78.93504,-54.63163c0.30635,0.51058 7.25018,-0.61269 7.25018,-0.61269l0.81692,-1.73596l5.41211,-0.71481l-1.83807,-1.42961l-1.02115,0.71481l-2.24653,-0.81692c0,0 0.81692,-2.24653 -0.30635,-2.14442s-9.08825,1.12327 -9.70094,3.16557c-0.51058,1.94019 1.22538,3.06346 1.63384,3.57403l0,0zm-103.34057,-305.42654c0.30635,2.14442 -1.73596,5.71845 -0.61269,7.76075s-0.91904,-2.55288 -1.63384,-0.30635c-0.81692,2.24653 3.47192,1.83807 7.86287,1.73596c4.39095,-0.10212 7.76075,-2.45076 9.90517,-3.98249c2.14442,-1.53173 -1.22538,-0.91904 -0.71481,-1.53173s0,-2.45076 -0.40846,-3.26769c-0.40846,-0.81692 -1.73596,-0.81692 -1.73596,-0.81692l-7.76075,3.67615c-0.10212,0 -5.20787,-5.41211 -4.90153,-3.26769zm23.79284,-1.3275c-4.39095,-1.94019 -1.94019,4.6973 -1.42961,5.61634c0.40846,0.91904 0.81692,-1.73596 0.81692,-1.73596l2.75711,0.20423c0,0 -1.53173,-1.42961 -0.71481,-1.02115c0.91904,0.40846 1.83807,1.94019 2.0423,3.06346c0.10212,1.12327 1.53173,-0.71481 1.63384,0.30635s-1.02115,4.49307 -2.75711,4.18672c-1.63384,-0.30635 -0.30635,1.63384 -0.30635,1.63384l-3.16557,0.91904l-3.77826,0.51058l-3.88038,-0.10212l-1.3275,-2.0423l-0.81692,2.24653l-1.63384,-0.30635c0,0 1.3275,-2.0423 0.30635,-1.63384c-1.02115,0.40846 -1.83807,2.96134 -1.63384,4.08461c0.10212,1.12327 -1.94019,1.83807 -1.94019,1.83807s-2.65499,-1.3275 -2.85923,-0.71481s-0.30635,0.61269 -1.94019,1.83807c-1.63384,1.3275 -1.53173,4.79941 -2.55288,5.20787c-1.02115,0.40846 -1.83807,2.96134 -1.83807,2.96134l0.10212,1.12327c0,0 4.28884,-0.30635 3.3698,0.61269c-1.02115,0.91904 -3.26769,2.55288 -4.59518,2.75711c-1.3275,0.20423 -0.81692,6.63749 -0.81692,6.63749l-3.06346,1.53173l-1.02115,5.00364l3.47192,1.22538l1.53173,3.06346c0,0 -1.83807,-1.63384 -2.24653,-0.81692c-0.40846,0.91904 -2.34865,1.12327 -3.16557,0.91904c-0.81692,-0.20423 1.12327,1.3275 0,0.91904s-7.76075,-1.12327 -9.3946,-0.30635c-1.73596,0.81692 -1.94019,1.22538 -2.0423,1.3275s0.61269,-2.45076 0.61269,-2.45076s-4.59518,-0.61269 -4.6973,-0.81692c-0.51058,-0.91904 -2.45076,-3.67615 -6.0248,-6.22903c-1.02115,-0.71481 -3.3698,-0.81692 -3.57403,-0.71481c-0.10212,0 -0.20423,-1.63384 -0.40846,-1.53173c-1.02115,0.61269 -1.63384,1.02115 -1.63384,1.02115s0,0.20423 -0.40846,-0.81692c-0.10212,-0.40846 -0.71481,-0.40846 -1.22538,-0.30635c-1.02115,0.10212 -2.96134,1.63384 -3.3698,2.34865c-0.51058,0.91904 -0.51058,0 -0.91904,0.30635l-1.63384,-0.30635l-0.40846,1.12327l-0.10212,1.53173l-2.24653,1.53173c-1.94019,-6.43326 -5.51422,-0.91904 -1.02115,0.71481l-1.63384,0.20423l-0.51058,0.61269l-0.40846,1.12327c0.40846,2.85923 -1.22538,3.26769 -4.59518,4.39095c-2.65499,0.91904 -3.77826,1.94019 -3.26769,5.92268c0.30635,2.14442 -3.47192,-1.22538 -3.47192,-1.22538l-1.42961,1.83807l1.63384,-0.20423c-0.61269,3.3698 0,3.26769 -3.3698,3.67615l-0.10212,-1.12327c-0.51058,1.3275 -1.83807,0.91904 -1.42961,1.83807c0.61269,1.3275 0.20423,1.73596 0,2.75711c-0.30635,1.73596 -0.81692,3.88038 0.40846,6.12691l0.91904,1.73596l-0.71481,2.34865c-0.30635,1.02115 -1.53173,-1.42961 -2.34865,-1.3275c-0.81692,0.10212 -2.45076,-0.20423 -3.3698,-0.61269c-0.91904,-0.40846 -1.02115,0.71481 -1.02115,0.71481l-0.10212,-1.12327l-2.96134,0.81692l-3.3698,-2.14442c-0.10212,0.81692 0.30635,2.34865 -0.40846,3.26769c-0.71481,0.91904 -2.65499,1.3275 -3.47192,2.34865c-1.22538,1.42961 -2.34865,2.85923 -2.75711,5.30999c-0.20423,0.81692 1.22538,2.0423 -0.61269,3.16557c-0.81692,0.51058 -1.53173,3.88038 -1.83807,6.84172c0,0.20423 -1.42961,-0.61269 -2.34865,-0.51058c0,0 0.81692,10.1094 1.94019,9.70094c2.96134,-1.12327 1.42961,-0.51058 1.42961,-0.51058l-6.12691,5.82057l0.30635,2.14442c0,0 -1.63384,0.51058 -2.14442,1.02115c-0.20423,0.20423 -0.20423,0 -0.10212,0.81692c0.30635,2.34865 -0.71481,7.14806 -4.59518,10.21152c-3.88038,3.16557 -10.7221,7.35229 -13.88767,8.27133c-3.16557,0.91904 -4.59518,0.30635 -6.63749,1.3275c-2.0423,1.12327 -3.06346,3.67615 -3.77826,4.28884c-0.71481,0.61269 -8.88402,2.24653 -9.29248,3.88038c-0.40846,1.63384 -0.20423,2.55288 -7.76075,3.67615c-7.45441,1.22538 -6.43326,-0.10212 -13.17286,8.27133c-6.63749,8.37345 -5.41211,6.94383 -6.7396,7.45441c-1.3275,0.40846 -6.94383,5.82057 -6.94383,5.82057s-2.45076,12.86651 -3.67615,9.80306c-1.22538,-3.16557 -1.42961,-5.20787 -2.24653,-8.98614c-0.81692,-3.77826 -1.73596,1.3275 -2.45076,2.45076s-1.63384,8.37345 -1.42961,10.00729s2.0423,3.26769 2.24653,4.59518c0.20423,1.3275 0.91904,4.79941 0.71481,5.92268c-0.10212,1.12327 -2.14442,6.53537 -1.3275,11.13056c0.81692,4.49307 2.45076,4.28884 3.47192,5.61634s2.14442,3.57403 2.14442,3.57403s4.49307,4.90153 5.10576,5.30999c0.61269,0.51058 3.06346,2.34865 3.77826,3.88038s3.06346,6.7396 0.81692,6.43326c-2.24653,-0.30635 -2.96134,-3.77826 -3.3698,-5.10576c-0.40846,-1.3275 -0.40846,5.30999 -1.22538,2.96134c-0.81692,-2.34865 -3.16557,-7.45441 -5.41211,-8.0671s-1.73596,6.12691 1.83807,5.92268c0.81692,-0.10212 -2.75711,3.06346 -3.77826,1.3275c-1.12327,-1.94019 -4.08461,-5.41211 -4.49307,-3.77826c-0.30635,1.02115 1.42961,5.51422 2.85923,7.35229c2.24653,2.85923 4.59518,2.24653 4.59518,2.24653s2.55288,3.77826 3.47192,4.49307c0.91904,0.71481 2.24653,-0.30635 5.61634,3.06346c3.47192,3.3698 3.16557,7.76075 5.10576,10.31363c1.94019,2.45076 3.88038,2.45076 5.41211,4.18672c1.63384,1.73596 1.53173,3.06346 2.75711,4.59518c1.3275,1.42961 3.77826,3.57403 4.49307,5.41211c0.81692,1.83807 1.73596,7.45441 2.14442,7.96498c0.30635,0.51058 3.98249,7.65864 4.28884,8.16922c0.30635,0.51058 4.39095,4.59518 5.71845,6.33114c1.3275,1.73596 3.77826,5.92268 4.59518,10.31363s0.71481,3.47192 1.42961,6.94383c0.71481,3.47192 2.45076,6.53537 1.12327,9.08825c-1.3275,2.65499 -1.12327,1.73596 -1.94019,1.83807c-0.81692,0.10212 -2.75711,-2.85923 -2.75711,-0.20423c0,2.75711 -0.91904,10.82421 4.08461,10.92633s8.98614,1.83807 10.7221,2.45076c1.73596,0.61269 5.61634,1.22538 6.7396,1.3275s3.3698,-0.10212 5.92268,-0.71481c2.55288,-0.61269 3.67615,-0.71481 4.79941,-0.61269c1.12327,0.10212 4.18672,-1.63384 4.18672,-1.63384l3.98249,-2.65499c0,0 -2.45076,-0.20423 -1.3275,-1.42961c1.22538,-1.22538 0.40846,-4.08461 4.18672,-6.0248c3.77826,-1.94019 5.61634,-1.22538 7.35229,-2.0423c1.83807,-0.81692 -3.47192,2.85923 -1.73596,-0.91904s7.45441,-5.82057 9.49671,-6.63749c2.0423,-0.81692 1.73596,-1.63384 4.08461,-2.14442c2.34865,-0.61269 6.7396,-0.81692 8.57768,-1.12327c1.83807,-0.20423 3.57403,-1.73596 3.16557,-0.91904c-0.40846,0.81692 -1.3275,1.42961 3.26769,-0.40846s6.63749,-1.12327 8.16922,0c1.53173,1.12327 -1.3275,-1.42961 1.94019,-1.83807s5.20787,-8.57768 7.25018,-11.84536c2.0423,-3.26769 5.10576,-2.85923 6.12691,-3.47192c1.02115,-0.71481 10.41575,-8.47556 11.4369,-9.08825c1.02115,-0.71481 4.79941,-0.61269 5.92268,-0.71481c1.12327,-0.10212 7.96498,-2.14442 7.96498,-2.14442s10.82421,-5.20787 11.84536,-5.92268c1.02115,-0.71481 2.24653,-1.94019 5.61634,-3.47192c3.3698,-1.53173 13.07074,-2.75711 17.05324,-3.26769c3.98249,-0.51058 3.06346,-1.22538 5.82057,-1.3275c2.75711,-0.10212 10.00729,4.18672 11.53902,4.49307s1.22538,1.53173 2.75711,0.20423c1.53173,-1.3275 5.00364,0.71481 7.25018,1.22538c2.24653,0.51058 0.10212,1.3275 3.16557,0.91904c3.06346,-0.40846 3.16557,3.47192 4.39095,3.06346c1.3275,-0.40846 3.88038,0.10212 4.49307,1.02115c0.71481,1.02115 -2.0423,0.81692 -2.0423,0.81692s0.71481,1.73596 0.30635,2.65499s0.91904,0.81692 0.71481,1.53173c-0.10212,0.71481 1.83807,1.94019 1.83807,1.94019s3.88038,-1.83807 4.28884,-0.51058c0.40846,1.3275 -1.42961,2.14442 1.22538,5.30999c2.65499,3.16557 5.82057,2.75711 5.61634,7.35229c-0.10212,4.59518 3.77826,8.88402 4.18672,9.3946s2.45076,-1.94019 2.45076,-1.94019l0.71481,1.53173l1.12327,-0.10212l-0.20423,-5.92268l0.71481,-2.34865l4.79941,-5.00364c0,0 4.18672,0.51058 6.53537,-4.6973c2.24653,-5.20787 11.84536,-11.4369 6.33114,-1.3275c-5.41211,10.00729 0,13.27497 -3.77826,17.4617s-5.41211,2.85923 -5.92268,5.10576c-0.51058,2.24653 5.82057,-1.83807 5.82057,-1.83807l3.26769,-0.40846l1.22538,-3.47192c0,0 0.81692,-11.02844 2.14442,-8.98614c1.3275,2.0423 5.61634,11.53902 3.57403,14.8067c-2.0423,3.26769 -2.45076,2.24653 -2.96134,2.55288c-0.51058,0.30635 -1.94019,0.30635 0.51058,0.81692c2.55288,0.51058 4.79941,-1.53173 7.65864,-0.81692s8.67979,8.16922 9.49671,10.21152c0.81692,2.14442 1.22538,3.06346 1.12327,4.18672c-0.10212,1.12327 -1.83807,0.30635 -1.83807,2.45076c-0.10212,2.14442 6.12691,12.04959 8.88402,13.58132c2.75711,1.53173 7.96498,2.75711 8.27133,4.90153c0.30635,2.14442 0.61269,0.51058 0.61269,0.51058l1.12327,0.40846c0,0 0.81692,-2.24653 1.3275,-2.34865s7.35229,1.83807 9.08825,2.65499s5.71845,4.6973 9.3946,4.79941c3.67615,0.10212 10.41575,-6.7396 14.29613,-3.47192c3.88038,3.26769 0.81692,-2.45076 2.75711,0.20423c1.94019,2.65499 6.7396,3.77826 7.25018,5.61634c0.51058,1.83807 1.22538,-3.06346 2.0423,-1.3275s2.0423,2.55288 6.33114,-0.81692c4.28884,-3.3698 6.84172,-6.94383 13.07074,-9.3946c6.22903,-2.45076 13.68344,0.40846 16.33843,-0.40846s4.79941,-2.75711 5.51422,-3.98249c0.71481,-1.22538 0.30635,-1.63384 0.30635,-2.24653c-0.10212,-0.51058 1.22538,0.91904 1.12327,0.40846c-0.10212,-0.51058 -0.61269,-2.65499 -0.51058,-4.28884c0.10212,-1.63384 2.65499,-7.55652 3.77826,-8.67979c1.22538,-1.12327 -0.40846,-1.02115 -0.30635,-2.65499c0.10212,-1.73596 4.08461,-8.98614 4.6973,-9.90517c0.71481,-0.91904 3.98249,-2.65499 3.98249,-2.65499l-0.30635,-2.14442l2.24653,-7.96498l3.3698,-3.16557l2.0423,-5.20787l6.53537,-8.98614l3.06346,-1.53173c0,0 2.34865,-0.61269 2.55288,-1.42961s1.63384,-1.83807 2.45076,-1.94019c0.81692,-0.10212 1.02115,-5.00364 1.02115,-5.00364l4.90153,-8.27133l2.0423,-5.71845l0.40846,-5.51422l1.63384,-4.08461l2.0423,-5.71845l1.73596,-7.86287l3.57403,-5.92268c0,0 0.61269,-6.53537 0.10212,-7.65864c-0.51058,-1.12327 -3.88038,-10.00729 -2.55288,-11.64113c1.22538,-1.63384 -1.63384,0.20423 -1.63384,0.20423l-1.02115,-3.67615c0,0 1.53173,3.57403 1.63384,0.30635c0.10212,-3.26769 1.12327,-9.80306 1.22538,-16.03208s1.73596,-9.08825 2.34865,-11.23267c0.71481,-2.14442 -0.91904,-6.7396 -2.65499,-3.98249c-1.83807,2.65499 -0.81692,4.18672 -2.0423,5.20787c-1.22538,1.02115 0.81692,2.0423 0.81692,2.0423l-4.79941,-3.16557l-2.34865,-5.71845l-3.67615,-2.85923l-4.6973,-7.04595l-3.98249,-1.12327c-0.81692,-3.67615 -0.91904,-8.98614 -5.61634,-5.82057l-1.3275,-5.82057c0,0 0.51058,-2.75711 0.51058,-4.39095c0.10212,-1.63384 -0.40846,-5.30999 -1.63384,-6.53537c-3.67615,-3.57403 -1.94019,2.24653 -2.0423,3.16557l-2.45076,-2.45076l-1.02115,0.71481l-2.14442,-4.08461l-2.24653,-0.30635l0,4.39095c-2.96134,-0.30635 -2.75711,-1.12327 -4.28884,-3.77826l-0.10212,-1.12327c2.75711,-0.40846 -1.3275,-2.24653 -1.02115,-3.67615c1.12327,-5.61634 -1.83807,-2.45076 -1.53173,-3.57403c0.20423,-0.81692 0.51058,-0.61269 -0.51058,-3.77826c-0.91904,-3.16557 -2.85923,-3.16557 -4.49307,-4.90153c-1.63384,-1.73596 -2.34865,-3.26769 -2.65499,-3.98249c-0.40846,-0.81692 1.12327,-0.10212 1.12327,-0.10212l-0.10212,-0.51058l1.83807,1.94019l-0.30635,-2.65499l1.83807,1.94019l1.12327,-0.10212l0.51058,-0.61269c-3.26769,-4.18672 -10.00729,-3.3698 -10.41575,-4.6973s-2.34865,-3.26769 -3.26769,-3.98249c-0.91904,-0.71481 -2.0423,0.81692 -2.0423,0.81692c-0.20423,-1.73596 0.10212,-3.26769 -2.0423,-3.06346c0,0 -0.40846,3.06346 -0.81692,1.73596c-0.40846,-1.3275 -1.73596,-7.35229 -4.08461,-6.53537c-2.34865,0.81692 -3.06346,-0.20423 -3.47192,-1.22538c-0.40846,-1.02115 -1.73596,1.22538 -1.73596,1.22538l-1.22538,-0.40846c0,0 1.94019,-2.55288 0.61269,-2.14442c-1.3275,0.40846 -5.71845,-1.12327 -6.22903,-3.26769c-0.20423,-0.91904 0.30635,-2.55288 0.20423,-3.67615c-0.20423,-1.83807 -1.12327,-4.6973 -0.91904,-6.22903l-3.67615,2.75711c0,0 2.45076,-4.6973 1.63384,-4.90153c-0.81692,-0.20423 -0.81692,-2.0423 -1.02115,-3.67615c-0.20423,-1.63384 -2.85923,-7.55652 -3.26769,-8.27133c-0.40846,-0.81692 1.63384,-0.20423 1.63384,-0.20423s2.14442,-0.51058 -0.10212,-1.12327s-6.94383,-4.79941 -7.96498,-6.63749s1.53173,-0.71481 1.53173,-0.71481l-3.67615,-11.53902c0,0 1.12327,-1.53173 0.81692,-2.24653c-0.40846,-0.81692 -0.10212,-2.96134 0.10212,-3.88038c0.20423,-0.81692 -10.00729,-5.30999 -10.00729,-5.30999l-1.12327,-4.79941c0,0 -2.65499,5.10576 -2.96134,2.55288c-0.30635,-2.55288 -2.24653,2.24653 -4.59518,2.24653c-2.45076,0 -2.96134,-4.28884 -3.3698,-5.00364c-0.40846,-0.81692 -1.53173,-3.57403 -1.53173,-3.57403s0.20423,-3.06346 0,-4.39095c-0.20423,-1.3275 -1.42961,-4.6973 -0.91904,-7.55652c0.51058,-2.75711 -2.65499,0.30635 -2.65499,0.30635l1.22538,-3.47192c0,0 -4.90153,-1.83807 -4.79941,-3.16557c0.10212,-1.3275 1.83807,-2.45076 2.14442,-4.59518c0.30635,-2.24653 -3.77826,0 -5.20787,-2.0423c-1.3275,-2.0423 -2.55288,-8.57768 -5.30999,-11.33479c-2.75711,-2.75711 2.14442,-2.65499 0.10212,-3.88038l0,0c-2.14442,-1.12327 -5.00364,3.47192 -6.94383,9.59883c-1.94019,6.12691 -3.98249,15.92997 -4.28884,17.4617c-0.40846,1.53173 3.26769,-0.40846 3.26769,-0.40846s-2.75711,4.49307 -2.65499,5.20787c0.10212,0.81692 0.91904,3.16557 0.61269,4.79941c-0.30635,1.73596 -1.73596,3.77826 -1.42961,6.22903c0.30635,2.45076 1.42961,2.55288 1.63384,4.18672c0.20423,1.63384 -0.10212,3.57403 0.10212,4.90153c0.20423,1.3275 1.3275,6.33114 1.3275,6.33114s-1.42961,5.92268 -1.73596,7.86287c-0.30635,1.94019 -0.20423,6.53537 -1.3275,10.51786c-1.12327,3.98249 -2.65499,5.20787 -2.96134,6.43326c-0.40846,1.12327 -0.51058,2.24653 -1.12327,3.98249c-0.61269,1.73596 -6.84172,6.33114 -9.08825,6.0248c-2.24653,-0.30635 5.30999,2.75711 -5.82057,-2.55288s-7.76075,-9.3946 -18.68708,-9.08825s-1.22538,-3.26769 -5.51422,-4.79941c-4.28884,-1.53173 -19.81035,-9.59883 -23.28226,-11.94748s-1.02115,-0.81692 -1.83807,-0.71481c-0.81692,0.10212 -1.53173,0.51058 -2.55288,-1.22538c-1.02115,-1.83807 2.65499,-6.84172 4.08461,-7.65864c1.42961,-0.81692 0.51058,-11.13056 2.85923,-13.58132c2.34865,-2.45076 2.96134,-1.22538 3.67615,-3.67615c0.71481,-2.45076 -0.61269,-2.96134 0.10212,-3.88038c0.71481,-0.91904 -0.71481,-1.53173 -0.71481,-1.53173l3.88038,-3.77826l-2.55288,-2.96134c0,0 -1.3275,4.6973 -2.55288,1.42961s-3.26769,-3.06346 -6.63749,-0.81692c-3.3698,2.24653 1.63384,0.30635 1.63384,0.30635l-0.91904,1.22538c0,0 2.65499,-0.91904 2.24653,0.30635c-0.40846,1.12327 -1.63384,4.08461 -3.3698,3.16557s0.20423,-2.75711 -0.40846,-3.26769c-0.61269,-0.51058 0.30635,-1.63384 0.30635,-1.63384l-3.98249,2.65499l-0.61269,-0.51058l2.85923,-3.06346c0,0 0.30635,-0.61269 0,-0.81692s-1.42961,0.51058 -1.22538,-0.10212c0.20423,-0.51058 -9.08825,4.79941 -10.1094,2.34865c-1.02115,-2.34865 -1.53173,0.71481 -1.53173,0.71481s1.53173,-2.96134 -1.3275,-1.42961c-2.85923,1.42961 -4.08461,1.94019 -7.45441,1.53173c-3.3698,-0.51058 -2.85923,-1.22538 -3.98249,-1.12327c-1.12327,0.10212 0.91904,-1.22538 0.91904,-1.22538l-0.10212,-0.51058c0,0 -6.63749,1.42961 -6.43326,0.81692c0.20423,-0.61269 0.30635,-1.63384 -0.30635,-2.14442c-0.61269,-0.51058 1.83807,-2.45076 0.81692,-1.73596c-1.02115,0.71481 -1.22538,2.55288 -2.34865,3.06346s-4.28884,-3.26769 -4.90153,-3.77826c-0.61269,-0.51058 -2.96134,2.55288 -2.96134,2.55288s-0.71481,-7.55652 -1.42961,-6.94383c-0.71481,0.61269 -1.63384,2.34865 -1.73596,3.47192"/>
   <path stroke="null" id="svg_34" fill="url(#svg_30)" d="m147.97547,419.90595c-1.12327,1.83807 -1.63384,3.98249 -1.63384,6.33114c0,1.53173 0.30635,2.85923 0.81692,3.88038l18.58496,31.45148c0.51058,0.91904 1.12327,1.42961 1.94019,1.42961c1.53173,0 3.06346,-1.22538 4.49307,-3.67615l64.84315,-112.32671c0.61269,-1.22538 1.02115,-2.34865 1.02115,-3.3698c0,-2.24653 -1.22538,-3.3698 -3.77826,-3.3698l-154.29605,0c-1.83807,0 -3.88038,0.61269 -5.92268,1.94019c-2.14442,1.3275 -3.67615,2.85923 -4.6973,4.79941l-34.9234,60.35008c-0.61269,1.22538 -1.02115,2.34865 -1.02115,3.3698c0,2.24653 1.3275,3.3698 3.88038,3.3698l33.49378,0c1.73596,0 3.67615,-0.61269 5.82057,-1.94019c2.14442,-1.3275 3.67615,-2.85923 4.6973,-4.79941l31.04302,-53.61048c1.12327,-1.83807 2.65499,-3.47192 4.79941,-4.79941c2.0423,-1.3275 3.98249,-1.94019 5.82057,-1.94019l0,0c2.55288,0 3.77826,1.12327 3.77826,3.3698c0,1.02115 -0.30635,2.14442 -1.02115,3.3698l-31.04302,53.61048c-0.61269,1.22538 -0.91904,2.34865 -0.91904,3.3698c0,2.24653 1.3275,3.3698 3.88038,3.3698l33.5959,0c1.73596,0 3.67615,-0.61269 5.82057,-1.94019c2.14442,-1.3275 3.67615,-2.85923 4.6973,-4.6973l30.9409,-53.71259c1.12327,-1.83807 2.65499,-3.47192 4.79941,-4.79941c2.0423,-1.3275 3.98249,-1.94019 5.82057,-1.94019l0,0c2.55288,0 3.77826,1.12327 3.77826,3.3698c0,1.02115 -0.30635,2.14442 -1.02115,3.3698l-38.08897,66.17064l0,0zm106.30191,-79.64985c-1.83807,0 -3.88038,0.61269 -5.92268,1.94019c-2.14442,1.3275 -3.67615,2.85923 -4.6973,4.79941l-34.9234,60.35008c-0.61269,1.22538 -1.02115,2.34865 -1.02115,3.3698c0,2.24653 1.3275,3.3698 3.88038,3.3698l33.49378,0c1.73596,0 3.67615,-0.61269 5.82057,-1.94019c2.14442,-1.3275 3.67615,-2.85923 4.6973,-4.79941l31.14513,-53.61048c1.12327,-1.83807 2.65499,-3.47192 4.79941,-4.79941c2.0423,-1.3275 3.98249,-1.94019 5.82057,-1.94019l0,0c2.55288,0 3.77826,1.12327 3.77826,3.3698c0,1.02115 -0.30635,2.14442 -1.02115,3.3698l-3.88038,6.7396c-0.61269,1.22538 -1.02115,2.34865 -1.02115,3.3698c0,2.24653 1.3275,3.3698 3.88038,3.3698l33.49378,0c1.73596,0 3.67615,-0.61269 5.82057,-1.94019c2.14442,-1.3275 3.67615,-2.85923 4.6973,-4.79941l7.86287,-13.37709c0.61269,-1.22538 1.02115,-2.34865 1.02115,-3.3698c0,-2.24653 -1.22538,-3.3698 -3.77826,-3.3698l-93.94598,-0.10212l0,0zm112.53094,0c-1.83807,0 -3.88038,0.61269 -5.92268,1.94019c-2.14442,1.3275 -3.67615,2.85923 -4.6973,4.79941l-7.86287,13.37709c-0.61269,1.22538 -1.02115,2.34865 -1.02115,3.3698c0,2.24653 1.3275,3.3698 3.88038,3.3698l33.5959,0c1.73596,0 3.67615,-0.61269 5.82057,-1.94019c2.14442,-1.3275 3.67615,-2.85923 4.6973,-4.6973l3.88038,-6.7396c1.12327,-1.83807 2.65499,-3.47192 4.6973,-4.79941c2.0423,-1.3275 3.98249,-1.94019 5.82057,-1.94019l0,0c2.55288,0 3.77826,1.12327 3.77826,3.3698c0,1.02115 -0.30635,2.14442 -0.91904,3.3698l-7.76075,13.37709c-1.12327,1.83807 -2.65499,3.47192 -4.79941,4.6973c-2.0423,1.3275 -3.98249,1.94019 -5.92268,1.94019l0,0l-46.97299,0c-1.83807,0 -3.77826,0.61269 -5.82057,1.94019c-2.0423,1.3275 -3.67615,2.85923 -4.79941,4.79941l-15.52151,26.8563c-0.61269,1.22538 -1.02115,2.34865 -1.02115,3.3698c0,2.24653 1.3275,3.3698 3.88038,3.3698l93.84386,0c1.73596,0 3.67615,-0.61269 5.82057,-1.94019c2.14442,-1.3275 3.67615,-2.85923 4.6973,-4.79941l34.9234,-60.35008c0.61269,-1.22538 1.02115,-2.34865 1.02115,-3.3698c0,-2.24653 -1.22538,-3.3698 -3.77826,-3.3698l-93.53751,0l0,0zm18.68708,60.35008c-1.02115,1.83807 -2.55288,3.47192 -4.6973,4.79941c-2.14442,1.3275 -4.08461,1.94019 -5.92268,1.94019l0,0c-2.55288,0 -3.77826,-1.12327 -3.77826,-3.3698c0,-1.02115 0.30635,-2.14442 1.02115,-3.3698l7.86287,-13.37709c1.02115,-1.83807 2.55288,-3.47192 4.59518,-4.79941c2.0423,-1.3275 3.98249,-1.94019 5.82057,-1.94019l0,0c2.65499,0 3.88038,1.12327 3.88038,3.3698c0,1.02115 -0.30635,2.14442 -1.02115,3.3698l-7.76075,13.37709l0,0z"/>
   <path stroke="null" id="svg_35" fill="url(#svg_29)" d="m190.35327,111.62019c21.64842,-24.40553 45.95184,-40.74396 70.86794,-55.34643l15.11305,0.51058c0,0 -0.81692,6.12691 -1.63384,11.4369c-2.55288,1.42961 -6.7396,6.84172 -3.67615,9.70094c1.22538,0.91904 1.73596,0.81692 3.3698,0.61269l0.10212,0.20423c-12.7644,6.22903 -26.44783,13.68344 -41.86723,23.89495c17.76804,-2.85923 35.33186,-4.28884 52.48721,-4.18672c0.30635,11.74325 0.61269,23.48649 0.91904,35.22974c-17.4617,0.81692 -35.22974,0.20423 -52.07875,6.22903c24.91611,5.41211 42.9905,12.96863 58.40989,21.23996c0.71481,6.0248 1.3275,11.94748 2.0423,17.97227c-9.59883,-0.51058 -19.19766,-1.02115 -28.79648,-1.53173c-11.23267,-7.45441 -51.0576,-16.44055 -72.70602,-13.78555c3.88038,15.82785 11.74325,30.2261 20.01458,40.13127c-9.90517,11.53902 -21.54631,18.89131 -34.71916,22.36323c-5.71845,-10.7221 -11.33479,-25.42668 -17.05324,-42.27569c-11.53902,21.75054 -26.75418,35.02551 -42.9905,45.84972c-11.84536,-1.63384 -20.32092,-3.57403 -28.59225,-7.04595c0,-6.43326 -0.30635,-13.78555 -0.30635,-20.21881c12.86651,-3.88038 23.58861,-11.53902 35.53609,-23.38438c-14.29613,-0.61269 -27.46899,-3.88038 -40.3355,-8.16922l0.10212,-3.88038c1.12327,0 2.24653,0.40846 3.88038,-0.20423c3.67615,-1.02115 12.86651,-6.0248 15.31728,-8.47556c2.96134,-2.55288 5.61634,-7.25018 5.10576,-11.53902l2.0423,-0.81692l-0.30635,-2.14442l6.33114,-5.71845l-0.81692,-2.0423l-2.0423,0.81692c0.20423,-2.85923 -1.02115,-5.51422 -1.3275,-7.96498c3.16557,0.40846 6.22903,0.71481 9.29248,1.02115c-2.24653,-2.24653 -4.28884,-4.6973 -6.22903,-7.04595c0.20423,-0.20423 0.51058,-0.30635 0.81692,-0.51058l1.42961,-1.83807c0.71481,-3.3698 1.22538,-3.47192 2.96134,-6.43326l4.28884,-0.51058l-3.77826,4.28884l2.24653,0.30635c0.91904,3.16557 3.47192,5.61634 5.41211,8.0671l0.30635,-1.63384l0.71481,1.53173l-0.61269,-4.79941l2.65499,-0.30635l-6.0248,-4.6973l0.71481,1.02115c-1.73596,-0.81692 0.20423,-2.75711 1.12327,-3.98249l-3.47192,-1.22538l0.30635,-2.24653l1.73596,0.91904l3.67615,-1.02115l0.10212,1.12327l1.02115,-0.71481c1.73596,0.81692 1.73596,0.81692 3.3698,0.61269l2.34865,1.3275c0.30635,-2.24653 0.20423,-2.75711 2.34865,-3.06346l0.30635,-2.24653l-2.0423,1.3275c-1.42961,-4.08461 -1.42961,-4.79941 -1.22538,-5.41211c5.61634,6.12691 11.64113,12.25382 18.38073,18.1765c0.61269,-13.68344 1.12327,-27.36687 2.0423,-40.3355l2.14442,-1.94019l-0.51058,-0.61269l0.40846,-1.12327l1.63384,0.30635l0.10212,1.12327l-1.53173,0.71481l1.83807,1.94019l0.40846,-5.00364c2.0423,-1.3275 3.06346,-1.53173 5.00364,0.40846l1.02115,-0.71481l0.10212,1.12327c3.57403,-1.53173 8.67979,3.77826 10.21152,6.84172l3.57403,0.30635l-0.71481,4.79941c1.02115,-0.71481 2.34865,-3.06346 3.3698,-3.16557c2.34865,-1.3275 6.22903,-0.51058 8.67979,0.20423l-2.34865,25.63091l0,0zm-56.77605,-12.15171l0.10212,0.10212l-0.20423,-0.10212l0.10212,0z"/>
   <g stroke="null" transform="matrix(1.0211519077814226,0,0,1.0211519077814226,-7699.081588828341,-6085.371304323883) " id="svg_36">
    <path stroke="#5C0000" id="svg_37" fill="none" stroke-width="0.0139" d="m7803.51475,6014.22824l6.2,0.2l-0.5,3.6l-0.5,3.4c-24.6,13.4 -46.1,26.5 -63.4,43.5c-4.8,1.4 -14.7,5.4 -18.9,7.5c19.8,-19.6 47,-40.3 77.1,-58.2l0,0zm15,47.8l0.5,21.3c-34.1,-1.2 -67.3,8.1 -99.9,28.8c5,23.4 12.5,41.2 23.3,52c-6.2,5.9 -13,10.4 -20.3,13.5c-9.4,-15.9 -17.7,-34.5 -22,-56.9c-22.4,8.7 -46.2,5.6 -68.9,-0.6c3.8,-1.9 8.1,-4.5 9.6,-6.1c2.9,-2.5 5.5,-7.1 5,-11.3l2,-0.8l-0.3,-2.1l6.2,-5.6c15.1,0 29.7,-0.9 43.6,-3.7c0.1,-19.9 1.4,-40.4 3.8,-57.6c0.3,0.2 0.7,0.5 1.1,0.9l1,-0.7l0.1,1.1c3.5,-1.5 8.5,3.7 10,6.7l3.8,0.6l-1,4.4c1,-0.7 2.3,-3 3.3,-3.1c0.4,-0.2 0.9,-0.4 1.3,-0.5c-1.1,12.7 -2,26.3 -2.5,41.5c33.9,-15.5 64.1,-21.5 100.3,-21.8l0,0zm7.6,60.5l1,8.8c-24.1,-13.7 -52.5,-22.3 -84.6,-24.2c5.3,-2.6 12.2,-6.3 17.5,-8.5c24.4,4.2 45.7,13.2 66.1,23.9l0,0zm-181.5,59.7c-5.9,-1.2 -10.9,-2.5 -15.9,-4.4c20.4,-11.9 39.6,-24.3 52.8,-42.4c4.8,-0.7 8.1,-0.7 12.4,-1.2c-11.9,19.8 -29,34.3 -49.3,48l0,0zm10.8,-107.7c0.5,-1.3 1.1,-1.9 2.3,-3.9l3.5,-2l0.3,-2.2l0.9,0.5c5.3,6.8 11,12.7 17.4,17.2c-13.4,0.4 -15.5,1.1 -24.4,-9.6l0,0z"/>
    <linearGradient stroke="null" transform="translate(13.710007667541504,-5.8757171630859375) translate(-59.455162048339844,-58.37416076660156) translate(-51.815162658691406,-29.95564079284668) translate(-209.68948364257812,227.50094604492188) translate(7500.16455078125,0) translate(0,5760.6328125) " y2="0.02689" x2="0.98612" y1="1.07427" x1="0.09923" id="svg_28">
     <stop stroke="null" stop-color="#F2002C" offset="0"/>
     <stop stroke="null" stop-color="#91001B" offset="0.2588"/>
     <stop stroke="null" stop-color="#AD001F" offset="0.3608"/>
     <stop stroke="null" stop-color="#FF0000" offset="0.4392"/>
     <stop stroke="null" stop-color="#FF0000" offset="0.7804"/>
     <stop stroke="null" stop-color="#870015" offset="0.902"/>
     <stop stroke="null" stop-color="#800017" offset="1"/>
    </linearGradient>
    <path stroke="null" id="svg_38" fill="url(#svg_28)" d="m7803.51475,6014.22824l6.2,0.2l-0.5,3.6l-0.5,3.4c-24.6,13.4 -46.1,26.5 -63.4,43.5c-4.8,1.4 -14.7,5.4 -18.9,7.5c19.8,-19.6 47,-40.3 77.1,-58.2l0,0zm15,47.8l0.5,21.3c-34.1,-1.2 -67.3,8.1 -99.9,28.8c5,23.4 12.5,41.2 23.3,52c-6.2,5.9 -13,10.4 -20.3,13.5c-9.4,-15.9 -17.7,-34.5 -22,-56.9c-22.4,8.7 -46.2,5.6 -68.9,-0.6c3.8,-1.9 8.1,-4.5 9.6,-6.1c2.9,-2.5 5.5,-7.1 5,-11.3l2,-0.8l-0.3,-2.1l6.2,-5.6c15.1,0 29.7,-0.9 43.6,-3.7c0.1,-19.9 1.4,-40.4 3.8,-57.6c0.3,0.2 0.7,0.5 1.1,0.9l1,-0.7l0.1,1.1c3.5,-1.5 8.5,3.7 10,6.7l3.8,0.6l-1,4.4c1,-0.7 2.3,-3 3.3,-3.1c0.4,-0.2 0.9,-0.4 1.3,-0.5c-1.1,12.7 -2,26.3 -2.5,41.5c33.9,-15.5 64.1,-21.5 100.3,-21.8l0,0zm7.6,60.5l1,8.8c-24.1,-13.7 -52.5,-22.3 -84.6,-24.2c5.3,-2.6 12.2,-6.3 17.5,-8.5c24.4,4.2 45.7,13.2 66.1,23.9l0,0zm-181.5,59.7c-5.9,-1.2 -10.9,-2.5 -15.9,-4.4c20.4,-11.9 39.6,-24.3 52.8,-42.4c4.8,-0.7 8.1,-0.7 12.4,-1.2c-11.9,19.8 -29,34.3 -49.3,48l0,0zm10.8,-107.7c0.5,-1.3 1.1,-1.9 2.3,-3.9l3.5,-2l0.3,-2.2l0.9,0.5c5.3,6.8 11,12.7 17.4,17.2c-13.4,0.4 -15.5,1.1 -24.4,-9.6l0,0z"/>
   </g>
   <path stroke="null" id="svg_39" fill="url(#svg_27)" d="m399.28095,96.71137l3.06346,15.31728l2.85923,-2.0423l1.02115,-0.91904l0.51058,4.39095c0.20423,1.63384 -0.61269,3.3698 0,4.39095c0,0.10212 0,0.20423 0,0.30635l-0.30635,0.51058l0.51058,0.30635c0.71481,1.53173 2.45076,2.45076 4.28884,2.55288l1.53173,0.91904l-0.51058,0.61269l2.24653,0.81692l0.20423,-0.20423l2.14442,1.3275l-12.25382,3.06346l1.53173,16.03208l-7.86287,-10.92633l-8.57768,13.68344l2.34865,-16.74689l-12.15171,1.02115l10.82421,-9.90517l-6.43326,-12.35594l11.13056,4.28884l3.88038,-16.44055zm-79.24139,57.69508c1.83807,2.34865 3.67615,4.6973 5.61634,7.04595c1.94019,2.34865 3.88038,4.6973 5.82057,7.04595c0.81692,-3.88038 1.73596,-7.76075 2.75711,-11.64113c0.61269,2.85923 1.3275,5.61634 2.0423,8.47556c0.71481,2.85923 1.53173,5.61634 2.34865,8.47556c1.83807,0.51058 3.67615,1.02115 5.51422,1.53173c1.83807,0.51058 3.67615,1.02115 5.51422,1.53173c-1.94019,2.34865 -3.77826,4.59518 -5.61634,6.94383c2.14442,2.55288 4.18672,5.20787 6.43326,7.76075c2.24653,2.55288 4.49307,5.20787 6.7396,7.76075c-2.24653,-1.42961 -4.49307,-2.75711 -6.7396,-4.18672c-2.24653,-1.42961 -4.39095,-2.75711 -6.63749,-4.18672c0.81692,2.75711 1.73596,5.41211 2.65499,8.16922c0.91904,2.75711 1.94019,5.41211 3.06346,8.16922c-2.0423,-2.85923 -4.08461,-5.82057 -6.12691,-8.67979c-1.94019,-2.85923 -3.88038,-5.82057 -5.71845,-8.67979c-2.24653,1.63384 -4.49307,3.16557 -6.7396,4.79941c-0.20423,-2.24653 -0.30635,-4.39095 -0.40846,-6.63749c-0.10212,-2.24653 -0.10212,-4.39095 -0.20423,-6.63749c-2.14442,-1.73596 -4.28884,-3.3698 -6.43326,-5.10576c-2.14442,-1.73596 -4.18672,-3.3698 -6.33114,-5.10576c1.73596,0.10212 3.3698,0.30635 5.10576,0.40846c1.73596,0.10212 3.3698,0.30635 5.10576,0.40846c-1.3275,-2.96134 -2.75711,-5.82057 -3.98249,-8.78191c-1.42961,-3.06346 -2.55288,-5.92268 -3.77826,-8.88402l0,0zm106.60826,134.28148c0.61269,1.73596 1.3275,3.3698 1.94019,5.10576c0.61269,1.63384 1.3275,3.3698 1.94019,5.00364c2.14442,-1.53173 4.28884,-3.06346 6.43326,-4.6973c2.14442,-1.63384 4.28884,-3.3698 6.43326,-5.20787c-1.3275,2.24653 -2.65499,4.49307 -3.98249,6.7396c-1.3275,2.24653 -2.65499,4.39095 -3.98249,6.53537c2.0423,0.10212 4.08461,0.30635 6.0248,0.30635c2.0423,0 4.08461,-0.10212 6.0248,-0.20423c-2.34865,1.3275 -4.59518,2.65499 -6.94383,3.88038c-2.34865,1.22538 -4.59518,2.24653 -6.94383,3.26769c0.40846,1.83807 0.71481,3.57403 1.12327,5.41211c0.40846,1.83807 0.71481,3.57403 1.12327,5.41211c-3.16557,-1.73596 -6.22903,-3.47192 -9.3946,-5.41211c-1.53173,1.94019 -3.16557,3.77826 -4.6973,5.71845c-1.53173,1.83807 -3.16557,3.67615 -4.6973,5.41211c0.40846,-2.0423 0.71481,-4.08461 1.12327,-6.0248c0.40846,-2.0423 0.71481,-4.08461 1.12327,-6.12691c-2.34865,0.40846 -4.59518,0.71481 -6.94383,0.91904c-2.34865,0.20423 -4.59518,0.40846 -6.94383,0.51058c2.0423,-1.22538 4.08461,-2.34865 6.0248,-3.67615c2.0423,-1.22538 4.08461,-2.65499 6.0248,-3.98249c-2.65499,-2.75711 -5.30999,-5.51422 -7.96498,-8.37345c2.14442,0.40846 4.28884,0.81692 6.43326,1.12327c2.14442,0.30635 4.28884,0.51058 6.43326,0.71481c0.61269,-2.0423 1.3275,-4.08461 1.94019,-6.22903c1.02115,-1.94019 1.73596,-4.08461 2.34865,-6.12691l0,0zm13.17286,-84.95984l0.51058,11.13056l-7.96498,7.76075l9.08825,-2.24653l0.51058,10.41575l4.28884,-12.86651l9.08825,-2.0423l-6.0248,-5.30999l2.85923,-11.23267l-6.94383,7.65864l-5.41211,-3.26769zm-240.88974,100.48135l2.45076,-10.31363c-10.92633,4.08461 -21.64842,4.79941 -32.2684,5.00364c9.08825,-5.92268 18.38073,-11.84536 28.18379,-17.05324c-6.53537,-5.30999 -11.84536,-9.80306 -19.504,-14.39824c7.35229,-1.3275 19.19766,-2.0423 29.61341,-1.12327c2.0423,-7.86287 1.94019,-17.66593 1.63384,-27.67322c4.90153,5.00364 9.80306,10.31363 14.39824,18.58496c6.53537,-6.94383 13.58132,-15.31728 20.62727,-23.58861c-2.34865,11.53902 -4.6973,22.97592 -9.3946,32.06417c8.88402,1.3275 15.72574,3.67615 21.03573,5.92268c-6.94383,5.00364 -15.01093,8.78191 -24.60976,12.25382l1.3275,7.76075c-4.6973,0.51058 -10.51786,1.12327 -14.39824,2.96134c-0.71481,0.30635 -1.3275,0.61269 -1.94019,1.02115l-0.20423,-0.10212l-2.85923,2.24653c-0.20423,0.10212 -0.30635,0.20423 -0.51058,0.40846l-11.84536,5.92268l-1.73596,0.10212l0,0z"/>
   <path stroke="null" id="svg_40" d="m44.12432,475.55873c-0.51058,0.91904 -0.91904,1.83807 -1.42961,2.65499s-0.81692,1.53173 -1.22538,2.24653l-5.61634,9.80306l-7.65864,0l14.60247,-25.12034l10.51786,0l-3.26769,9.29248c-0.10212,0.20423 -0.20423,0.51058 -0.30635,0.81692c-0.10212,0.30635 -0.20423,0.61269 -0.40846,1.12327c-0.10212,0.40846 -0.30635,0.71481 -0.40846,1.12327c-0.20423,0.40846 -0.30635,0.81692 -0.51058,1.22538c0.30635,-0.40846 0.61269,-0.81692 1.02115,-1.3275c0.40846,-0.51058 0.81692,-1.12327 1.42961,-1.83807l8.47556,-10.41575l10.82421,0l-14.60247,25.12034l-7.65864,0l6.0248,-10.41575c0.10212,-0.10212 0.30635,-0.51058 0.61269,-1.02115c0.30635,-0.51058 0.91904,-1.53173 1.83807,-3.06346l-0.71481,0.91904c-1.22538,1.42961 -2.0423,2.45076 -2.55288,3.06346l-8.98614,10.41575l-4.39095,0l3.06346,-9.90517c0.10212,-0.40846 0.30635,-0.91904 0.51058,-1.63384c0,-0.61269 0.30635,-1.63384 0.81692,-3.06346l0,0z"/>
   <path stroke="null" id="svg_41" d="m76.9033,476.06931c-0.51058,0 -1.12327,0.10212 -1.53173,0.30635c-0.51058,0.20423 -0.91904,0.61269 -1.53173,1.12327c-0.51058,0.51058 -1.02115,1.22538 -1.53173,2.0423c-0.51058,0.81692 -0.91904,1.63384 -1.22538,2.34865c-0.30635,0.81692 -0.40846,1.42961 -0.20423,1.83807c0.20423,0.40846 0.61269,0.61269 1.3275,0.61269c0.61269,0 1.12327,-0.10212 1.53173,-0.40846c0.51058,-0.20423 1.02115,-0.71481 1.53173,-1.3275c0.51058,-0.51058 0.91904,-1.22538 1.42961,-2.0423c0.51058,-0.81692 0.91904,-1.53173 1.12327,-2.24653c0.30635,-0.81692 0.30635,-1.42961 0.20423,-1.73596c0,-0.30635 -0.51058,-0.51058 -1.12327,-0.51058l0,0zm-13.47921,6.43326c0.20423,-0.61269 0.61269,-1.42961 1.02115,-2.24653c0.40846,-0.81692 0.91904,-1.73596 1.53173,-2.65499c0.91904,-1.53173 1.83807,-2.85923 2.65499,-3.88038c0.81692,-1.02115 1.73596,-1.94019 2.65499,-2.75711c1.12327,-1.02115 2.45076,-1.73596 3.88038,-2.14442s3.16557,-0.61269 5.30999,-0.61269c3.3698,0 5.61634,0.61269 6.53537,1.73596c0.91904,1.12327 0.91904,3.06346 -0.10212,5.82057c-0.20423,0.61269 -0.51058,1.3275 -0.91904,2.14442c-0.40846,0.81692 -0.81692,1.63384 -1.3275,2.55288c-0.91904,1.63384 -1.83807,2.96134 -2.75711,4.08461c-0.91904,1.12327 -1.83807,2.24653 -2.75711,3.06346c-1.3275,1.22538 -2.75711,2.0423 -4.18672,2.55288c-1.53173,0.51058 -3.3698,0.81692 -5.51422,0.81692c-3.26769,0 -5.41211,-0.61269 -6.22903,-1.94019c-1.02115,-1.3275 -0.91904,-3.47192 0.20423,-6.53537l0,0z"/>
   <path stroke="null" d="m96.10095,489.85486c-1.53173,0.30635 -2.96134,0.61269 -4.28884,0.71481c-1.3275,0.20423 -2.65499,0.20423 -3.77826,0.20423c-1.53173,0 -2.55288,-0.30635 -2.96134,-0.91904c-0.40846,-0.61269 -0.40846,-1.63384 0.20423,-2.96134c0.10212,-0.30635 0.30635,-0.61269 0.40846,-0.91904c0.10212,-0.30635 0.30635,-0.61269 0.40846,-0.81692l4.6973,-8.16922l-2.65499,0l2.34865,-4.08461c2.75711,-1.94019 4.90153,-3.47192 6.43326,-4.59518c1.53173,-1.12327 2.85923,-2.24653 3.98249,-3.26769l4.49307,0l-2.24653,3.98249l6.22903,0l-4.59518,7.96498l-6.22903,0l-2.85923,5.00364c-0.10212,0.20423 -0.20423,0.30635 -0.30635,0.51058c-0.10212,0.20423 -0.20423,0.40846 -0.20423,0.61269c-0.20423,0.51058 -0.20423,0.81692 0,1.02115c0.20423,0.20423 0.51058,0.30635 1.12327,0.30635c0.40846,0 0.91904,0 1.63384,-0.20423c0.71481,-0.10212 1.53173,-0.20423 2.55288,-0.40846l-4.39095,6.0248l0,0z" id="svg_26"/>
   <path stroke="null" id="svg_42" d="m117.2388,476.06931c-0.61269,0 -1.12327,0.10212 -1.53173,0.30635c-0.51058,0.20423 -0.91904,0.61269 -1.53173,1.12327c-0.51058,0.51058 -1.02115,1.22538 -1.53173,2.0423c-0.51058,0.81692 -0.91904,1.63384 -1.22538,2.34865c-0.30635,0.81692 -0.40846,1.42961 -0.20423,1.83807c0.20423,0.40846 0.61269,0.61269 1.3275,0.61269c0.61269,0 1.12327,-0.10212 1.53173,-0.40846s1.02115,-0.71481 1.53173,-1.3275c0.51058,-0.51058 0.91904,-1.22538 1.42961,-2.0423s0.91904,-1.53173 1.12327,-2.24653c0.30635,-0.81692 0.30635,-1.42961 0.20423,-1.73596c0,-0.30635 -0.40846,-0.51058 -1.12327,-0.51058l0,0zm-13.37709,6.43326c0.20423,-0.61269 0.61269,-1.42961 1.02115,-2.24653c0.40846,-0.81692 0.91904,-1.73596 1.53173,-2.65499c0.91904,-1.53173 1.83807,-2.85923 2.65499,-3.88038c0.81692,-1.02115 1.73596,-1.94019 2.65499,-2.75711c1.12327,-1.02115 2.45076,-1.73596 3.88038,-2.14442c1.42961,-0.40846 3.16557,-0.61269 5.30999,-0.61269c3.3698,0 5.61634,0.61269 6.53537,1.73596c0.91904,1.12327 0.91904,3.06346 -0.10212,5.82057c-0.20423,0.61269 -0.51058,1.3275 -0.91904,2.14442c-0.40846,0.81692 -0.81692,1.63384 -1.3275,2.55288c-0.91904,1.63384 -1.83807,2.96134 -2.75711,4.08461c-0.91904,1.12327 -1.83807,2.24653 -2.75711,3.06346c-1.3275,1.22538 -2.75711,2.0423 -4.18672,2.55288c-1.53173,0.51058 -3.3698,0.81692 -5.51422,0.81692c-3.26769,0 -5.41211,-0.61269 -6.22903,-1.94019c-1.12327,-1.3275 -0.91904,-3.47192 0.20423,-6.53537l0,0z"/>
   <path stroke="null" d="m122.24244,490.1612l12.35594,-21.23996l7.25018,0c-0.51058,0.81692 -1.02115,1.73596 -1.53173,2.55288c-0.51058,0.91904 -1.12327,1.83807 -1.73596,2.96134l0.10212,0c1.42961,-2.14442 2.85923,-3.67615 4.18672,-4.59518c1.3275,-1.02115 2.65499,-1.53173 4.08461,-1.53173c0.40846,0 0.81692,0 1.12327,0.10212c0.40846,0.10212 0.71481,0.20423 1.12327,0.40846l-6.53537,11.33479c-0.61269,-0.20423 -1.12327,-0.30635 -1.63384,-0.40846c-0.51058,-0.10212 -1.02115,-0.10212 -1.53173,-0.10212c-1.22538,0 -2.34865,0.40846 -3.3698,1.12327c-0.91904,0.71481 -2.0423,2.14442 -3.16557,4.08461l-3.06346,5.20787l-7.65864,0l0,0.10212z" id="svg_25"/>
   <path stroke="null" id="svg_43" d="m151.34527,490.1612l14.60247,-25.12034l15.01093,0c1.53173,0 2.45076,0.51058 2.85923,1.42961c0.40846,0.91904 0.20423,2.34865 -0.51058,4.28884c-1.12327,2.96134 -2.55288,5.20787 -4.28884,6.7396c-1.73596,1.53173 -3.67615,2.24653 -5.82057,2.24653l-0.40846,0l1.42961,10.51786l-9.49671,0l-0.30635,-5.82057c0,-0.40846 0,-0.81692 0,-1.22538c0,-0.40846 0,-1.02115 0.10212,-1.63384l-0.20423,0.40846c-0.91904,1.63384 -1.3275,2.45076 -1.42961,2.65499l-3.26769,5.61634l-8.27133,0l0,-0.10212zm15.41939,-12.7644l2.65499,0c1.12327,0 2.14442,-0.30635 2.85923,-0.81692c0.71481,-0.51058 1.3275,-1.42961 1.73596,-2.55288c0.20423,-0.61269 0.30635,-1.12327 0.10212,-1.42961c-0.20423,-0.30635 -0.51058,-0.40846 -1.22538,-0.40846l-3.06346,0l-3.06346,5.20787l0,0z"/>
   <path stroke="null" id="svg_44" d="m192.90615,476.57988c-0.61269,0 -1.12327,0.10212 -1.63384,0.40846c-0.51058,0.30635 -1.02115,0.71481 -1.63384,1.42961c-0.40846,0.51058 -0.81692,1.12327 -1.22538,1.73596c-0.40846,0.71481 -0.71481,1.22538 -0.91904,1.73596c-0.20423,0.61269 -0.30635,1.12327 -0.10212,1.53173c0.20423,0.40846 0.61269,0.51058 1.22538,0.51058c1.02115,0 1.94019,-0.51058 2.96134,-1.53173c1.02115,-1.02115 1.83807,-2.34865 2.34865,-3.88038c0.20423,-0.61269 0.20423,-1.12327 0,-1.53173c0,-0.30635 -0.40846,-0.40846 -1.02115,-0.40846zm14.39824,-7.65864l-12.35594,21.23996l-7.55652,0c0.51058,-0.71481 0.91904,-1.53173 1.42961,-2.34865c0.51058,-0.81692 0.91904,-1.63384 1.42961,-2.45076c-1.53173,1.94019 -3.06346,3.26769 -4.39095,4.18672c-1.42961,0.81692 -2.85923,1.3275 -4.49307,1.3275c-1.63384,0 -2.65499,-0.51058 -3.16557,-1.63384c-0.40846,-1.02115 -0.30635,-2.65499 0.51058,-4.6973c0.61269,-1.53173 1.3275,-3.16557 2.34865,-4.90153c1.02115,-1.83807 2.0423,-3.3698 3.06346,-4.90153c1.73596,-2.24653 3.26769,-3.88038 4.79941,-4.90153c1.42961,-1.02115 3.06346,-1.42961 4.79941,-1.42961c1.63384,0 2.75711,0.40846 3.26769,1.12327c0.51058,0.71481 0.61269,1.94019 0.20423,3.57403c0.20423,-0.40846 0.51058,-1.02115 1.02115,-1.94019c0.51058,-0.91904 0.91904,-1.63384 1.22538,-2.14442l7.86287,0l0,-0.10212z"/>
   <path stroke="null" d="m215.26938,489.65063c-1.83807,0.40846 -3.47192,0.71481 -4.90153,0.91904c-1.42961,0.20423 -2.75711,0.30635 -3.98249,0.30635c-2.45076,0 -3.98249,-0.51058 -4.6973,-1.53173c-0.71481,-1.02115 -0.61269,-2.75711 0.30635,-5.00364c0.20423,-0.51058 0.51058,-1.12327 0.71481,-1.73596c0.30635,-0.61269 0.61269,-1.22538 1.02115,-1.94019c0.81692,-1.53173 1.73596,-2.96134 2.55288,-4.28884c0.81692,-1.3275 1.63384,-2.34865 2.45076,-3.16557c0.71481,-0.81692 1.42961,-1.53173 2.0423,-2.0423c0.61269,-0.51058 1.3275,-1.02115 1.94019,-1.3275c0.81692,-0.40846 1.73596,-0.81692 2.75711,-1.02115c1.12327,-0.20423 2.34865,-0.30635 3.67615,-0.30635c1.53173,0 2.96134,0.10212 4.18672,0.30635c1.3275,0.20423 2.45076,0.51058 3.57403,0.91904l-4.39095,7.55652c-0.81692,-0.10212 -1.53173,-0.30635 -2.24653,-0.30635c-0.71481,-0.10212 -1.3275,-0.10212 -1.94019,-0.10212c-0.91904,0 -1.83807,0.10212 -2.55288,0.20423c-0.71481,0.20423 -1.3275,0.40846 -1.83807,0.71481c-0.51058,0.40846 -1.12327,0.91904 -1.73596,1.73596c-0.61269,0.81692 -1.02115,1.53173 -1.3275,2.24653c-0.30635,0.71481 -0.20423,1.3275 0.10212,1.63384s1.12327,0.51058 2.24653,0.51058c0.81692,0 1.73596,-0.10212 2.75711,-0.20423c1.02115,-0.10212 2.0423,-0.30635 3.06346,-0.61269l-3.77826,6.53537l0,0z" id="svg_24"/>
   <path stroke="null" id="svg_45" d="m240.59395,462.89645c0.30635,0 0.61269,0.10212 0.61269,0.30635c0.10212,0.20423 0.10212,0.51058 -0.10212,0.81692c-0.10212,0.30635 -0.30635,0.71481 -0.61269,1.22538c-0.30635,0.51058 -0.51058,0.91904 -0.81692,1.3275c-0.30635,0.40846 -0.61269,0.71481 -1.02115,0.91904c-0.30635,0.20423 -0.71481,0.30635 -1.22538,0.30635l-5.00364,0c-0.30635,0 -0.61269,-0.10212 -0.71481,-0.30635c-0.10212,-0.20423 -0.10212,-0.51058 0.10212,-0.81692c0.10212,-0.30635 0.30635,-0.71481 0.61269,-1.22538c0.30635,-0.51058 0.51058,-0.91904 0.81692,-1.3275c0.30635,-0.40846 0.61269,-0.71481 1.02115,-0.91904c0.30635,-0.20423 0.71481,-0.30635 1.22538,-0.30635l5.10576,0l0,0zm-22.26111,27.26476l12.25382,-21.13784c0.61269,0.10212 1.22538,0.30635 1.73596,0.30635c0.61269,0.10212 1.12327,0.10212 1.73596,0.10212c0.61269,0 1.22538,0 1.94019,-0.10212c0.71481,-0.10212 1.53173,-0.20423 2.34865,-0.30635l-12.25382,21.13784l-7.76075,0z"/>
   <path stroke="null" d="m229.87185,490.1612l12.35594,-21.23996l7.45441,0c-0.51058,0.81692 -0.91904,1.73596 -1.42961,2.55288c-0.51058,0.81692 -1.02115,1.73596 -1.53173,2.55288c1.63384,-2.0423 3.16557,-3.47192 4.59518,-4.39095c1.42961,-0.81692 2.96134,-1.3275 4.6973,-1.3275c1.53173,0 2.55288,0.40846 2.96134,1.22538c0.51058,0.81692 0.40846,2.0423 -0.20423,3.67615c-0.20423,0.51058 -0.40846,1.02115 -0.71481,1.63384c-0.30635,0.61269 -0.71481,1.3275 -1.22538,2.24653l-7.45441,12.86651l-7.76075,0l5.00364,-8.67979c0.20423,-0.40846 0.40846,-0.71481 0.51058,-0.91904c0.10212,-0.30635 0.30635,-0.51058 0.30635,-0.71481c0.20423,-0.51058 0.20423,-1.02115 0.10212,-1.3275c-0.10212,-0.30635 -0.40846,-0.51058 -0.91904,-0.51058c-0.71481,0 -1.3275,0.30635 -1.94019,0.81692c-0.61269,0.51058 -1.22538,1.3275 -1.94019,2.45076l-5.20787,8.98614l-7.65864,0l0,0.10212z" id="svg_23"/>
   <path stroke="null" id="svg_46" d="m270.71793,475.76296c-0.40846,0 -0.91904,0.10212 -1.3275,0.30635c-0.40846,0.20423 -0.81692,0.40846 -1.12327,0.81692c-0.51058,0.51058 -1.02115,1.22538 -1.53173,1.94019c-0.51058,0.81692 -0.91904,1.53173 -1.12327,2.14442c-0.20423,0.61269 -0.20423,1.12327 -0.10212,1.42961c0.20423,0.30635 0.61269,0.51058 1.12327,0.51058c0.91904,0 1.94019,-0.51058 2.85923,-1.42961c0.91904,-0.91904 1.73596,-2.24653 2.34865,-3.77826c0.20423,-0.61269 0.20423,-1.02115 0,-1.3275c-0.20423,-0.40846 -0.51058,-0.61269 -1.12327,-0.61269zm14.19401,-6.84172l-10.82421,18.7892c-0.81692,1.42961 -1.63384,2.65499 -2.34865,3.47192c-0.71481,0.81692 -1.53173,1.53173 -2.45076,2.14442c-1.12327,0.81692 -2.45076,1.3275 -4.08461,1.73596c-1.53173,0.40846 -3.26769,0.61269 -5.20787,0.61269c-1.42961,0 -2.75711,-0.10212 -4.18672,-0.40846s-2.75711,-0.61269 -4.08461,-1.12327l2.65499,-4.6973c0.91904,0.40846 1.73596,0.61269 2.55288,0.81692c0.81692,0.20423 1.63384,0.30635 2.45076,0.30635c1.94019,0 3.57403,-0.51058 4.90153,-1.42961c1.3275,-0.91904 2.45076,-2.55288 3.57403,-4.6973c-1.22538,1.3275 -2.45076,2.24653 -3.57403,2.75711c-1.12327,0.51058 -2.34865,0.81692 -3.67615,0.81692c-1.94019,0 -3.26769,-0.51058 -3.77826,-1.53173c-0.61269,-1.02115 -0.51058,-2.55288 0.30635,-4.6973c0.40846,-1.22538 1.12327,-2.55288 2.0423,-4.08461c0.91904,-1.53173 1.83807,-2.85923 2.85923,-4.18672c1.53173,-1.94019 2.96134,-3.26769 4.39095,-4.08461c1.3275,-0.81692 2.96134,-1.12327 4.90153,-1.12327c1.63384,0 2.65499,0.40846 3.16557,1.12327s0.40846,2.0423 -0.10212,3.77826c0.51058,-0.81692 0.91904,-1.63384 1.3275,-2.34865c0.40846,-0.71481 0.81692,-1.42961 1.12327,-2.0423l8.0671,0l0,0.10212z"/>
   <path stroke="null" id="svg_47" d="m286.23944,490.1612l20.8315,-25.12034l13.47921,0l-9.59883,25.12034l-7.86287,0l1.42961,-3.67615l-6.33114,0l-2.96134,3.67615l-8.98614,0l0,0zm16.64478,-9.90517l4.18672,0l3.57403,-9.29248l-7.76075,9.29248l0,0z"/>
   <path stroke="null" d="m325.24744,468.92124l7.76075,0l-7.76075,13.27497c0,0.10212 -0.10212,0.10212 -0.10212,0.20423c-0.10212,0.20423 -0.20423,0.40846 -0.20423,0.51058c-0.10212,0.40846 -0.10212,0.71481 0.10212,0.91904c0.20423,0.20423 0.51058,0.30635 0.91904,0.30635c0.61269,0 1.12327,-0.20423 1.53173,-0.51058c0.40846,-0.30635 0.81692,-0.81692 1.22538,-1.53173l7.65864,-13.27497l7.76075,0l-7.76075,13.47921c-0.91904,1.63384 -1.73596,2.75711 -2.34865,3.57403c-0.61269,0.81692 -1.3275,1.42961 -2.0423,2.0423c-1.22538,0.91904 -2.65499,1.73596 -4.28884,2.24653s-3.3698,0.71481 -5.30999,0.71481c-2.85923,0 -4.79941,-0.51058 -5.82057,-1.42961s-1.12327,-2.34865 -0.40846,-4.39095c0.10212,-0.30635 0.30635,-0.71481 0.51058,-1.12327c0.20423,-0.40846 0.51058,-0.91904 0.81692,-1.42961l7.76075,-13.58132l0,0z" id="svg_22"/>
   <path stroke="null" d="m335.7653,489.85486l3.26769,-5.61634c1.12327,0.20423 2.0423,0.40846 2.96134,0.51058c0.91904,0.10212 1.63384,0.20423 2.34865,0.20423c1.42961,0 2.45076,-0.10212 3.06346,-0.30635c0.61269,-0.20423 1.02115,-0.61269 1.22538,-1.12327c0.10212,-0.30635 0.10212,-0.51058 0,-0.61269c-0.10212,-0.10212 -0.30635,-0.20423 -0.51058,-0.20423c-0.10212,0 -0.51058,0 -1.22538,0.10212c-0.71481,0 -1.42961,0.10212 -2.0423,0.10212c-1.53173,0 -2.55288,-0.40846 -2.96134,-1.12327c-0.40846,-0.71481 -0.40846,-1.94019 0.20423,-3.47192c0.51058,-1.22538 1.12327,-2.55288 2.0423,-3.77826c0.81692,-1.3275 1.73596,-2.34865 2.65499,-3.16557c1.02115,-0.91904 2.24653,-1.63384 3.67615,-2.0423c1.42961,-0.40846 3.16557,-0.61269 5.41211,-0.61269c1.3275,0 2.75711,0.10212 4.28884,0.20423c1.53173,0.10212 3.06346,0.40846 4.59518,0.71481l-3.57403,6.22903c-1.12327,-0.20423 -2.14442,-0.40846 -2.96134,-0.51058c-0.91904,-0.10212 -1.63384,-0.20423 -2.34865,-0.20423c-1.42961,0 -2.45076,0.10212 -3.06346,0.30635s-1.12327,0.61269 -1.3275,1.12327c-0.10212,0.30635 -0.10212,0.61269 0,0.71481c0.10212,0.10212 0.40846,0.20423 0.91904,0.20423c0.20423,0 0.61269,0 1.42961,-0.10212c0.71481,0 1.3275,-0.10212 1.83807,-0.10212c1.42961,0 2.34865,0.30635 2.65499,1.02115c0.40846,0.71481 0.20423,1.83807 -0.30635,3.47192c-0.51058,1.22538 -1.12327,2.45076 -1.83807,3.67615c-0.81692,1.12327 -1.63384,2.0423 -2.45076,2.85923c-1.12327,0.91904 -2.24653,1.53173 -3.57403,1.94019c-1.3275,0.40846 -3.06346,0.61269 -5.10576,0.61269c-1.42961,0 -2.85923,-0.10212 -4.39095,-0.20423c-1.73596,-0.30635 -3.26769,-0.51058 -4.90153,-0.81692l0,0z" id="svg_21"/>
   <path stroke="null" d="m370.58658,489.85486c-1.53173,0.30635 -2.96134,0.61269 -4.39095,0.71481s-2.65499,0.20423 -3.77826,0.20423c-1.53173,0 -2.55288,-0.30635 -2.96134,-0.91904c-0.40846,-0.61269 -0.40846,-1.63384 0.20423,-2.96134c0.10212,-0.30635 0.30635,-0.61269 0.40846,-0.91904c0.10212,-0.30635 0.30635,-0.61269 0.40846,-0.81692l4.6973,-8.16922l-2.55288,0l2.34865,-4.08461c2.75711,-1.94019 4.90153,-3.47192 6.43326,-4.59518c1.53173,-1.12327 2.85923,-2.24653 3.98249,-3.26769l4.49307,0l-2.24653,3.98249l6.22903,0l-4.59518,7.96498l-6.22903,0l-2.85923,5.00364c-0.10212,0.20423 -0.20423,0.30635 -0.30635,0.51058c-0.10212,0.20423 -0.20423,0.40846 -0.20423,0.61269c-0.20423,0.51058 -0.20423,0.81692 0,1.02115c0.20423,0.20423 0.51058,0.30635 1.12327,0.30635c0.40846,0 0.91904,0 1.63384,-0.20423c0.71481,-0.10212 1.53173,-0.20423 2.55288,-0.40846l-4.39095,6.0248l0,0z" id="svg_20"/>
   <path stroke="null" d="m374.36485,490.1612l12.35594,-21.23996l7.25018,0c-0.51058,0.81692 -1.02115,1.73596 -1.53173,2.55288c-0.51058,0.91904 -1.12327,1.83807 -1.73596,2.96134l0.10212,0c1.42961,-2.14442 2.85923,-3.67615 4.18672,-4.59518c1.3275,-1.02115 2.65499,-1.53173 4.08461,-1.53173c0.40846,0 0.81692,0 1.12327,0.10212c0.40846,0.10212 0.71481,0.20423 1.12327,0.40846l-6.53537,11.33479c-0.61269,-0.20423 -1.12327,-0.30635 -1.63384,-0.40846c-0.51058,-0.10212 -1.02115,-0.10212 -1.53173,-0.10212c-1.22538,0 -2.34865,0.40846 -3.3698,1.12327c-0.91904,0.71481 -2.0423,2.14442 -3.16557,4.08461l-3.06346,5.20787l-7.65864,0l0,0.10212z" id="svg_19"/>
   <path stroke="null" id="svg_48" d="m409.18613,476.57988c-0.61269,0 -1.12327,0.10212 -1.63384,0.40846c-0.51058,0.30635 -1.02115,0.71481 -1.63384,1.42961c-0.40846,0.51058 -0.81692,1.12327 -1.22538,1.73596c-0.40846,0.71481 -0.71481,1.22538 -0.91904,1.73596c-0.20423,0.61269 -0.30635,1.12327 -0.10212,1.53173c0.20423,0.40846 0.61269,0.51058 1.22538,0.51058c1.02115,0 1.94019,-0.51058 2.96134,-1.53173c1.02115,-1.02115 1.83807,-2.34865 2.34865,-3.88038c0.20423,-0.61269 0.20423,-1.12327 0,-1.53173c-0.10212,-0.30635 -0.51058,-0.40846 -1.02115,-0.40846l0,0zm14.29613,-7.65864l-12.35594,21.23996l-7.45441,0c0.51058,-0.71481 0.91904,-1.53173 1.42961,-2.34865c0.51058,-0.81692 0.91904,-1.63384 1.42961,-2.45076c-1.53173,1.94019 -3.06346,3.26769 -4.39095,4.18672c-1.42961,0.81692 -2.85923,1.3275 -4.49307,1.3275c-1.63384,0 -2.65499,-0.51058 -3.16557,-1.63384c-0.40846,-1.02115 -0.30635,-2.65499 0.51058,-4.6973c0.61269,-1.53173 1.3275,-3.16557 2.34865,-4.90153c1.02115,-1.83807 2.0423,-3.3698 3.06346,-4.90153c1.73596,-2.24653 3.26769,-3.88038 4.79941,-4.90153c1.42961,-1.02115 3.06346,-1.42961 4.79941,-1.42961c1.63384,0 2.75711,0.40846 3.26769,1.12327c0.51058,0.71481 0.61269,1.94019 0.20423,3.57403c0.20423,-0.40846 0.51058,-1.02115 1.02115,-1.94019c0.51058,-0.91904 0.91904,-1.63384 1.22538,-2.14442l7.76075,0l0,-0.10212z"/>
   <polygon stroke="null" points="422.7673645019531,490.1615295410156 415.0067138671875,490.1615295410156 430.2220153808594,463.8157043457031 437.9826965332031,463.8157043457031 " id="svg_18"/>
   <path stroke="null" id="svg_49" d="m448.80682,462.89645c0.30635,0 0.61269,0.10212 0.61269,0.30635s0.10212,0.51058 -0.10212,0.81692c-0.10212,0.30635 -0.30635,0.71481 -0.61269,1.22538c-0.30635,0.51058 -0.51058,0.91904 -0.81692,1.3275c-0.30635,0.40846 -0.61269,0.71481 -1.02115,0.91904c-0.30635,0.20423 -0.71481,0.30635 -1.22538,0.30635l-5.00364,0c-0.30635,0 -0.61269,-0.10212 -0.71481,-0.30635c-0.10212,-0.20423 -0.10212,-0.51058 0.10212,-0.81692c0.10212,-0.30635 0.30635,-0.71481 0.61269,-1.22538c0.30635,-0.51058 0.51058,-0.91904 0.81692,-1.3275c0.30635,-0.40846 0.61269,-0.71481 1.02115,-0.91904c0.30635,-0.20423 0.71481,-0.30635 1.22538,-0.30635l5.10576,0l0,0zm-22.26111,27.26476l12.25382,-21.13784c0.61269,0.10212 1.22538,0.30635 1.73596,0.30635c0.61269,0.10212 1.12327,0.10212 1.73596,0.10212c0.61269,0 1.22538,0 1.94019,-0.10212c0.71481,-0.10212 1.53173,-0.20423 2.34865,-0.30635l-12.25382,21.13784l-7.76075,0l0,0z"/>
   <path stroke="null" id="svg_50" d="m455.34219,476.57988c-0.61269,0 -1.12327,0.10212 -1.63384,0.40846c-0.51058,0.30635 -1.02115,0.71481 -1.63384,1.42961c-0.40846,0.51058 -0.81692,1.12327 -1.22538,1.73596s-0.71481,1.22538 -0.91904,1.73596c-0.20423,0.61269 -0.30635,1.12327 -0.10212,1.53173c0.20423,0.40846 0.61269,0.51058 1.22538,0.51058c1.02115,0 1.94019,-0.51058 2.96134,-1.53173c1.02115,-1.02115 1.83807,-2.34865 2.34865,-3.88038c0.20423,-0.61269 0.20423,-1.12327 0,-1.53173c0,-0.30635 -0.40846,-0.40846 -1.02115,-0.40846l0,0zm14.39824,-7.65864l-12.35594,21.23996l-7.55652,0c0.51058,-0.71481 0.91904,-1.53173 1.42961,-2.34865c0.51058,-0.81692 0.91904,-1.63384 1.42961,-2.45076c-1.53173,1.94019 -3.06346,3.26769 -4.39095,4.18672c-1.42961,0.81692 -2.85923,1.3275 -4.49307,1.3275c-1.63384,0 -2.65499,-0.51058 -3.16557,-1.63384c-0.40846,-1.02115 -0.30635,-2.65499 0.51058,-4.6973c0.61269,-1.53173 1.3275,-3.16557 2.34865,-4.90153c1.02115,-1.83807 2.0423,-3.3698 3.06346,-4.90153c1.73596,-2.24653 3.26769,-3.88038 4.79941,-4.90153c1.42961,-1.02115 3.06346,-1.42961 4.79941,-1.42961c1.63384,0 2.75711,0.40846 3.26769,1.12327c0.51058,0.71481 0.61269,1.94019 0.20423,3.57403c0.20423,-0.40846 0.51058,-1.02115 1.02115,-1.94019c0.51058,-0.91904 0.91904,-1.63384 1.22538,-2.14442l7.86287,0l0,-0.10212z"/>
  </g>
 </g>
</svg>